<svg xmlns="http://www.w3.org/2000/svg" width="31.071" height="15" viewBox="0 0 31.071 15"><g transform="translate(-190 -224)"><rect width="31.071" height="15" rx="3" transform="translate(190 224)"/><path fill="#fff" d="M196.17 233.287H195l2.116-4.787h1.195l2.093 4.787h-1.21l-.437-1.093h-2.132zm1.554-3.667h-.047l-.773 1.85h1.6zm3.061 4.88v-4.679h1.007v.516h.016a1.449 1.449 0 011.3-.6 1.659 1.659 0 011.32.536 1.925 1.925 0 01.437 1.321 1.788 1.788 0 01-.445 1.24 1.688 1.688 0 01-1.327.543 1.373 1.373 0 01-1.234-.59h-.019v1.713zm2.022-1.8a.9.9 0 00.763-.352 1.26 1.26 0 00.238-.788 1.289 1.289 0 00-.238-.787.9.9 0 00-.765-.362.9.9 0 00-.765.355 1.3 1.3 0 00-.234.8 1.215 1.215 0 00.242.784.9.9 0 00.76.347zm2.733 1.8v-4.679h1.007v.516h.016a1.449 1.449 0 011.3-.6 1.659 1.659 0 011.317.533 1.925 1.925 0 01.437 1.321 1.788 1.788 0 01-.447 1.24 1.688 1.688 0 01-1.327.543 1.373 1.373 0 01-1.234-.59h-.016v1.716zm2.022-1.8a.9.9 0 00.765-.349 1.26 1.26 0 00.236-.791 1.289 1.289 0 00-.234-.791.9.9 0 00-.765-.362.9.9 0 00-.765.355 1.3 1.3 0 00-.234.8 1.215 1.215 0 00.242.784.9.9 0 00.757.351zm3.818-4.2v4.787h-1.052V228.5zm1.751 3.245a.9.9 0 001.015.972q.828 0 .953-.6h.929q-.281 1.257-1.913 1.257a2.136 2.136 0 01-1.491-.5 1.689 1.689 0 01-.547-1.314 1.687 1.687 0 01.57-1.307 2.092 2.092 0 011.46-.516 1.962 1.962 0 011.523.563 1.912 1.912 0 01.44 1.445zm1.882-.523a.958.958 0 00-.226-.61.913.913 0 00-.7-.268.923.923 0 00-.695.275.891.891 0 00-.258.6z"/></g></svg>