<svg xmlns="http://www.w3.org/2000/svg" width="50" height="50" viewBox="0 0 50 50"><defs><style>.cls-1{fill:#fff}</style></defs><g id="apple" transform="translate(-731 -268)"><circle id="타원_4" cx="25" cy="25" r="25" transform="translate(731 268)"/><path id="패스_898" d="M754.444 417.363c-2.979-.017-5.444-6.1-5.444-9.2 0-5.059 3.8-6.167 5.258-6.167a6.049 6.049 0 011.984.488 4.436 4.436 0 001.133.325 3.523 3.523 0 00.813-.263 6.515 6.515 0 012.45-.592h.006a5.02 5.02 0 014.2 2.122l.307.46-.441.333a3.71 3.71 0 00-1.779 3.06 3.454 3.454 0 001.927 3.193c.276.166.562.337.562.712 0 .245-1.952 5.5-4.786 5.5a3.852 3.852 0 01-1.616-.392 3.277 3.277 0 00-1.439-.347 3.7 3.7 0 00-1.139.308 5.581 5.581 0 01-1.976.461zm0 0" class="cls-1" transform="translate(-1.333 -114.53)"/><path id="패스_899" d="M961.892 284c.074 2.661-1.83 4.508-3.731 4.392a4.242 4.242 0 013.731-4.392zm0 0" class="cls-1" transform="translate(-202.288 -1.185)"/></g></svg>