<svg xmlns="http://www.w3.org/2000/svg" width="29" height="29" viewBox="0 0 29 29"><path fill="none" d="M0 0h29v29H0z"/><path fill="#222" d="M0 14.38a10.034 10.034 0 011.25-5.42A4.543 4.543 0 015.4 7a4.543 4.543 0 014.15 1.96 10.034 10.034 0 011.25 5.42 10.185 10.185 0 01-1.25 5.46 4.527 4.527 0 01-4.15 1.98 4.527 4.527 0 01-4.15-1.98A10.185 10.185 0 010 14.38zm8.04 0a13.76 13.76 0 00-.19-2.49 3.355 3.355 0 00-.76-1.65A2.146 2.146 0 005.4 9.6a2.146 2.146 0 00-1.69.64 3.355 3.355 0 00-.76 1.65 13.759 13.759 0 00-.19 2.49 15.159 15.159 0 00.18 2.55 3.2 3.2 0 00.76 1.66 2.2 2.2 0 001.7.63 2.2 2.2 0 001.7-.63 3.2 3.2 0 00.76-1.66 15.159 15.159 0 00.18-2.55zM22.32 9.7h-6.48v3.42a3.012 3.012 0 011.2-.85 4.216 4.216 0 011.66-.33 4.534 4.534 0 012.62.7 4.05 4.05 0 011.48 1.79 5.931 5.931 0 01.46 2.33 5.2 5.2 0 01-1.31 3.7 4.859 4.859 0 01-3.73 1.4 5.483 5.483 0 01-3.64-1.14 4.278 4.278 0 01-1.54-2.98h2.72a2.149 2.149 0 00.81 1.28 2.582 2.582 0 001.61.48 2.156 2.156 0 001.78-.74 3.017 3.017 0 00.6-1.96 2.663 2.663 0 00-.61-1.89 2.338 2.338 0 00-1.79-.65 2.268 2.268 0 00-1.4.42 2.291 2.291 0 00-.8 1.12h-2.68V7.24h9.04zM26.56 22a1.732 1.732 0 01-1.25-.47 1.555 1.555 0 01-.49-1.17 1.555 1.555 0 01.49-1.17 1.732 1.732 0 011.25-.47 1.672 1.672 0 011.22.47 1.571 1.571 0 01.48 1.17 1.571 1.571 0 01-.48 1.17 1.672 1.672 0 01-1.22.47z"/></svg>