<svg xmlns="http://www.w3.org/2000/svg" width="29" height="29" viewBox="0 0 29 29"><path fill="none" d="M0 0h29v29H0z"/><path fill="#222" d="M.06 14.52A10.034 10.034 0 011.31 9.1a4.543 4.543 0 014.15-1.96A4.543 4.543 0 019.61 9.1a10.034 10.034 0 011.25 5.42 10.185 10.185 0 01-1.25 5.46 4.527 4.527 0 01-4.15 1.98 4.527 4.527 0 01-4.15-1.98 10.185 10.185 0 01-1.25-5.46zm8.04 0a13.76 13.76 0 00-.19-2.49 3.355 3.355 0 00-.76-1.65 2.146 2.146 0 00-1.69-.64 2.146 2.146 0 00-1.69.64 3.355 3.355 0 00-.76 1.65 13.759 13.759 0 00-.19 2.49A15.159 15.159 0 003 17.07a3.2 3.2 0 00.76 1.66 2.2 2.2 0 001.7.63 2.2 2.2 0 001.7-.63 3.2 3.2 0 00.76-1.66 15.159 15.159 0 00.18-2.55zm4.36 4.64v-2.2L19 7.6h3.26v9.12h1.76v2.44h-1.76V22h-2.8v-2.84zm7.18-8.56l-4.1 6.12h4.1zm7.32 11.54a1.732 1.732 0 01-1.25-.47 1.555 1.555 0 01-.49-1.17 1.555 1.555 0 01.49-1.17 1.732 1.732 0 011.25-.47 1.672 1.672 0 011.22.47 1.571 1.571 0 01.48 1.17 1.571 1.571 0 01-.48 1.17 1.672 1.672 0 01-1.22.47z"/></svg>