<svg xmlns="http://www.w3.org/2000/svg" width="29" height="29" viewBox="0 0 29 29"><path fill="none" d="M0 0h29v29H0z"/><path fill="#222" d="M.06 14.44a10.034 10.034 0 011.25-5.42 4.543 4.543 0 014.15-1.96 4.543 4.543 0 014.15 1.96 10.034 10.034 0 011.25 5.42 10.185 10.185 0 01-1.25 5.46 4.527 4.527 0 01-4.15 1.98 4.527 4.527 0 01-4.15-1.98 10.185 10.185 0 01-1.25-5.46zm8.04 0a13.76 13.76 0 00-.19-2.49 3.355 3.355 0 00-.76-1.65 2.146 2.146 0 00-1.69-.64 2.146 2.146 0 00-1.69.64 3.355 3.355 0 00-.76 1.65 13.759 13.759 0 00-.19 2.49A15.159 15.159 0 003 16.99a3.2 3.2 0 00.76 1.66 2.2 2.2 0 001.7.63 2.2 2.2 0 001.7-.63 3.2 3.2 0 00.76-1.66 15.159 15.159 0 00.18-2.55zm12.04-3.46a2.306 2.306 0 00-.69-1.26 2.107 2.107 0 00-1.41-.42 2.186 2.186 0 00-2.03 1.11 7.612 7.612 0 00-.67 3.61 3.246 3.246 0 011.4-1.25 4.49 4.49 0 012-.45 4.627 4.627 0 012.3.56 3.879 3.879 0 011.56 1.63 5.479 5.479 0 01.56 2.57 5.459 5.459 0 01-.57 2.53 4.1 4.1 0 01-1.67 1.73 5.253 5.253 0 01-2.62.62 5.223 5.223 0 01-3.27-.92 4.8 4.8 0 01-1.66-2.57 15.073 15.073 0 01-.47-4.07 9.936 9.936 0 011.26-5.53A4.456 4.456 0 0118.14 7a4.453 4.453 0 013.26 1.14 4.522 4.522 0 011.34 2.84zm-2.04 3.64a2.632 2.632 0 00-1.78.62 2.245 2.245 0 00-.72 1.8 2.535 2.535 0 00.67 1.86 2.534 2.534 0 001.89.68 2.252 2.252 0 001.71-.66 2.471 2.471 0 00.63-1.78 2.654 2.654 0 00-.61-1.84 2.281 2.281 0 00-1.79-.68zm8.44 7.44a1.732 1.732 0 01-1.25-.47 1.555 1.555 0 01-.49-1.17 1.555 1.555 0 01.49-1.17 1.732 1.732 0 011.25-.47 1.672 1.672 0 011.22.47 1.571 1.571 0 01.48 1.17 1.571 1.571 0 01-.48 1.17 1.672 1.672 0 01-1.22.47z"/></svg>