<svg xmlns="http://www.w3.org/2000/svg" width="29" height="29" viewBox="0 0 29 29"><path fill="none" d="M0 0h29v29H0z"/><path fill="#222" d="M.06 14.38a10.034 10.034 0 011.25-5.42A4.543 4.543 0 015.46 7a4.543 4.543 0 014.15 1.96 10.034 10.034 0 011.25 5.42 10.185 10.185 0 01-1.25 5.46 4.527 4.527 0 01-4.15 1.98 4.527 4.527 0 01-4.15-1.98 10.185 10.185 0 01-1.25-5.46zm8.04 0a13.76 13.76 0 00-.19-2.49 3.355 3.355 0 00-.76-1.65 2.146 2.146 0 00-1.69-.64 2.146 2.146 0 00-1.69.64 3.355 3.355 0 00-.76 1.65 13.759 13.759 0 00-.19 2.49A15.159 15.159 0 003 16.93a3.2 3.2 0 00.76 1.66 2.2 2.2 0 001.7.63 2.2 2.2 0 001.7-.63 3.2 3.2 0 00.76-1.66 15.159 15.159 0 00.18-2.55zm6.92-.24a3.41 3.41 0 01-2-3.22 3.674 3.674 0 01.55-1.97 3.815 3.815 0 011.66-1.42A6.256 6.256 0 0117.94 7a6.256 6.256 0 012.71.53 3.815 3.815 0 011.66 1.42 3.674 3.674 0 01.55 1.97 3.459 3.459 0 01-.54 1.93 3.688 3.688 0 01-1.44 1.29 3.9 3.9 0 011.72 1.4 3.808 3.808 0 01.62 2.18 4.1 4.1 0 01-.69 2.37 4.434 4.434 0 01-1.89 1.55 6.509 6.509 0 01-2.7.54 6.44 6.44 0 01-2.69-.54 4.445 4.445 0 01-1.88-1.55 4.1 4.1 0 01-.69-2.37 3.855 3.855 0 01.62-2.19 3.747 3.747 0 011.72-1.39zm5.12-2.82a1.957 1.957 0 00-.59-1.52 2.294 2.294 0 00-1.61-.54 2.264 2.264 0 00-1.59.54 1.982 1.982 0 00-.59 1.54 1.828 1.828 0 00.61 1.44 2.281 2.281 0 001.57.54 2.292 2.292 0 001.58-.55 1.845 1.845 0 00.62-1.45zm-2.2 4.04a2.831 2.831 0 00-1.85.58 2.021 2.021 0 00-.71 1.66 2.106 2.106 0 00.69 1.63 2.667 2.667 0 001.87.63 2.6 2.6 0 001.86-.64 2.129 2.129 0 00.68-1.62 2.04 2.04 0 00-.7-1.65 2.759 2.759 0 00-1.84-.59zM26.6 22a1.732 1.732 0 01-1.25-.47 1.555 1.555 0 01-.49-1.17 1.555 1.555 0 01.49-1.17 1.732 1.732 0 011.25-.47 1.672 1.672 0 011.22.47 1.571 1.571 0 01.48 1.17 1.571 1.571 0 01-.48 1.17 1.672 1.672 0 01-1.22.47z"/></svg>