<svg xmlns="http://www.w3.org/2000/svg" width="29" height="29" viewBox="0 0 29 29"><path fill="none" d="M0 0h29v29H0z"/><path fill="#222" d="M.06 14.44a10.034 10.034 0 011.25-5.42 4.543 4.543 0 014.15-1.96 4.543 4.543 0 014.15 1.96 10.034 10.034 0 011.25 5.42 10.185 10.185 0 01-1.25 5.46 4.527 4.527 0 01-4.15 1.98 4.527 4.527 0 01-4.15-1.98 10.185 10.185 0 01-1.25-5.46zm8.04 0a13.76 13.76 0 00-.19-2.49 3.355 3.355 0 00-.76-1.65 2.146 2.146 0 00-1.69-.64 2.146 2.146 0 00-1.69.64 3.355 3.355 0 00-.76 1.65 13.759 13.759 0 00-.19 2.49A15.159 15.159 0 003 16.99a3.2 3.2 0 00.76 1.66 2.2 2.2 0 001.7.63 2.2 2.2 0 001.7-.63 3.2 3.2 0 00.76-1.66 15.159 15.159 0 00.18-2.55zm7.72 3.38a2.183 2.183 0 00.73 1.35 2.331 2.331 0 001.53.47 1.9 1.9 0 001.8-1.03 7.776 7.776 0 00.56-3.47 3.026 3.026 0 01-1.29 1 4.449 4.449 0 01-1.79.36 4.974 4.974 0 01-2.31-.53 3.914 3.914 0 01-1.63-1.58 5.064 5.064 0 01-.6-2.55 4.75 4.75 0 011.32-3.53A4.886 4.886 0 0117.74 7a4.4 4.4 0 014.01 1.82 10.273 10.273 0 011.17 5.48 16.686 16.686 0 01-.45 4.26 4.633 4.633 0 01-1.54 2.52 4.671 4.671 0 01-2.97.86 5.176 5.176 0 01-2.52-.57 4.067 4.067 0 01-1.59-1.5 4.616 4.616 0 01-.63-2.05zm2.12-3.6a2.139 2.139 0 001.64-.64 2.413 2.413 0 00.6-1.72 2.521 2.521 0 00-.63-1.83 2.271 2.271 0 00-1.71-.65 2.234 2.234 0 00-1.71.67 2.479 2.479 0 00-.63 1.77 2.47 2.47 0 00.61 1.73 2.353 2.353 0 001.83.67zm8.32 7.84a1.732 1.732 0 01-1.25-.47 1.555 1.555 0 01-.49-1.17 1.555 1.555 0 01.49-1.17 1.732 1.732 0 011.25-.47 1.672 1.672 0 011.22.47 1.571 1.571 0 01.48 1.17 1.571 1.571 0 01-.48 1.17 1.672 1.672 0 01-1.22.47z"/></svg>