<svg xmlns="http://www.w3.org/2000/svg" width="29" height="29" viewBox="0 0 29 29"><path fill="none" d="M0 0h29v29H0z"/><path fill="#222" d="M.06 14.42A10.034 10.034 0 011.31 9a4.543 4.543 0 014.15-1.96A4.543 4.543 0 019.61 9a10.034 10.034 0 011.25 5.42 10.185 10.185 0 01-1.25 5.46 4.527 4.527 0 01-4.15 1.98 4.527 4.527 0 01-4.15-1.98 10.185 10.185 0 01-1.25-5.46zm8.04 0a13.76 13.76 0 00-.19-2.49 3.355 3.355 0 00-.76-1.65 2.146 2.146 0 00-1.69-.64 2.146 2.146 0 00-1.69.64 3.355 3.355 0 00-.76 1.65 13.759 13.759 0 00-.19 2.49A15.159 15.159 0 003 16.97a3.2 3.2 0 00.76 1.66 2.2 2.2 0 001.7.63 2.2 2.2 0 001.7-.63 3.2 3.2 0 00.76-1.66 15.159 15.159 0 00.18-2.55zm5.36 4.32q1.92-1.6 3.06-2.67a12.378 12.378 0 001.9-2.23 4.153 4.153 0 00.76-2.28 2.437 2.437 0 00-.48-1.6 1.811 1.811 0 00-1.48-.58 1.864 1.864 0 00-1.54.67 2.92 2.92 0 00-.56 1.83H12.4a4.935 4.935 0 011.43-3.64A4.874 4.874 0 0117.26 7a4.76 4.76 0 013.5 1.21 4.293 4.293 0 011.22 3.19 5.767 5.767 0 01-.84 2.98 11.794 11.794 0 01-1.92 2.47q-1.08 1.05-2.82 2.53h5.9v2.32h-9.88v-2.08zm11.76 3.3a1.732 1.732 0 01-1.25-.47 1.555 1.555 0 01-.49-1.17 1.555 1.555 0 01.49-1.17 1.732 1.732 0 011.25-.47 1.672 1.672 0 011.22.47 1.571 1.571 0 01.48 1.17 1.571 1.571 0 01-.48 1.17 1.672 1.672 0 01-1.22.47z"/></svg>