<svg xmlns="http://www.w3.org/2000/svg" width="29" height="29" viewBox="0 0 29 29"><path fill="none" d="M0 0h29v29H0z"/><path fill="#222" d="M.06 14.52A10.034 10.034 0 011.31 9.1a4.543 4.543 0 014.15-1.96A4.543 4.543 0 019.61 9.1a10.034 10.034 0 011.25 5.42 10.185 10.185 0 01-1.25 5.46 4.527 4.527 0 01-4.15 1.98 4.527 4.527 0 01-4.15-1.98 10.185 10.185 0 01-1.25-5.46zm8.04 0a13.76 13.76 0 00-.19-2.49 3.355 3.355 0 00-.76-1.65 2.146 2.146 0 00-1.69-.64 2.146 2.146 0 00-1.69.64 3.355 3.355 0 00-.76 1.65 13.759 13.759 0 00-.19 2.49A15.159 15.159 0 003 17.07a3.2 3.2 0 00.76 1.66 2.2 2.2 0 001.7.63 2.2 2.2 0 001.7-.63 3.2 3.2 0 00.76-1.66 15.159 15.159 0 00.18-2.55zm4.52-3.26a4.078 4.078 0 011.41-3.09 5.218 5.218 0 013.45-1.09 5.63 5.63 0 012.5.51 3.67 3.67 0 011.57 1.38 3.711 3.711 0 01.53 1.97 3.458 3.458 0 01-.65 2.13 3.186 3.186 0 01-1.55 1.17v.08a3.362 3.362 0 011.81 1.28 4 4 0 01.65 2.36 4.158 4.158 0 01-.55 2.14 3.743 3.743 0 01-1.62 1.47 5.738 5.738 0 01-2.57.53 5.7 5.7 0 01-3.68-1.14 4.264 4.264 0 01-1.5-3.36h2.72a2.178 2.178 0 00.67 1.57 2.431 2.431 0 001.73.59 2.081 2.081 0 001.57-.57 2.029 2.029 0 00.55-1.47A1.933 1.933 0 0018.9 16a4.239 4.239 0 00-2.36-.52h-.58v-2.3h.58q2.84 0 2.84-1.9a1.751 1.751 0 00-.51-1.34 2.066 2.066 0 00-1.47-.48 1.961 1.961 0 00-1.45.51 2.061 2.061 0 00-.59 1.29zm13.1 10.88a1.732 1.732 0 01-1.25-.47 1.555 1.555 0 01-.49-1.17 1.555 1.555 0 01.49-1.17 1.732 1.732 0 011.25-.47 1.672 1.672 0 011.22.47 1.571 1.571 0 01.48 1.17 1.571 1.571 0 01-.48 1.17 1.672 1.672 0 01-1.22.47z"/></svg>