<svg version="1.1" id="Layer_1" xmlns="http://www.w3.org/2000/svg" x="0" y="0" viewBox="0 0 35 35" xml:space="preserve"><style>.st1{fill:#fff}</style><g id="btn-profile" transform="translate(-182 -391)"><g transform="translate(182 391)"><circle id="Ellipse_2-2" cx="17.5" cy="17.5" r="12.5" fill="#be5050"/></g><g id="그룹_1532" transform="translate(164.165 440.907)"><path id="패스_684" class="st1" d="M39.9-35.9H38l-.8-1.4c-.2-.3-.5-.5-.9-.5h-1.8c-.4 0-.7.2-.9.5l-.8 1.4h-1.9c-.6 0-1.1.5-1.1 1.1v5.3c0 .6.5 1.1 1.1 1.1h9c.6 0 1.1-.5 1.1-1.1v-5.3c0-.6-.5-1.1-1.1-1.1zm-4.5 6.6c-1.6 0-2.9-1.3-2.9-2.9 0-1.6 1.3-2.9 2.9-2.9 1.6 0 2.9 1.3 2.9 2.9 0 1.5-1.3 2.9-2.9 2.9z"/><path id="패스_685" class="st1" d="M35.4-34.4c-1.2 0-2.1.9-2.1 2.1 0 1.2.9 2.1 2.1 2.1 1.2 0 2.1-.9 2.1-2.1 0-1.1-.9-2.1-2.1-2.1z"/></g></g></svg>