<svg version="1.1" id="Layer_1" xmlns="http://www.w3.org/2000/svg" xmlns:xlink="http://www.w3.org/1999/xlink" x="0" y="0" viewBox="0 0 54 54" xml:space="preserve"><style>.st1{fill:#e7161a}.st3{fill:#1a1311}</style><defs><path id="SVGID_1_" d="M0 0h54v54H0z"/></defs><clipPath id="SVGID_2_"><use xlink:href="#SVGID_1_" overflow="visible"/></clipPath><defs><path id="SVGID_3_" d="M6.2 2.1h39.5v47.7H6.2z"/></defs><clipPath id="SVGID_4_"><use xlink:href="#SVGID_3_" overflow="visible"/></clipPath><g id="그룹_1536" clip-path="url(#SVGID_4_)"><path id="패스_736" class="st1" d="M41.5 30.4l-4-7c-2.8-4.9-7.7-7.4-13.3-4.1-5.4 3.1-5.9 8.7-3 13.6l6.7 11.6c2.8 4.9 8.8 6.7 13.3 4.1 4.8-2.8 5.9-8.7 3-13.6l-3.5-6.1.8 1.5z"/><path id="패스_737" class="st1" d="M34 32.3c3.7-4.4 4.3-9.8-.6-14-4.8-4-10.2-2.5-13.8 1.8L8.8 33c-3.6 4.3-3.3 10.6.7 13.9 4.2 3.5 10.2 2.5 13.8-1.8l7.1-8.4 3.6-4.4z"/><path id="패스_738" d="M34.3 28.9c5.8 0 10.5-3 10.5-9.6 0-6.3-4.7-9.6-10.4-9.6h-17C11.7 9.7 7 14 7 19.3c0 5.6 4.7 9.6 10.4 9.6h16.9z" fill="#42afa3"/><path id="패스_739" class="st3" d="M22.2 32.9c-1.3 0-2.3 1-2.3 2.3s1 2.3 2.3 2.3 2.3-1 2.3-2.3c0-1.3-1-2.3-2.3-2.3"/><path id="패스_740" class="st3" d="M31.8 32.9c-1.3 0-2.3 1-2.3 2.3s1 2.3 2.3 2.3c1.3 0 2.3-1 2.3-2.3 0-1.3-1-2.3-2.3-2.3"/></g></svg>