<svg xmlns="http://www.w3.org/2000/svg" width="54" height="54" viewBox="0 0 54 54"><defs><clipPath id="clip-path"><path id="사각형_968" fill="#ff6161" d="M0 0h54v54H0z" opacity=".5" transform="translate(3725 577)"/></clipPath><clipPath id="clip-path-2"><path id="사각형_947" fill="none" d="M0 0h39.981v39.972H0z"/></clipPath><style>.cls-6{fill:#1a1311}</style></defs><g id="btn_humanities" clip-path="url(#clip-path)" transform="translate(-3725 -577)"><g id="그룹_1541" transform="translate(3731.231 583.231)"><g id="그룹_1540" clip-path="url(#clip-path-2)"><path id="패스_745" fill="#e7161a" d="M0 19.986A19.99 19.99 0 1019.986 0 19.991 19.991 0 000 19.986"/><path id="패스_746" d="M11.394 11.225a2.337 2.337 0 11-2.336-2.337 2.337 2.337 0 012.337 2.337" class="cls-6" transform="translate(7.238 9.571)"/><path id="패스_747" d="M15.185 11.225a2.337 2.337 0 11-2.337-2.337 2.337 2.337 0 012.337 2.337" class="cls-6" transform="translate(11.321 9.571)"/></g></g></g></svg>