<svg xmlns="http://www.w3.org/2000/svg" width="30" height="30" viewBox="0 0 30 30"><defs><style>.cls-1{fill:none}.cls-3{fill:#fff}.cls-5,.cls-6{stroke:none}.cls-6{fill:#fff}</style></defs><g id="btn_save" transform="translate(-310 -168)"><g id="icon_headphone" transform="translate(0 -624)"><path id="사각형_845" d="M0 0h30v30H0z" class="cls-1" transform="translate(310 792)"/><circle id="타원_83" cx="15" cy="15" r="15" fill="#dea6a6" transform="translate(310 792)"/></g><g id="log_out" transform="rotate(-90 403 113)"><path id="사각형_3204" d="M0 0h17v20H0z" class="cls-1" transform="translate(325 25)"/><g id="그룹_9059" transform="translate(326.222 26.667)"><g id="합치기_1" class="cls-3"><path d="M7.137 15.767H.9V.9h6.237a.74.74 0 010 1.482H2.396v11.903h4.741a.741.741 0 010 1.482z" class="cls-5"/><path d="M7.137 15.667a.64.64 0 100-1.282H2.296V2.282h4.841a.64.64 0 000-1.282H1v14.667h6.137m0 .2H.8V.8h6.337a.84.84 0 010 1.682H2.496v11.703h4.641a.84.84 0 010 1.682z" class="cls-6"/></g><g id="사각형_3201" fill="#fff" stroke="#fff" stroke-width=".2" transform="rotate(180 7.186 4.484)"><rect width="7.778" height="1.111" class="cls-5" rx=".556"/><rect width="7.978" height="1.311" x="-.1" y="-.1" class="cls-1" rx=".656"/></g><g id="합치기_2" class="cls-3"><path d="M.907 7.09a.743.743 0 01-.525-1.266l2.197-2.197L.382 1.431A.742.742 0 011.431.383l2.72 2.72a.744.744 0 010 1.049l-.023.022-2.697 2.699a.736.736 0 01-.524.217z" class="cls-5" transform="rotate(180 4.989 6)"/><path d="M.907 6.99a.64.64 0 00.453-.188l2.7-2.701.02-.02a.637.637 0 00.091-.793.644.644 0 00-.09-.114L1.36.454a.638.638 0 00-.907 0 .641.641 0 000 .906L2.72 3.627.453 5.895A.642.642 0 00.907 6.99m0 .2a.843.843 0 01-.595-1.436l2.125-2.127L.311 1.501A.841.841 0 111.502.312l2.72 2.72a.846.846 0 010 1.191l-.023.022-2.698 2.699a.837.837 0 01-.594.246z" class="cls-6" transform="rotate(180 4.989 6)"/></g></g></g></g></svg>