<svg xmlns="http://www.w3.org/2000/svg" width="85" height="85" viewBox="0 0 85 85"><defs><filter id="타원_82" width="85" height="85" x="0" y="0" filterUnits="userSpaceOnUse"><feOffset dy="2"/><feGaussianBlur result="blur" stdDeviation="10"/><feFlood flood-opacity=".161"/><feComposite in2="blur" operator="in"/><feComposite in="SourceGraphic"/></filter><style>.cls-2{fill:#fff}</style></defs><g id="btn_profile" transform="translate(-159.757 -97.757)"><g filter="url(#타원_82)" transform="translate(159.76 97.76)"><circle id="타원_82-2" cx="12.5" cy="12.5" r="12.5" fill="#be5050" transform="translate(30 28)"/></g><g id="그룹_1533" transform="translate(196.676 133.477)"><g id="그룹_1532"><path id="패스_684" d="M10.1 9.73H8.215l-.8-1.445a1.063 1.063 0 00-.93-.548H4.68a1.063 1.063 0 00-.93.548l-.8 1.446H1.063A1.063 1.063 0 000 10.793v5.315a1.063 1.063 0 001.063 1.063H10.1a1.063 1.063 0 001.063-1.063v-5.315A1.063 1.063 0 0010.1 9.73zM5.581 16.3A2.924 2.924 0 118.5 13.381 2.924 2.924 0 015.581 16.3z" class="cls-2" transform="translate(0 -7.736)"/><path id="패스_685" d="M33.078 39.254A2.126 2.126 0 1035.2 41.38a2.129 2.129 0 00-2.122-2.126z" class="cls-2" transform="translate(-27.497 -35.736)"/></g></g></g></svg>