<svg xmlns="http://www.w3.org/2000/svg" width="85" height="85" viewBox="0 0 85 85"><defs><style>.cls-2{fill:none}.cls-3{fill:#e7f3ff}.cls-4{fill:#59a6f2}</style></defs><g id="btn_language" transform="translate(-110 -448)"><g id="타원_80" fill="rgba(238,238,238,0.17)" stroke="#eee" transform="translate(110 448)"><circle cx="42.5" cy="42.5" r="42.5" stroke="none"/><circle cx="42.5" cy="42.5" r="42" class="cls-2"/></g><g id="그룹_1463" transform="translate(35 22)"><path id="사각형_839" d="M0 0h57v57H0z" class="cls-2" transform="translate(89 440)"/><g id="그룹_1455" transform="translate(97.55 448.55)"><g id="그룹_1454" transform="translate(3.941 20.951)"><path id="패스_661" d="M836.648 1803.077a4.106 4.106 0 014.1-4.1h27.044l-.275.639a9.57 9.57 0 000 6.925l.275.639H840.75a4.106 4.106 0 01-4.102-4.103z" class="cls-3" transform="translate(-836.648 -1798.975)"/><path id="패스_663" d="M918.049 1989.653h17.163a.756.756 0 100-1.512h-17.163a.756.756 0 100 1.512z" class="cls-3" transform="translate(-911.519 -1984.893)"/></g><g id="그룹_1451"><path id="패스_661-2" d="M872.277 1797.873a.756.756 0 100-1.512H859l.622-.751a12.074 12.074 0 002.474-5.655 7.977 7.977 0 00-1.514-6.419 5.219 5.219 0 00-4.089-1.909 5.789 5.789 0 00-2.179.432l-.8.322.176-.841a4.132 4.132 0 012.974-3.125.767.767 0 00.581-.735.756.756 0 00-.295-.6.738.738 0 00-.641-.134 5.643 5.643 0 00-4.181 4.792l-.07.611-.565-.241a5.809 5.809 0 00-2.29-.479 5.2 5.2 0 00-4.081 1.894 8 8 0 00-1.522 6.435 12.2 12.2 0 002.345 5.5l.129.159.617.75h-6.051a5.679 5.679 0 00-5.711 5.565 5.557 5.557 0 001.125 3.415l.552.734h-3.35a.756.756 0 000 1.512h2.429c.337 0 .727.375 1.041 1.005a7.908 7.908 0 010 6.193c-.315.629-.7 1-1.041 1h-2.429a.756.756 0 100 1.512h31.637a5.679 5.679 0 005.711-5.565 5.556 5.556 0 00-1.125-3.415l-.552-.734h3.35a.756.756 0 000-1.512h-2.429c-.337 0-.727-.375-1.041-1a7.909 7.909 0 010-6.193c.315-.629.7-1 1.041-1zm-27.184-8.166a6.456 6.456 0 011.174-5.191 3.75 3.75 0 012.937-1.377 5.083 5.083 0 013.588 1.711l.055.052.054-.051a5.083 5.083 0 013.589-1.712 3.74 3.74 0 012.932 1.365 6.559 6.559 0 011.179 5.2c-.663 3.98-3.132 6.654-5.022 6.654a2.983 2.983 0 01-2.153-1.22l-.579-.692-.579.692a2.983 2.983 0 01-2.153 1.22c-1.89.003-4.359-2.671-5.022-6.651zm-8.652 12.268a4.107 4.107 0 014.1-4.1h27.044l-.275.639a9.57 9.57 0 000 6.925l.275.639h-27.043a4.106 4.106 0 01-4.101-4.103zm32.651 9.715a4.106 4.106 0 01-4.1 4.1h-27.046l.275-.639a9.566 9.566 0 000-6.924l-.275-.639h27.044a4.106 4.106 0 014.102 4.101z" class="cls-4" transform="translate(-832.5 -1776.922)"/><path id="패스_662" d="M957.661 2073.788h-17a.756.756 0 100 1.512h17a.756.756 0 100-1.512z" class="cls-4" transform="translate(-927.599 -2039.776)"/><path id="패스_663-2" d="M918.049 1989.653h17.163a.756.756 0 100-1.512h-17.163a.756.756 0 100 1.512z" class="cls-4" transform="translate(-907.578 -1963.942)"/></g></g></g></g></svg>