<svg xmlns="http://www.w3.org/2000/svg" width="54" height="54" viewBox="0 0 54 54"><defs><clipPath id="clip-path"><path id="사각형_965" fill="#ff6161" d="M0 0h54v54H0z" opacity=".5" transform="translate(3628.104 577.104)"/></clipPath><clipPath id="clip-path-2"><path id="사각형_944" fill="none" d="M0 0h33.848v33.85H0z"/></clipPath><style>.cls-6{fill:#1a1311}</style></defs><g id="btn_masterpiece" clip-path="url(#clip-path)" transform="translate(-3628.104 -577.104)"><g id="그룹_1535" transform="translate(3638.483 587.483)"><g id="그룹_1534" clip-path="url(#clip-path-2)"><path id="패스_733" fill="#e7161a" d="M31.77 0H2.078A2.076 2.076 0 000 2.078v29.694a2.076 2.076 0 002.078 2.078H31.77a2.077 2.077 0 002.078-2.078V2.078A2.077 2.077 0 0031.77 0"/><path id="패스_734" d="M6.485 6.007a2.337 2.337 0 102.338 2.337 2.338 2.338 0 00-2.338-2.337" class="cls-6" transform="translate(4.47 6.473)"/><path id="패스_735" d="M12.11 6.007a2.337 2.337 0 102.337 2.337 2.338 2.338 0 00-2.337-2.337" class="cls-6" transform="translate(10.531 6.473)"/><path id="사각형_943" fill="#fff" d="M0 0h5.454v2.078H0z" transform="translate(14.071 20.531)"/></g></g></g></svg>