<svg xmlns="http://www.w3.org/2000/svg" width="54" height="54" viewBox="0 0 54 54"><defs><clipPath id="clip-path"><path id="사각형_976" fill="#ff6161" d="M0 0h54v54H0z" opacity=".5" transform="translate(3783 630)"/></clipPath><clipPath id="clip-path-2"><path id="사각형_955" fill="none" d="M0 0h39.848v36.51H0z"/></clipPath><style>.cls-5{fill:#e7161a}</style></defs><g id="btn_history" clip-path="url(#clip-path)" transform="translate(-3783 -630)"><g id="그룹_1557" transform="translate(3789.231 638.308)"><g id="그룹_1556" clip-path="url(#clip-path-2)"><path id="패스_779" d="M5.345 5.346a18.26 18.26 0 1025.816 0 18.261 18.261 0 00-25.816 0" class="cls-5" transform="translate(-.001 -.001)"/><path id="패스_780" d="M15.521 10.386a5.47 5.47 0 107.732 0 5.474 5.474 0 00-7.732 0" class="cls-5" transform="translate(14.992 9.46)"/><path id="패스_781" d="M15.521 5.45a5.469 5.469 0 107.734 0 5.472 5.472 0 00-7.734 0" class="cls-5" transform="translate(14.992 4.143)"/><path id="패스_782" fill="#1a1311" d="M14.616 8.962a2.337 2.337 0 11-2.336-2.337 2.339 2.339 0 012.337 2.337" transform="translate(10.708 7.134)"/></g></g></g></svg>