<svg xmlns="http://www.w3.org/2000/svg" width="85" height="85" viewBox="0 0 85 85"><defs><style>.cls-2{fill:none}</style></defs><g id="btn_classic" transform="translate(-300 -448)"><g id="타원_82" fill="rgba(238,238,238,0.17)" stroke="#eee" transform="translate(300 448)"><circle cx="42.5" cy="42.5" r="42.5" stroke="none"/><circle cx="42.5" cy="42.5" r="42" class="cls-2"/></g><g id="그룹_1465" transform="translate(66 22)"><path id="사각형_841" d="M0 0h57v57H0z" class="cls-2" transform="translate(248 440)"/><g id="그룹_1457" transform="translate(255.6 448.55)"><path id="패스_664" fill="#69ba65" d="M2594.176 1811.467h-2.263v-4.6a.705.705 0 00-.666-.738h-2.047v-6.538l.073-.125 2.617-4.451a.806.806 0 00.025-.76.658.658 0 00-.582-.38h-2v-3.647h2a.687.687 0 00.657-.625.739.739 0 00-.462-.818c-2.208-.755-8.513-3.645-8.513-6.908v-2.953a.669.669 0 10-1.33 0v2.215h-16.065v-2.215a.669.669 0 10-1.33 0v2.953c0 3.263-6.3 6.152-8.511 6.907a.74.74 0 00-.463.818.687.687 0 00.657.625h2v3.647h-2a.659.659 0 00-.582.38.8.8 0 00.025.76l2.691 4.576v6.539h-2.052a.705.705 0 00-.666.738v4.6h-2.264a.705.705 0 00-.665.738v5.336a.705.705 0 00.665.738h41.054a.705.705 0 00.666-.738v-5.341a.705.705 0 00-.669-.733zm-32.588-23.934c2.125-1.405 3.423-2.9 3.861-4.45l.132-.467h16.137l.132.467c.437 1.548 1.736 3.045 3.861 4.45l1.844 1.22h-27.811zm-2.285 2.7H2588v3.647h-28.7zm-2.105 5.123h32.9l-2.061 3.5h-28.781zm30.668 4.98v5.8h-6.11v-5.8zm-7.441 0v5.8h-6.11v-5.8zm-7.44 0v5.8h-6.11v-5.8zm-7.44 0v5.8h-6.11v-5.8zm2.479 16.471h-14.235v-3.86h14.659zm.586-5.336h-11.892v-3.86h12.316zm.754 5.336l1.01-9.2h6.554l1.01 9.2zm8.9-9.2h12.316v3.86h-11.89zm15.245 9.2h-14.235l-.424-3.86h14.659z" transform="translate(-2552.457 -1778.187)"/><path id="합치기_1" fill="#e7f7d3" stroke="rgba(0,0,0,0)" stroke-miterlimit="10" d="M25.489 26.574l-.423-3.86h14.659v3.86zm-9.913 0zM0 26.574v-3.86h14.66l-.424 3.86zM20.528 15.9v-5.8h6.11v5.8zm-14.881 0v-5.8h6.111v5.8zm-.13-12.253V0h28.691v3.647z" transform="translate(1.33 12.042)"/></g></g></g></svg>