<svg xmlns="http://www.w3.org/2000/svg" width="54" height="54" viewBox="0 0 54 54"><defs><clipPath id="clip-path"><path id="사각형_970" fill="#ff6161" d="M0 0h54v54H0z" opacity=".5" transform="translate(3781 577)"/></clipPath><clipPath id="clip-path-2"><path id="사각형_949" fill="none" d="M0 0h39.825v39.819H0z"/></clipPath><style>.cls-5{fill:#e7161a}.cls-6{fill:#1a1311}</style></defs><g id="btn_philosophy" clip-path="url(#clip-path)" transform="translate(-3781 -577)"><g id="그룹_1545" transform="translate(3787.231 585.308)"><g id="그룹_1544" clip-path="url(#clip-path-2)" transform="translate(.769 -1.308)"><path id="패스_754" d="M2.476 11.83h32.255a1.26 1.26 0 001.09-1.894 19.886 19.886 0 00-34.435 0 1.262 1.262 0 001.09 1.894" class="cls-5" transform="translate(1.308)"/><path id="패스_755" d="M39.495 8.722a1.264 1.264 0 00-1.242-1.038H1.572A1.255 1.255 0 00.334 8.722 13.538 13.538 0 000 11.634a19.912 19.912 0 0039.825 0 13.744 13.744 0 00-.33-2.912" class="cls-5" transform="translate(0 8.275)"/><path id="패스_756" d="M11.6 14.979a2.337 2.337 0 11-2.337-2.337 2.337 2.337 0 012.337 2.337" class="cls-6" transform="translate(7.457 13.615)"/><path id="패스_757" d="M15.389 14.979a2.337 2.337 0 11-2.337-2.337 2.337 2.337 0 012.337 2.337" class="cls-6" transform="translate(11.54 13.615)"/></g></g></g></svg>