<svg xmlns="http://www.w3.org/2000/svg" width="20" height="20" viewBox="0 0 20 20"><defs><style>.cls-2{fill:#333}</style></defs><g id="btn_downlode" transform="translate(-2030 -1143)"><path id="사각형_1134" fill="none" d="M0 0h20v20H0z" transform="translate(2030 1143)"/><g id="Solid" transform="translate(2006 1119)"><path id="패스_972" d="M145.694 39.559a1.034 1.034 0 001.463 0l3.9-3.9a1.034 1.034 0 00-1.463-1.463l-2.134 2.134v-11.3a1.034 1.034 0 10-2.069 0v11.3l-2.135-2.135a1.034 1.034 0 00-1.463 1.463z" class="cls-2" transform="translate(-112.426)"/><path id="패스_973" d="M42.965 232a1.034 1.034 0 00-1.034 1.034v7.931H26.069v-7.931a1.034 1.034 0 00-2.069 0v8.276a1.724 1.724 0 001.724 1.724h16.552A1.724 1.724 0 0044 241.31v-8.276A1.034 1.034 0 0042.965 232z" class="cls-2" transform="translate(0 -199.035)"/></g></g></svg>