<svg xmlns="http://www.w3.org/2000/svg" width="54" height="54" viewBox="0 0 54 54"><defs><clipPath id="clip-path"><path id="사각형_971" fill="#ff6161" d="M0 0h54v54H0z" opacity=".5" transform="translate(3628 630)"/></clipPath><clipPath id="clip-path-2"><path id="사각형_950" fill="none" d="M0 0h41.943v40.195H0z"/></clipPath><style>.cls-5{fill:#e7161a}</style></defs><g id="btn_science" clip-path="url(#clip-path)" transform="translate(-3628 -630)"><g id="그룹_1547" transform="translate(3634.231 636.231)"><g id="그룹_1546" clip-path="url(#clip-path-2)"><path id="패스_758" d="M31.218 20.789v-9.043C31.218 5.4 27.889.232 20.585.232 13.608.232 9.959 5.4 9.959 11.746V26.8c0 6.345 4.764 11.512 10.626 11.512 6.183 0 10.634-5.167 10.634-11.512v-6.011z" class="cls-5" transform="translate(10.725 .249)"/><path id="패스_759" d="M30.291 21.259h.077c6.347 0 11.512-3.329 11.512-10.63C41.88 3.649 36.715 0 30.368 0H11.511C5.166 0 0 4.769 0 10.63c0 6.179 5.165 10.63 11.51 10.63h18.78z" class="cls-5" transform="translate(.001 -.001)"/><path id="패스_760" d="M2.213 19.551A5.353 5.353 0 107.565 14.2a5.353 5.353 0 00-5.352 5.352" class="cls-5" transform="translate(2.383 15.29)"/><path id="패스_761" fill="#1a1311" d="M16.839 12.154A2.337 2.337 0 1114.5 9.817a2.337 2.337 0 012.337 2.337" transform="translate(13.102 10.571)"/></g></g></g></svg>