<svg xmlns="http://www.w3.org/2000/svg" width="54" height="54" viewBox="0 0 54 54"><defs><clipPath id="clip-path"><path id="사각형_972" fill="#ff6161" d="M0 0h54v54H0z" opacity=".5" transform="translate(3661 630)"/></clipPath><clipPath id="clip-path-2"><path id="사각형_951" fill="none" d="M0 0h43.47v40.571H0z"/></clipPath><style>.cls-5{fill:#e7161a}.cls-6{fill:#1a1311}</style></defs><g id="btn_mathematics" clip-path="url(#clip-path)" transform="translate(-3661 -630)"><g id="그룹_1549" transform="translate(3667.231 636.231)"><g id="그룹_1548" clip-path="url(#clip-path-2)"><path id="패스_762" d="M5.7 18.7l-.054-.058C1.335 13.986.271 7.934 5.628 2.974 10.752-1.767 16.937-.457 21.248 4.2l16.83 17.951c4.31 4.659 4.32 11.689.017 15.67-4.536 4.2-11.311 3.429-15.621-1.227L10.068 23.42z" class="cls-5" transform="translate(2.154)"/><path id="패스_763" d="M35.613 18.7l.054-.058c4.314-4.659 5.377-10.711.021-15.67C30.564-1.767 24.379-.457 20.067 4.2L3.238 22.151c-4.31 4.659-4.32 11.689-.017 15.67 4.536 4.2 11.311 3.429 15.621-1.227L31.247 23.42z" class="cls-5"/><path id="패스_764" d="M11.7 12.42a2.337 2.337 0 11-2.337-2.337A2.337 2.337 0 0111.7 12.42" class="cls-6" transform="translate(7.568 10.859)"/><path id="패스_765" d="M16.325 12.42a2.337 2.337 0 11-2.337-2.337 2.337 2.337 0 012.337 2.337" class="cls-6" transform="translate(12.548 10.859)"/></g></g></g></svg>