<svg xmlns="http://www.w3.org/2000/svg" width="85" height="85" viewBox="0 0 85 85"><defs><style>.cls-2{fill:none}</style></defs><g id="btn_literature" transform="translate(-205 -448)"><g id="타원_81" fill="rgba(238,238,238,0.17)" stroke="#eee" transform="translate(205 448)"><circle cx="42.5" cy="42.5" r="42.5" stroke="none"/><circle cx="42.5" cy="42.5" r="42" class="cls-2"/></g><g id="그룹_1466" transform="translate(48 -105)"><path id="사각형_840" d="M0 0h57v57H0z" class="cls-2" transform="translate(171 567)"/><g id="그룹_1460" transform="translate(179.55 575.55)"><path id="패스_678" fill="#917bff" d="M1450.941 1205.739l-10.047-10.047a.927.927 0 00-1.309 0l-5.182 5.182a.926.926 0 000 1.309l.767.766-13.873 6.937a.925.925 0 00-.445.484l-9.469 23.672a.703.703 0 00-.029.083.965.965 0 00-.035.171.919.919 0 00.192.672l.016.02a.927.927 0 00.887.318c.024 0 .047-.011.071-.017h.018a.934.934 0 00.089-.031l23.673-9.469a.924.924 0 00.484-.445l6.937-13.873.766.766a.925.925 0 001.309 0l5.182-5.182a.927.927 0 00-.002-1.316zm-15.692 18.455l-19.168 7.667 11.15-11.15.165.079a3.258 3.258 0 001.419.322 3.294 3.294 0 10-3.294-3.294 3.252 3.252 0 00.322 1.419l.079.165-11.15 11.15 7.667-19.168 14.11-7.055 5.755 5.755zm-7.877-6.376a1.443 1.443 0 111.443 1.442 1.444 1.444 0 01-1.443-1.442zm17.733-7.552l-8.739-8.738 3.873-3.873 8.738 8.738z" transform="translate(-1411.312 -1195.421)"/></g><path id="패스_678-2" fill="#eeeaff" d="M1435.431 1224.663l-19.168 7.667 11.151-11.15.165.079a3.256 3.256 0 001.419.322 3.294 3.294 0 10-3.294-3.294 3.254 3.254 0 00.322 1.419l.079.165-11.15 11.15 7.667-19.168 14.11-7.055 5.755 5.755z" transform="translate(-1231.945 -620.34)"/></g></g></svg>