<svg xmlns="http://www.w3.org/2000/svg" width="54" height="54" viewBox="0 0 54 54"><defs><clipPath id="clip-path"><path id="사각형_974" fill="#ff6161" d="M0 0h54v54H0z" opacity=".5" transform="translate(3724 630)"/></clipPath><clipPath id="clip-path-2"><path id="사각형_953" fill="none" d="M0 0h33.837v44.916H0z"/></clipPath><style>.cls-5{fill:#e7161a}.cls-6{fill:#1a1311}</style></defs><g id="btn_culture" clip-path="url(#clip-path)" transform="translate(-3724 -630)"><g id="그룹_1553" transform="translate(3734.385 634.154)"><g id="그룹_1552" clip-path="url(#clip-path-2)"><path id="패스_770" d="M5.446 21.824a5.353 5.353 0 105.354-5.352 5.353 5.353 0 00-5.352 5.352" class="cls-5" transform="translate(5.865 17.739)"/><path id="패스_771" d="M31.76 0H2.077A2.075 2.075 0 000 2.077v29.685a2.075 2.075 0 002.077 2.077H31.76a2.076 2.076 0 002.077-2.077V2.077A2.076 2.076 0 0031.76 0" class="cls-5"/><path id="패스_772" d="M10.113 12.261a2.337 2.337 0 11-2.336-2.337 2.337 2.337 0 012.337 2.337" class="cls-6" transform="translate(5.858 10.687)"/><path id="패스_773" d="M13.905 12.261a2.337 2.337 0 11-2.337-2.337 2.337 2.337 0 012.337 2.337" class="cls-6" transform="translate(9.942 10.687)"/></g></g></g></svg>