<svg xmlns="http://www.w3.org/2000/svg" width="20" height="20" viewBox="0 0 20 20"><g transform="translate(-291.362 -37.517)"><rect width="20" height="20" fill="none" rx="5" transform="translate(291.362 37.517)"/><path fill="#333" stroke="#fff" stroke-width=".5" d="M298.129 45.885h3.707a3.806 3.806 0 002.372-.592 2.136 2.136 0 00.741-1.776 1.784 1.784 0 00-.964-1.7 4.468 4.468 0 00-2.15-.518h-3.706zm0 7.844h5.041a3.067 3.067 0 002.372-.814 2.858 2.858 0 00.741-2 2.125 2.125 0 00-.964-1.85 3.7 3.7 0 00-2.15-.666h-5.04zm7.71-6.66a3.117 3.117 0 011.631 1.036 4.1 4.1 0 011.334 2.96 4.681 4.681 0 01-1.631 3.848 6.83 6.83 0 01-4.448 1.332h-9.192v-2.512h2.075V41.301h-2.075v-2.516h7.859a7.5 7.5 0 014.374 1.184 4.038 4.038 0 011.705 3.552 4.1 4.1 0 01-1.632 3.552z"/></g></svg>