<svg xmlns="http://www.w3.org/2000/svg" width="54" height="54" viewBox="0 0 54 54"><defs><style>.cls-4{fill:#1a1311}</style></defs><g id="btn_synthesis" transform="translate(-275 -740)"><path id="사각형_988" fill="none" d="M0 0h54v54H0z" transform="translate(275 740)"/><g id="그룹_1571" transform="translate(264.41 721.225)"><path id="패스_824" fill="#42afa3" d="M37.965 25.775h-8.426c-5.693 0-10.326 4.276-10.326 9.535a9.248 9.248 0 005.571 8.47l-1.551 2.426.884-1.39-3.752 5.876C17.34 55.427 18.2 61.4 22.818 64.349c4.371 2.794 10.392 1.208 13.413-3.529l1.734-2.711z"/><path id="패스_825" fill="#de0012" d="M41.746 44.816l.884 1.39-1.454-2.273c3.244-1.315 5.476-4.1 5.476-8.623 0-6.262-4.635-9.535-10.326-9.535h-8.364v32.431l1.668 2.614c3.023 4.737 9.042 6.322 13.415 3.529 4.617-2.944 5.476-8.922 2.451-13.656z" transform="translate(9.978)"/><g id="그룹_1570" transform="translate(30.899 44.015)"><circle id="타원_97" cx="2.323" cy="2.323" r="2.323" class="cls-4"/><circle id="타원_98" cx="2.323" cy="2.323" r="2.323" class="cls-4" transform="translate(9.55)"/></g></g></g></svg>