<svg xmlns="http://www.w3.org/2000/svg" width="54" height="54" viewBox="0 0 54 54"><defs><clipPath id="clip-path"><path id="사각형_978" fill="#ff6161" d="M0 0h54v54H0z" opacity=".5" transform="translate(3815 630)"/></clipPath><clipPath id="clip-path-2"><path id="사각형_962" fill="none" d="M0 0h33.902v41.117H0z"/></clipPath><style>.cls-5{fill:#e7161a}.cls-6{fill:#1a1311}</style></defs><g id="btn_art" clip-path="url(#clip-path)" transform="translate(-3815 -630)"><g id="그룹_1559" transform="translate(3825.385 636.231)"><g id="그룹_1558" clip-path="url(#clip-path-2)"><path id="패스_783" d="M21.146 17.748v-4.791c0-4.875-3.306-3.709-10.559-3.709C3.654 9.247.032 8.082.032 12.957v7.332c0 4.872 4.731 11 10.555 11 6.141 0 10.559-6.129 10.559-11v-2.54z" class="cls-5" transform="translate(.034 9.827)"/><path id="패스_784" d="M27.271 17.748v-4.791c0-4.875-3.309-3.709-10.563-3.709-6.929 0-10.551-1.165-10.551 3.709v7.332c0 4.872 4.729 11 10.551 11 6.144 0 10.563-6.129 10.563-11v-2.54z" class="cls-5" transform="translate(6.631 9.827)"/><path id="패스_785" d="M31.76 3.284H2.077A2.075 2.075 0 000 5.361v20.314a2.075 2.075 0 002.077 2.077H31.76a2.076 2.076 0 002.077-2.077V5.361a2.076 2.076 0 00-2.077-2.077" class="cls-5" transform="translate(0 3.537)"/><path id="패스_786" d="M7.61 5.541a2.337 2.337 0 102.336 2.337A2.337 2.337 0 007.61 5.541" class="cls-6" transform="translate(5.679 5.967)"/><path id="패스_787" d="M11.4 5.541a2.337 2.337 0 102.337 2.337A2.337 2.337 0 0011.4 5.541" class="cls-6" transform="translate(9.762 5.967)"/><path id="사각형_956" d="M0 0h2.422v5.539H0z" class="cls-6" transform="translate(2.127)"/><path id="사각형_957" d="M0 0h2.422v5.539H0z" class="cls-6" transform="translate(7.527)"/><path id="사각형_958" d="M0 0h2.424v5.539H0z" class="cls-6" transform="translate(12.927)"/><path id="사각형_959" d="M0 0h2.424v5.539H0z" class="cls-6" transform="translate(18.325)"/><path id="사각형_960" d="M0 0h2.424v5.539H0z" class="cls-6" transform="translate(23.727)"/><path id="사각형_961" d="M0 0h2.422v5.539H0z" class="cls-6" transform="translate(29.127)"/></g></g></g></svg>