<svg xmlns="http://www.w3.org/2000/svg" width="54" height="54" viewBox="0 0 54 54"><defs><clipPath id="clip-path"><path id="사각형_975" fill="#ff6161" d="M0 0h54v54H0z" opacity=".5" transform="translate(3751 630)"/></clipPath><clipPath id="clip-path-2"><path id="사각형_954" fill="none" d="M0 0h39.981v45.792H0z"/></clipPath><style>.cls-6{fill:#42afa3}.cls-7{fill:#1a1311}</style></defs><g id="btn_character" clip-path="url(#clip-path)" transform="translate(-3751 -630)"><g id="그룹_1555" transform="translate(3757.231 634.154)"><g id="그룹_1554" clip-path="url(#clip-path-2)"><path id="패스_774" fill="#e7161a" d="M0 19.986A19.99 19.99 0 1019.986 0 19.993 19.993 0 000 19.986"/><path id="패스_775" d="M4.548 22.246A5.353 5.353 0 109.9 16.894a5.352 5.352 0 00-5.352 5.352" class="cls-6" transform="translate(4.898 18.194)"/><path id="패스_776" d="M9.548 22.246a5.353 5.353 0 105.352-5.352 5.352 5.352 0 00-5.352 5.352" class="cls-6" transform="translate(10.282 18.194)"/><path id="패스_777" d="M11.555 11.225a2.337 2.337 0 11-2.336-2.337 2.337 2.337 0 012.337 2.337" class="cls-7" transform="translate(7.411 9.572)"/><path id="패스_778" d="M15.347 11.225a2.337 2.337 0 11-2.337-2.337 2.337 2.337 0 012.337 2.337" class="cls-7" transform="translate(11.495 9.572)"/></g></g></g></svg>