<svg xmlns="http://www.w3.org/2000/svg" width="20" height="20" viewBox="0 0 20 20"><path fill="none" d="M0 0h20v20H0z"/><path fill="#333" d="M14.923 12.524a3.733 3.733 0 00-2.387.863l-3.171-1.964a4.307 4.307 0 000-2.847l3.171-1.965a3.729 3.729 0 10-1.077-1.47L8.414 7.027a4.3 4.3 0 100 5.943l3.045 1.886a3.7 3.7 0 00-.274 1.4 3.738 3.738 0 103.738-3.738zm0 5.659a1.921 1.921 0 111.921-1.921 1.923 1.923 0 01-1.921 1.92zm0-12.524a1.921 1.921 0 111.921-1.921 1.923 1.923 0 01-1.921 1.921zm-9.62 6.828A2.487 2.487 0 117.79 10a2.49 2.49 0 01-2.486 2.482z"/></svg>