<svg xmlns="http://www.w3.org/2000/svg" width="54" height="54" viewBox="0 0 54 54"><defs><clipPath id="clip-path"><path id="사각형_973" fill="#ff6161" d="M0 0h54v54H0z" opacity=".5" transform="translate(3691 630)"/></clipPath><clipPath id="clip-path-2"><path id="사각형_952" fill="none" d="M0 0h49.08v35.783H0z"/></clipPath><style>.cls-7{fill:#1a1311}</style></defs><g id="btn_society" clip-path="url(#clip-path)" transform="translate(-3691 -630)"><g id="그룹_1551" transform="translate(3695.154 638.308)"><g id="그룹_1550" clip-path="url(#clip-path-2)"><path id="패스_766" fill="#e7161a" d="M33.443 12.369l-5.83-6.914C23.524.6 17.646-1.2 12.061 3.5c-5.334 4.5-4.8 10.8-.7 15.656l9.7 11.508c4.089 4.852 11.062 5.73 15.544 1.952 4.729-3.986 4.8-10.8.71-15.656l-5.074-6.021z" transform="translate(8.804 .817)"/><path id="패스_767" fill="#42afa3" d="M32.359 19.489l.06-.05c4.854-4.092 6.657-9.965 1.952-15.55-4.5-5.338-10.8-4.8-15.654-.708L4.3 15.337C-.554 19.429-1.431 26.4 2.349 30.885c3.984 4.725 10.8 4.8 15.652.708l9.444-7.961z"/><path id="패스_768" d="M14.135 8.609A2.337 2.337 0 1111.8 6.272a2.337 2.337 0 012.337 2.337" class="cls-7" transform="translate(10.19 6.754)"/><path id="패스_769" d="M18.76 8.609a2.337 2.337 0 11-2.337-2.337 2.337 2.337 0 012.337 2.337" class="cls-7" transform="translate(15.171 6.754)"/></g></g></g></svg>