<svg xmlns="http://www.w3.org/2000/svg" width="54" height="54" viewBox="0 0 54 54"><defs><clipPath id="a"><path fill="#ff6161" d="M0 0h54v54H0z" opacity=".5" transform="translate(3691 577)"/></clipPath><clipPath id="b"><path fill="none" d="M0 0h41.881v39.599H0z"/></clipPath></defs><g clip-path="url(#a)" transform="translate(-3691 -577)"><g clip-path="url(#b)" transform="translate(3697.231 583.231)"><path fill="#e7161a" d="M41.881 22.076v-9.043c0-6.346-3.327-11.514-10.631-11.514-6.979 0-10.628 5.168-10.628 11.514v15.054c0 6.345 4.767 11.512 10.628 11.512 6.181 0 10.632-5.167 10.632-11.512v-6.011z"/><path fill="#42afa3" d="M30.292 21.258h.077c6.349 0 11.512-3.329 11.512-10.63 0-6.98-5.163-10.629-11.512-10.629H11.512C5.165-.001 0 4.768 0 10.629c0 6.179 5.165 10.63 11.512 10.63h18.78z"/><path fill="#1a1311" d="M18.701 14.906a2.337 2.337 0 11-2.336-2.337 2.337 2.337 0 012.337 2.337"/></g></g></svg>