<svg xmlns="http://www.w3.org/2000/svg" width="85" height="85" viewBox="0 0 85 85"><defs><style>.cls-2{fill:none}.cls-3{fill:#ff773d}</style></defs><g id="btn_all" transform="translate(-15 -448)"><g id="타원_79" fill="rgba(238,238,238,0.17)" stroke="#eee" transform="translate(15 448)"><circle cx="42.5" cy="42.5" r="42.5" stroke="none"/><circle cx="42.5" cy="42.5" r="42" class="cls-2"/></g><g id="그룹_1462" transform="translate(17 22)"><path id="사각형_838" d="M0 0h57v57H0z" class="cls-2" transform="translate(12 440)"/><g id="그룹_1456" transform="translate(18.65 448.55)"><g id="그룹_1453" transform="translate(1.432 19.54)"><path id="패스_658" d="M242.3 1986.57a.717.717 0 00.716-.716v-2.954a.716.716 0 00-1.432 0v2.958a.717.717 0 00.716.712z" class="cls-3" transform="translate(-237.098 -1978.263)"/><path id="패스_659" d="M500.509 1986.57a.717.717 0 00.716-.716v-2.954a.716.716 0 00-1.432 0v2.958a.717.717 0 00.716.712z" class="cls-3" transform="translate(-465.725 -1978.263)"/><path id="패스_660" fill="#fff1de" d="M201.847 1817.307h-10.4v-19.288h10.4zm11.833 0h-4.48v-7.455h4.484zm-10.4 0zm28.151 0h-10.4v-19.288h10.4z" transform="translate(-191.445 -1798.018)"/></g><g id="그룹_1450"><path id="패스_657" d="M344.868 1924.756a3.674 3.674 0 103.674-3.674 3.678 3.678 0 00-3.674 3.674zm5.916 0a2.242 2.242 0 11-2.242-2.242 2.245 2.245 0 012.242 2.242z" class="cls-3" transform="translate(-327.118 -1904.626)"/><path id="패스_658-2" d="M242.3 1986.57a.717.717 0 00.716-.716v-2.954a.716.716 0 00-1.432 0v2.958a.717.717 0 00.716.712z" class="cls-3" transform="translate(-235.666 -1958.723)"/><path id="패스_659-2" d="M500.509 1986.57a.717.717 0 00.716-.716v-2.954a.716.716 0 00-1.432 0v2.958a.717.717 0 00.716.712z" class="cls-3" transform="translate(-464.293 -1958.723)"/><path id="패스_660-2" d="M232.467 1795.466l-2.714-5.429a.713.713 0 00-.641-.4h-14.5l-2.539-2.539v-3.043h4.461a.717.717 0 00.716-.716v-5.177a.717.717 0 00-.716-.716h-5.177a.717.717 0 00-.716.716v8.936l-2.539 2.539h-14.5a.712.712 0 00-.64.4l-2.956 5.914a.719.719 0 00-.078.323v20.721a.717.717 0 00.716.716h41.417a.717.717 0 00.716-.716v-20.721a.712.712 0 00-.077-.32zm-20.388-16.584h3.745v3.745h-3.745zm-10.307 37.4h-10.4v-19.292h10.4zm-9.959-20.721l2.242-4.485h12.621l-4.485 4.485zm21.792 20.721h-4.485v-7.455h4.48zm5.917 0h-4.485v-8.171a.717.717 0 00-.716-.716H208.4a.717.717 0 00-.716.716v8.171H203.2v-19.712l8.159-8.159 8.159 8.159zm-3.472-25.205h12.62l2.242 4.485h-10.378zm15.305 25.205h-10.4v-19.292h10.4z" class="cls-3" transform="translate(-189.938 -1777.45)"/></g></g></g></g></svg>