<svg xmlns="http://www.w3.org/2000/svg" width="65" height="59" viewBox="0 0 65 59"><defs><clipPath id="clip-path"><path id="사각형_3250" fill="#fff" stroke="#707070" d="M0 0h65v59H0z" transform="translate(218.393 214.941)"/></clipPath><style>.cls-6{fill:#fff}.cls-7{fill:#231815}.cls-4{fill:#e7161a}</style></defs><g id="character03" clip-path="url(#clip-path)" transform="translate(-218.393 -214.941)"><g id="그룹_9183" transform="translate(218.778 217.253)"><g id="그룹_9182" transform="rotate(15 9.39 71.32)"><path id="패스_32759" fill="#231815" stroke="#231815" stroke-miterlimit="10" stroke-width=".6" d="M43.542 62.995a11.049 11.049 0 014.443.414c1.834.45 2.944.458 3.4.2s1.492-.92 1.685.023c.1.485-1.5.953-1.988.97a29.7 29.7 0 01-4.4-.625c-2.142-.325-2.684-.728-3.612.019s.472-1.001.472-1.001z"/><path id="패스_32760" d="M20.05.04S1.872 1.4.082 19.489C-.84 28.8 6.287 37.569 7.5 37.938c0 0-4.417 15.767 8.547 24.313 8.619 5.682 25.625 6.436 33.275-11.641 4.845-11.453-2.035-27.448-3.168-30.781S39.467-.944 20.05.04z" class="cls-4" transform="translate(0 6.724)"/><g id="그룹_9178" transform="translate(17.116 29.865)"><path id="패스_32761" d="M6.6 6.6a5.46 5.46 0 004-6.6L0 2.591A5.455 5.455 0 006.6 6.6z"/><path id="패스_32762" fill="#ff5960" d="M6.641.376A5.989 5.989 0 004.253.007 5.279 5.279 0 000 2.208a5.426 5.426 0 003.489.311A5.431 5.431 0 006.641.376z" transform="translate(3.107 4.08)"/></g><g id="그룹_9179" transform="translate(13.412 23.488)"><path id="패스_32763" d="M5.16 3.026A2.6 2.6 0 113.025.036a2.6 2.6 0 012.135 2.99z" class="cls-6" transform="translate(0 2.688)"/><path id="패스_32764" d="M3.12 1.83A1.571 1.571 0 111.829.022 1.568 1.568 0 013.12 1.83z" class="cls-7" transform="translate(1.026 3.713)"/><path id="패스_32765" d="M5.16 3.026A2.6 2.6 0 113.027.035 2.6 2.6 0 015.16 3.026z" class="cls-6" transform="translate(10.462)"/><path id="패스_32766" d="M3.1 1.815A1.558 1.558 0 111.814.021 1.561 1.561 0 013.1 1.815z" class="cls-7" transform="translate(11.503 1.04)"/></g><g id="그룹_9180" transform="translate(44.655 30.71)"><path id="패스_32767" d="M0 2.175A8.886 8.886 0 003.674.995C4.8.078 6.205-.4 7.039.417s1.33 2.928-2.957 5.557" class="cls-4" transform="translate(.735 .73)"/><path id="패스_32768" d="M4.818 7.439a.735.735 0 01-.384-1.361c2.6-1.592 3.094-2.817 3.159-3.4a1.164 1.164 0 00-.331-1c-.507-.495-1.593-.025-2.39.621A9.237 9.237 0 01.81 3.636.744.744 0 010 2.982a.735.735 0 01.654-.807 7.926 7.926 0 003.288-1.02C5.565-.163 7.27-.37 8.286.621a2.645 2.645 0 01.767 2.213c-.167 1.52-1.464 3.031-3.852 4.5a.728.728 0 01-.383.105z" class="cls-7"/></g><g id="그룹_9181" transform="translate(.948 45.81)"><path id="패스_32769" d="M7.453.352a8.9 8.9 0 01-3.86 0C2.237-.172.758-.19.212.837s-.367 3.194 4.519 4.382" class="cls-4" transform="translate(.734 .732)"/><path id="패스_32770" d="M5.466 6.686a.705.705 0 01-.173-.021C2.574 6 .877 4.964.25 3.57A2.653 2.653 0 01.3 1.227C.963-.029 2.651-.351 4.594.4A7.917 7.917 0 008.036.365a.735.735 0 01.3 1.438 9.249 9.249 0 01-4.275-.03c-.957-.37-2.134-.483-2.469.142a1.178 1.178 0 00-.006 1.053c.243.539 1.094 1.551 4.05 2.271a.734.734 0 01-.172 1.448z" class="cls-7"/></g><path id="패스_32771" fill="#e7161a" stroke="#fff" stroke-miterlimit="10" d="M16.873 14.65c-.183-.528-.475-1.511-.823-2.447a8.835 8.835 0 001.022.1c3.569.1 6.656-3.737 6.656-3.737a6.282 6.282 0 01-3.345-.366c-1.142-.462-3.97-1.823-5.392-1.863a4.691 4.691 0 00-2.07.4c1.146-2.4 2.071-4.943 2.071-4.943-.95-.931-2.914-.129-2.914-.129a15.412 15.412 0 01-.98 4.788 4.519 4.519 0 00-1.774-2.735c-1.131-.851-4.188-1.561-5.368-1.911A6.337 6.337 0 011.112 0s0 4.924 2.861 7.077a8.732 8.732 0 001.451.872C4.391 8.514 3.265 9.3 2.686 9.667A5.273 5.273 0 010 10.458s3.092 2.693 6 2.087a10.1 10.1 0 004.547-2.58 10.14 10.14 0 001.935 4.857c1.894 2.3 5.992 2.126 5.992 2.126a5.274 5.274 0 01-1.601-2.298z" transform="translate(13.965)"/></g></g></g></svg>