<svg xmlns="http://www.w3.org/2000/svg" width="76" height="76" viewBox="0 0 76 76"><defs><clipPath id="clip-path"><path id="사각형_981" fill="#ff9b9b" d="M0 0h76v76H0z" opacity=".57" transform="translate(142.559 271.559)"/></clipPath><clipPath id="clip-path-2"><path id="사각형_980" fill="none" d="M0 0h65.663v72.88H0z"/></clipPath><style>.cls-5{fill:#221714}.cls-6{fill:#e6211a}.cls-7{fill:red}.cls-8{fill:#fff}</style></defs><g id="character02" clip-path="url(#clip-path)" transform="translate(-142.559 -271.559)"><g id="그룹_1564" transform="translate(147.553 273.138)"><g id="그룹_1563" clip-path="url(#clip-path-2)"><path id="패스_790" d="M51.327 62.523a1.2 1.2 0 00-1.214-1.089 4.475 4.475 0 00-2 .782l-.146.087a3.137 3.137 0 01-1.542.269 18.692 18.692 0 01-3.985-.562c-5.019-1.156-17.826-2.349-17.953-2.361l-.187-.019-.115.148c-1.538 1.976.255 1.886 1.524 1.886a80.267 80.267 0 0110.873 1.43c1.444.253 2.691.47 3.539.586.89.121 1.77.271 2.62.417a28.356 28.356 0 004.5.545c.143 0 .285 0 .423-.009.717-.034 2.889-.644 3.5-1.44a.79.79 0 00.174-.669" class="cls-5" transform="translate(3.259 8.239)"/><path id="패스_791" d="M22.584 60.392l-.114-.04a14.009 14.009 0 00-4.27-.494 30.831 30.831 0 00-3.458.207 24.393 24.393 0 01-2.722.175 4.889 4.889 0 01-2.8-.506l-.133-.1A4 4 0 007.02 58.62a1.2 1.2 0 00-1.169.954.8.8 0 00.1.686c.517.86 2.605 1.71 3.312 1.823a25.925 25.925 0 004.957.023c.859-.049 1.748-.1 2.643-.121s1.645-.068 2.272-.109c1.737-.114 4.805.731 3.515-1.381z" class="cls-5" transform="translate(.803 8.099)"/><path id="패스_792" d="M40.71 11.9a5.039 5.039 0 002.539-.42A22.491 22.491 0 0039.5 8.272a3.206 3.206 0 00-.547-.142 3.443 3.443 0 00-1.563.139l-1.809.6-.085.2.046 1a8.916 8.916 0 001.243 4.359 4.7 4.7 0 002.382 1.636 4.63 4.63 0 01-.135-.477c-.044-.183-.1-.415-.153-.678a40.67 40.67 0 00-.414-1.774l-.5-1.887 1.893.478a7.346 7.346 0 00.856.171" class="cls-6" transform="translate(4.904 1.119)"/><path id="패스_793" d="M28.946 4.653a4.657 4.657 0 001.1 1.638 7.366 7.366 0 001.163.862l1.9 1.163-2.049.876c-.716.305-1.492.716-2.115 1.045-.262.138-.492.26-.67.349-.154.076-.3.145-.454.206a4.652 4.652 0 002.793.761 8.879 8.879 0 004.128-1.865l.644-.5-.209-1.859a3.2 3.2 0 00-.655-1.629c-.272-.1-.535-.2-.815-.294a23.419 23.419 0 00-4.761-.758" class="cls-6" transform="translate(3.844 .643)"/><path id="패스_794" d="M48.752 13.775c5.712 7.6 5.163 17.026 5.064 19.45-.143 3.509.514 20.876-8.113 29.8-13.622 14.081-29.188 7.267-35.171-1.125-9-12.617.78-25.711.78-25.711-.995-.777-4.48-11.5-.278-19.845 4.747-9.407 12.611-11.568 18.373-11.73 0 0 12.816 1.146 19.344 9.161" class="cls-7" transform="translate(.929 .638)"/><path id="패스_795" d="M41.543 16.37c-.127-.535-.321-1.529-.572-2.479a8.364 8.364 0 00.992.2c3.492.443 6.886-3.032 6.886-3.032a6.192 6.192 0 01-3.249-.678c-1.074-.561-3.72-2.165-5.109-2.339a4.6 4.6 0 00-2.07.19c1.351-2.242 2.5-4.653 2.5-4.653-.843-1-2.848-.4-2.848-.4a15.182 15.182 0 01-1.416 4.6 4.446 4.446 0 00-1.483-2.847C34.149 3.985 31.22 3 30.093 2.542A6.246 6.246 0 0127.476.5s-.466 4.833 2.133 7.215a8.563 8.563 0 001.341.994c-1.068.456-2.247 1.123-2.849 1.424a5.194 5.194 0 01-2.712.521s2.776 2.938 5.692 2.619a9.941 9.941 0 004.705-2.1 10.01 10.01 0 001.436 4.95c1.641 2.433 5.677 2.654 5.677 2.654a5.192 5.192 0 01-1.357-2.407" class="cls-7" transform="translate(3.508 .069)"/><path id="패스_796" d="M42.968 19.415h-.031c-.176-.009-4.34-.266-6.118-2.9a9.842 9.842 0 01-1.448-4.224 9.638 9.638 0 01-4.161 1.621c-3.14.339-6.052-2.671-6.167-2.794a.569.569 0 01.483-.955 4.532 4.532 0 002.387-.466c.172-.085.388-.2.635-.33.377-.2.839-.444 1.319-.679a9.825 9.825 0 01-.576-.48C26.518 5.657 26.958.722 26.979.513a.568.568 0 01.425-.5.574.574 0 01.612.231 5.729 5.729 0 002.361 1.835c.2.083.471.184.775.3a16.867 16.867 0 014.479 2.2 5.285 5.285 0 011.187 1.556 9.9 9.9 0 00.758-2.907.57.57 0 01.406-.533 5.569 5.569 0 011.434-.2 2.524 2.524 0 012.011.784.573.573 0 01.079.612c-.01.02-.834 1.739-1.9 3.616a5.2 5.2 0 011.021.036 16.694 16.694 0 014.544 1.985c.3.164.557.308.759.413a5.716 5.716 0 002.924.618.57.57 0 01.469.964c-.138.141-3.647 3.666-7.365 3.2l-.153-.022c.077.336.148.658.209.942.057.26.106.487.148.665a4.67 4.67 0 001.191 2.122.57.57 0 01-.387.987m-7.114-8.742a.569.569 0 01.569.543 9.475 9.475 0 001.34 4.657 6.308 6.308 0 003.906 2.2 5.549 5.549 0 01-.611-1.506c-.044-.184-.1-.42-.154-.689-.113-.516-.252-1.155-.415-1.778a.57.57 0 01.689-.7 7.756 7.756 0 00.926.184c2.071.258 4.161-1.032 5.368-1.967a6.643 6.643 0 01-2.069-.676 39.918 39.918 0 01-.781-.426 16.679 16.679 0 00-4.135-1.852 3.93 3.93 0 00-1.819.165A.569.569 0 0138 8c1-1.658 1.9-3.429 2.282-4.2a2.64 2.64 0 00-1.6-.1 17.364 17.364 0 01-1.427 4.371.57.57 0 01-1.088-.165 3.9 3.9 0 00-1.3-2.491 16.832 16.832 0 00-4.113-1.97 44.218 44.218 0 01-.8-.308A6.678 6.678 0 0128.1 1.992c.064 1.524.425 3.957 1.967 5.371a7.906 7.906 0 001.253.928.57.57 0 01-.073 1.01c-.74.315-1.529.733-2.163 1.068-.256.135-.48.254-.656.341a5.642 5.642 0 01-1.543.506 6.284 6.284 0 004.207 1.559 9.435 9.435 0 004.418-1.984.577.577 0 01.348-.118" class="cls-8" transform="translate(3.439)"/><path id="패스_797" d="M51.444 56.974a1.721 1.721 0 11-1.723-1.723 1.723 1.723 0 011.723 1.723" class="cls-7" transform="translate(6.632 7.634)"/><path id="패스_798" d="M3.443 52.487a1.721 1.721 0 11-1.723-1.723 1.723 1.723 0 011.723 1.723" class="cls-7" transform="translate(0 7.014)"/><path id="패스_799" d="M58.11 51.487a1.721 1.721 0 11-1.723-1.723 1.723 1.723 0 011.723 1.723" class="cls-7" transform="translate(7.553 6.876)"/><path id="패스_800" d="M24.747 36.128a.569.569 0 01-.426-.947c1.159-1.3 1.716-2.466 1.615-3.36a1.749 1.749 0 00-.761-1.234c-.578-.411-1.527.159-2.209.911a8.331 8.331 0 01-3.432 1.748.569.569 0 01-.289-1.1 7.337 7.337 0 002.877-1.412c1.245-1.373 2.7-1.794 3.714-1.073a2.887 2.887 0 011.231 2.034c.141 1.241-.5 2.668-1.9 4.243a.569.569 0 01-.426.191" class="cls-5" transform="translate(2.6 4.05)"/><path id="패스_801" d="M29.586 36.025a.564.564 0 01-.337-.112 4.43 4.43 0 01-1.934-3.613 3.549 3.549 0 011.144-2.733c1.01-.726 2.47-.314 3.72 1.049a7.359 7.359 0 002.889 1.4.569.569 0 11-.283 1.1 8.345 8.345 0 01-3.443-1.728c-.686-.745-1.637-1.313-2.215-.9a2.5 2.5 0 00-.673 1.815A3.255 3.255 0 0029.924 35a.569.569 0 01-.338 1.027" class="cls-5" transform="translate(3.774 4.037)"/><path id="패스_802" d="M24.359 25.44A2.592 2.592 0 1123.1 22a2.591 2.591 0 011.257 3.444" class="cls-8" transform="translate(2.683 3.006)"/><path id="패스_803" d="M23.307 24.884a1.568 1.568 0 11-.764-2.087 1.566 1.566 0 01.764 2.087" class="cls-5" transform="translate(2.807 3.13)"/><path id="패스_804" d="M33.831 25.608a2.592 2.592 0 11-1.259-3.443 2.586 2.586 0 011.259 3.443" class="cls-8" transform="translate(3.991 3.029)"/><path id="패스_805" d="M32.767 25.047a1.556 1.556 0 11-.752-2.067 1.558 1.558 0 01.752 2.067" class="cls-5" transform="translate(4.117 3.155)"/><path id="사각형_979" d="M0 0h3.224v1.138H0z" class="cls-5" transform="translate(28.849 30.355)"/></g></g></g></svg>