<svg xmlns="http://www.w3.org/2000/svg" width="32" height="32" viewBox="0 0 32 32"><defs><style>.cls-2{fill:#fff}</style></defs><g id="check_bullet01" transform="translate(-318 -107)"><circle id="타원_93" cx="16" cy="16" r="16" fill="#d09999" transform="translate(318 107)"/><g id="그룹_1608" transform="translate(323.925 113.04)"><g id="그룹_1601"><g id="그룹_1600"><path id="패스_805" d="M28.633 10.262a.586.586 0 010-.518l.746-1.527a1.737 1.737 0 00-.749-2.307l-1.5-.8a.586.586 0 01-.3-.419l-.294-1.674A1.737 1.737 0 0024.569 1.6l-1.683.238a.586.586 0 01-.493-.16L21.172.492a1.737 1.737 0 00-2.425 0l-1.222 1.181a.587.587 0 01-.493.16L15.349 1.6a1.737 1.737 0 00-1.962 1.426L13.093 4.7a.587.587 0 01-.3.419l-1.5.8a1.737 1.737 0 00-.749 2.307l.746 1.527a.586.586 0 010 .518l-.746 1.527a1.737 1.737 0 00.749 2.307l1.5.8a.586.586 0 01.3.419l.294 1.674a1.736 1.736 0 001.713 1.43 1.785 1.785 0 00.25-.018l1.683-.238a.586.586 0 01.493.16l1.221 1.181a1.737 1.737 0 002.425 0l1.221-1.181a.587.587 0 01.493-.16l1.683.238a1.737 1.737 0 001.962-1.426l.294-1.674a.587.587 0 01.3-.419l1.5-.8a1.737 1.737 0 00.749-2.307zm-.544 2.814l-1.5.8a1.733 1.733 0 00-.9 1.239l-.294 1.674a.588.588 0 01-.664.482l-1.683-.238a1.733 1.733 0 00-1.457.473l-1.221 1.181a.588.588 0 01-.821 0L18.327 17.5a1.731 1.731 0 00-1.209-.491 1.772 1.772 0 00-.248.018l-1.683.238a.588.588 0 01-.664-.482l-.294-1.674a1.733 1.733 0 00-.9-1.239l-1.5-.8a.588.588 0 01-.254-.78l.746-1.527a1.733 1.733 0 000-1.532l-.746-1.521a.588.588 0 01.254-.78l1.5-.8a1.733 1.733 0 00.9-1.239l.294-1.674a.588.588 0 01.664-.482l1.683.238a1.733 1.733 0 001.457-.473l1.221-1.181a.588.588 0 01.821 0L21.591 2.5a1.733 1.733 0 001.457.473l1.683-.238a.588.588 0 01.664.482l.294 1.674a1.733 1.733 0 00.9 1.239l1.5.8a.588.588 0 01.254.78L27.6 9.237a1.733 1.733 0 000 1.532l.746 1.527a.588.588 0 01-.257.78z" class="cls-2" transform="translate(-10.359 .002)"/></g></g><g id="그룹_1603" transform="translate(6.128 6.533)"><g id="그룹_1602"><path id="패스_806" d="M150.6 143.925a.457.457 0 00-.646 0l-6.03 6.03a.457.457 0 10.646.646l6.03-6.03a.457.457 0 000-.646z" class="cls-2" transform="translate(-143.792 -143.792)"/></g></g><g id="그룹_1605" transform="translate(5.481 5.08)"><g id="그룹_1604"><path id="패스_807" d="M144.477 123.116a1.675 1.675 0 101.675 1.675 1.677 1.677 0 00-1.675-1.675zm0 2.436a.761.761 0 11.761-.761.762.762 0 01-.761.761z" class="cls-2" transform="translate(-142.802 -123.116)"/></g></g><g id="그룹_1607" transform="translate(10.369 11.579)"><g id="그룹_1606"><path id="패스_808" d="M262.6 280.61a1.675 1.675 0 101.675 1.675 1.677 1.677 0 00-1.675-1.675zm0 2.436a.761.761 0 11.761-.761.762.762 0 01-.761.761z" class="cls-2" transform="translate(-260.922 -280.61)"/></g></g></g></g></svg>