<svg xmlns="http://www.w3.org/2000/svg" width="32" height="32" viewBox="0 0 32 32"><defs><style>.cls-2{fill:#fff}</style></defs><g id="check_bullet02" transform="translate(-320.012 -107.012)"><circle id="타원_93" cx="16" cy="16" r="16" fill="#d09999" transform="translate(320.012 107.012)"/><g id="그룹_1599" transform="translate(326.702 113.702)"><g id="그룹_1580" transform="translate(3.308 7.379)"><g id="그룹_1579"><path id="패스_795" d="M87.561 192h-1.782a.446.446 0 00-.446.446v3.565a.446.446 0 00.891 0v-3.119h1.337a.446.446 0 100-.891z" class="cls-2" transform="translate(-85.333 -192)"/></g></g><g id="그룹_1582" transform="translate(3.32 9.162)"><g id="그룹_1581"><path id="패스_796" d="M86.67 234.667h-.891a.446.446 0 100 .891h.891a.446.446 0 100-.891z" class="cls-2" transform="translate(-85.333 -234.667)"/></g></g><g id="그룹_1584"><g id="그룹_1583"><path id="패스_797" d="M9.607 0a9.607 9.607 0 109.607 9.607A9.618 9.618 0 009.607 0zm0 18.379a8.772 8.772 0 118.772-8.772 8.782 8.782 0 01-8.772 8.772z" class="cls-2"/></g></g><g id="그룹_1586" transform="translate(3.601 2.674)"><g id="그룹_1585"><path id="패스_798" d="M113.475 66.84a7.565 7.565 0 00-11.817 0 .445.445 0 10.694.558 6.674 6.674 0 0110.427 0 .446.446 0 00.7-.558z" class="cls-2" transform="translate(-101.56 -64)"/></g></g><g id="그룹_1588" transform="translate(3.993 13.421)"><g id="그룹_1587"><path id="패스_799" d="M122.032 352.117a.446.446 0 00-.629.017 6.666 6.666 0 01-9.693 0 .445.445 0 10-.646.613 7.556 7.556 0 0010.985 0 .445.445 0 00-.017-.63z" class="cls-2" transform="translate(-110.941 -351.994)"/></g></g><g id="그룹_1590" transform="translate(6.616 7.379)"><g id="그룹_1589"><path id="패스_800" d="M172.176 194.662A1.337 1.337 0 00172 192h-.891a.446.446 0 00-.446.446v3.565a.446.446 0 10.891 0v-.711l1.021 1.022a.448.448 0 00.316.13.441.441 0 00.315-.131.446.446 0 000-.63zm-.619-.88v-.891H172a.446.446 0 010 .891h-.446z" class="cls-2" transform="translate(-170.666 -192)"/></g></g><g id="그룹_1592" transform="translate(9.924 7.379)"><g id="그룹_1591"><path id="패스_801" d="M258.227 195.565h-1.337v-2.674h1.337a.446.446 0 000-.891h-1.783a.446.446 0 00-.446.446v3.565a.446.446 0 00.446.446h1.783a.446.446 0 000-.891z" class="cls-2" transform="translate(-255.999 -192)"/></g></g><g id="그룹_1594" transform="translate(9.961 9.162)"><g id="그룹_1593"><path id="패스_802" d="M257.337 234.667h-.891a.446.446 0 100 .891h.891a.446.446 0 100-.891z" class="cls-2" transform="translate(-256 -234.667)"/></g></g><g id="그룹_1596" transform="translate(13.233 7.379)"><g id="그룹_1595"><path id="패스_803" d="M343.561 195.565h-1.337v-2.674h1.337a.446.446 0 100-.891h-1.783a.446.446 0 00-.446.446v3.565a.446.446 0 00.446.446h1.783a.446.446 0 100-.891z" class="cls-2" transform="translate(-341.333 -192)"/></g></g><g id="그룹_1598" transform="translate(13.282 9.162)"><g id="그룹_1597"><path id="패스_804" d="M342.67 234.667h-.891a.446.446 0 000 .891h.891a.446.446 0 000-.891z" class="cls-2" transform="translate(-341.333 -234.667)"/></g></g></g></g></svg>