<svg xmlns="http://www.w3.org/2000/svg" width="12" height="11" viewBox="0 0 12 11"><defs><style>.cls-1{fill:none}.cls-2{fill:#dea6a6}.cls-4,.cls-5{stroke:none}.cls-5{fill:#dea6a6}</style></defs><g id="download_mini" transform="rotate(-90 155.325 180.325)"><path id="사각형_3204" d="M0 0h11v12H0z" class="cls-1" transform="translate(324.65 25)"/><g id="그룹_9059" transform="translate(326.383 26.6)"><g id="합치기_1" class="cls-2"><path d="M3.682 8.85H-.05v-8.9h3.732a.435.435 0 010 .87H.828v7.16h2.854a.434.434 0 110 .87z" class="cls-4"/><path d="M3.682 8.8a.385.385 0 100-.769H.778V.77h2.904a.385.385 0 100-.77H0v8.8h3.682m0 .1H-.1v-9h3.782a.485.485 0 010 .97H.878v7.06h2.804a.485.485 0 010 .97z" class="cls-5"/></g><g id="사각형_3201" fill="#dea6a6" stroke="#dea6a6" stroke-width=".1" transform="rotate(180 4.011 2.39)"><rect width="4.667" height=".667" class="cls-4" rx=".333"/><rect width="4.767" height=".767" x="-.05" y="-.05" class="cls-1" rx=".383"/></g><g id="합치기_2" class="cls-2"><path d="M.385 4.085a.436.436 0 01-.307-.743l1.325-1.325L.078.692A.433.433 0 11.692.078L2.31 1.696l.015.014a.431.431 0 01.127.307.433.433 0 01-.127.308L.692 3.958a.43.43 0 01-.307.127z" class="cls-4" transform="rotate(180 2.614 3.22)"/><path d="M.385 4.035a.383.383 0 00.272-.113L2.29 2.29a.392.392 0 000-.545l-.016-.014L.657.113A.382.382 0 00.385.001a.383.383 0 00-.272.656l1.36 1.36-1.36 1.36a.386.386 0 00.272.658m0 .1a.484.484 0 01-.342-.828l1.289-1.29L.042.727A.485.485 0 01.729.042l1.615 1.615.017.016a.482.482 0 010 .686L.728 3.993a.484.484 0 01-.343.142z" class="cls-5" transform="rotate(180 2.614 3.22)"/></g></g></g></svg>