<svg xmlns="http://www.w3.org/2000/svg" width="41.786" height="15" viewBox="0 0 41.786 15"><g transform="translate(-190 -224)"><rect width="41.786" height="15" fill="#05579f" rx="3" transform="translate(190 224)"/><path fill="#fff" d="M211.94 231.411a1.463 1.463 0 00-.652.177v2.028a4.113 4.113 0 00.47.018c.639 0 .726-.3.726-.707v-.97c0-.3-.1-.548-.543-.548m-4.239-.111c-.443 0-.544.246-.544.549v.171h1.088v-.171c0-.3-.1-.549-.543-.549m-8.213 2.112a.319.319 0 00.36.365 1.308 1.308 0 00.618-.178v-.48h-.582c-.276 0-.4.052-.4.293m16.577-2c-.443 0-.6.244-.6.548v1.11c0 .3.154.549.6.549s.6-.245.6-.549v-1.11c0-.3-.155-.548-.6-.548m-18.751 3.245h-1.3v-3.185h-.655v-1.1h.652v-.659c0-.9.368-1.428 1.413-1.428h.87v1.1h-.544c-.407 0-.434.154-.434.439v.55h.986l-.116 1.1h-.87zm4.457.008h-1.087l-.047-.277a2.475 2.475 0 01-1.231.322 1.162 1.162 0 01-1.222-1.28c0-.877.5-1.189 1.381-1.189h.9v-.189c0-.448-.051-.579-.733-.579h-1.115l.109-1.1h1.219c1.5 0 1.825.477 1.825 1.685zm3.7-3.112a6.183 6.183 0 00-1.2-.143c-.585 0-.761.131-.761.63v.948c0 .5.177.631.761.631a6.123 6.123 0 001.2-.143v1.071a5.724 5.724 0 01-1.3.17c-1.4 0-1.957-.743-1.957-1.816v-.769c0-1.074.556-1.819 1.957-1.819a5.709 5.709 0 011.3.171zm4.081 1.347h-2.393v.089c0 .5.177.631.761.631a7.517 7.517 0 001.521-.143v1.071a6.8 6.8 0 01-1.629.17c-1.4 0-1.957-.743-1.957-1.816v-.879c0-.939.413-1.708 1.848-1.708s1.847.76 1.847 1.708zm4.24.02c0 1.038-.294 1.794-2.074 1.794a9.743 9.743 0 01-1.729-.167v-5.929l1.3-.22v2.074a2.928 2.928 0 01.978-.16c1.3 0 1.521.59 1.521 1.538zm4.179.023c0 .895-.366 1.762-1.9 1.762s-1.906-.868-1.906-1.762v-.865c0-.9.373-1.763 1.906-1.763s1.9.868 1.9 1.763zm4.176 0c0 .895-.367 1.762-1.9 1.762s-1.906-.868-1.906-1.762v-.865c0-.9.373-1.763 1.906-1.763s1.9.868 1.9 1.763zm4.286 1.714h-1.414l-1.2-2.013v2.013h-1.3v-6.04l1.3-.22v3.888l1.2-1.912h1.414l-1.3 2.086zm-6.189-3.245c-.443 0-.6.244-.6.548v1.11c0 .3.154.549.6.549s.6-.245.6-.549v-1.11c0-.3-.157-.548-.6-.548"/></g></svg>