<svg xmlns="http://www.w3.org/2000/svg" width="105" height="45" viewBox="0 0 105 45"><defs><clipPath id="clip-path"><path id="SVGID" fill="none" d="M0 0h50v45H0z"/></clipPath><style>.cls-3{fill:#fff}.cls-4{fill:#e7161a}.cls-6{fill:#231815}</style></defs><g id="header_logo" transform="translate(-103.082 -160.735)"><g id="그룹_1295" transform="translate(158.382 160.735)"><g id="그룹_1294" clip-path="url(#clip-path)" transform="translate(-.3)"><g id="그룹_1291" transform="translate(-.063 6.288)"><path id="패스_641" d="M201.019 174.443a5.151 5.151 0 002.566-.421 22.684 22.684 0 00-3.792-3.216 3.294 3.294 0 00-.555-.142 3.522 3.522 0 00-1.58.14l-1.827.606-.088.2.048 1a8.885 8.885 0 001.256 4.373 4.773 4.773 0 002.408 1.641c-.05-.154-.1-.314-.137-.479a17.26 17.26 0 01-.153-.68 39.592 39.592 0 00-.419-1.781l-.506-1.893 1.914.479a7.377 7.377 0 00.865.173z" class="cls-3" transform="translate(-162.649 -166.655)"/><path id="패스_642" d="M189.292 167.224a4.642 4.642 0 001.115 1.643 7.487 7.487 0 001.177.864l1.916 1.169-2.071.879c-.724.306-1.508.718-2.137 1.048-.266.138-.5.261-.679.351a6.294 6.294 0 01-.459.205 4.736 4.736 0 002.823.766 9.01 9.01 0 004.172-1.871l.651-.5-.211-1.865a3.19 3.19 0 00-.666-1.63c-.275-.1-.54-.2-.824-.3a23.9 23.9 0 00-4.807-.759z" class="cls-3" transform="translate(-163.884 -167.179)"/><path id="패스_643" d="M206.029 177.31l.043.195c.055.248.1.465.143.635a4.127 4.127 0 001.026 1.832l2.4 2.178-3.245-.177c-.191-.01-4.68-.286-6.639-3.171a9.745 9.745 0 01-1.419-3.61 9.815 9.815 0 01-3.7 1.254c-3.462.39-6.6-2.852-6.727-2.983l-2.228-2.341 3.22.4a4.129 4.129 0 002.073-.408c.173-.084.388-.2.634-.328l.55-.287a7.5 7.5 0 01-1.947-3.318 20.475 20.475 0 00-18.573 11.771c-4.246 8.368-.724 19.126.283 19.906 0 0-9.886 13.134-.788 25.79 6.048 8.414 21.781 15.249 35.551 1.122 8.721-8.947 8.056-26.369 8.2-29.888.1-2.431.654-11.882-5.12-19.51a8.338 8.338 0 01-3.737.938z" class="cls-4" transform="translate(-167.282 -167.185)"/></g><g id="그룹_1292" transform="translate(18.015 30.031)"><path id="패스_644" fill="#432124" d="M187.629 193.883a5.5 5.5 0 006.171-4.717l-10.924-1.4a5.472 5.472 0 004.753 6.117z" transform="translate(-182.829 -187.762)"/><path id="패스_645" d="M191.147 192.52a6.179 6.179 0 00-2.115-1.206 5.369 5.369 0 00-4.8.528 5.528 5.528 0 006.92.678z" class="cls-3" transform="translate(-182.602 -187.266)"/></g><g id="그룹_1293" transform="translate(15.737 23.591)"><path id="패스_646" d="M185.745 186.106a2.63 2.63 0 01-3.586.916 2.589 2.589 0 01-.924-3.564 2.631 2.631 0 013.59-.914 2.586 2.586 0 01.92 3.562z" class="cls-3" transform="translate(-180.87 -182.181)"/><path id="패스_647" d="M184.71 185.447a1.589 1.589 0 01-2.168.552 1.56 1.56 0 01-.559-2.154 1.592 1.592 0 012.169-.556 1.568 1.568 0 01.558 2.158z" class="cls-6" transform="translate(-180.725 -182.044)"/><path id="패스_648" d="M195.056 187.2a2.631 2.631 0 01-3.589.914 2.591 2.591 0 01-.924-3.56 2.633 2.633 0 013.591-.916 2.587 2.587 0 01.922 3.562z" class="cls-3" transform="translate(-179.354 -182.012)"/><path id="패스_649" d="M194.008 186.533a1.582 1.582 0 01-2.154.548 1.55 1.55 0 01-.553-2.138 1.582 1.582 0 012.157-.548 1.555 1.555 0 01.55 2.138z" class="cls-6" transform="translate(-179.207 -181.874)"/></g><path id="패스_650" d="M202.077 179.033c-.129-.536-.324-1.532-.579-2.485a8.454 8.454 0 001 .2c3.529.443 6.962-3.042 6.962-3.042a6.311 6.311 0 01-3.287-.681c-1.085-.563-3.758-2.171-5.164-2.345a4.7 4.7 0 00-2.094.19 62.685 62.685 0 002.533-4.666c-.851-1.007-2.878-.4-2.878-.4a15.229 15.229 0 01-1.43 4.618 4.452 4.452 0 00-1.5-2.856c-1.038-.946-4-1.937-5.139-2.394a6.3 6.3 0 01-2.643-2.051s-.471 4.849 2.155 7.238a8.671 8.671 0 001.356 1c-1.079.457-2.271 1.127-2.88 1.427a5.277 5.277 0 01-2.741.523s2.8 2.948 5.752 2.629a10.1 10.1 0 004.756-2.106 10.009 10.009 0 001.454 4.964c1.658 2.442 5.739 2.664 5.739 2.664a5.2 5.2 0 01-1.372-2.427z" class="cls-4" transform="translate(-164.339 -161.523)"/></g></g><g id="그룹_1553" transform="translate(-4 2)"><path id="패스_634" d="M122.842 185.134H116.5a1.143 1.143 0 00-.813.313 1.023 1.023 0 00-.318.752.93.93 0 00.318.8 1.187 1.187 0 00.863.265h5.11v1.424h-5.184a1.423 1.423 0 00-.967.345 1.178 1.178 0 00-.437.989v3.066a1.253 1.253 0 00.417 1 1.318 1.318 0 00.937.387h6.566a1.159 1.159 0 00.789-.288 1.1 1.1 0 00.318-.778 1.035 1.035 0 00-.318-.752 1.071 1.071 0 00-.789-.314h-5.312v-1.522h5.16a1.34 1.34 0 00.968-.4 1.2 1.2 0 00.462-.99v-2.918a1.48 1.48 0 00-.379-1.031 1.542 1.542 0 00-1.049-.348z" class="cls-4" transform="translate(-.44 -3.083)"/><path id="패스_635" d="M115.905 182.545a9.2 9.2 0 001.11-.15 5.8 5.8 0 00.987-.2 1.286 1.286 0 00.711-.406 1.019 1.019 0 00.292-.775 1.524 1.524 0 00-.32-.78l-.047-.044a1.122 1.122 0 00-.7-.25.94.94 0 00-.165.017 5.364 5.364 0 01-.923.188c-.375.049-.722.1-1.069.146a7.952 7.952 0 01-1.005.073c-.218.017-.227.022-.366.023v-5.012h2.6a1.394 1.394 0 00.872-.274.941.941 0 00.332-.742 1.263 1.263 0 00-.294-.777l-.047-.046a1.4 1.4 0 00-.862-.292h-3.851a.4.4 0 00-.11.016l-4.609-.016a1.2 1.2 0 00-.979.478 1.7 1.7 0 00-.375 1.128v6.139a1.582 1.582 0 00.431 1.232 1.538 1.538 0 001.22.422h1.149c.307.026.657.026 1.063.026h1.216c.428 0 .854 0 1.242-.025h.745c.228 0 .36 0 .7-.023a8.435 8.435 0 001.052-.076zm-4.1-2.255h-1.128a6.619 6.619 0 01-.721-.023h-.261v-4.89h2.11z" class="cls-4" transform="translate(0 -1.551)"/><path id="패스_636" d="M126.465 176.416h-1.987v-3.1a1.5 1.5 0 00-.343-.972 1.248 1.248 0 00-.912-.363 1.335 1.335 0 00-.964.363 1.319 1.319 0 00-.391.972v8.645a1.16 1.16 0 00.391.924 1.361 1.361 0 001.851 0 1.311 1.311 0 00.367-.973v-3.361h1.987a.952.952 0 00.739-.314 1.016 1.016 0 00.291-.752 1.126 1.126 0 00-.291-.777 1.021 1.021 0 00-.738-.292z" class="cls-4" transform="translate(-.815 -1.44)"/><path id="패스_637" d="M143.047 172.361a1.346 1.346 0 00-.416 1.022v14a1.157 1.157 0 00.383.916 1.278 1.278 0 001 .4 1.251 1.251 0 00.886-.387 1.235 1.235 0 00.367-.925v-14a1.572 1.572 0 00-.367-1 1.28 1.28 0 00-1.853-.026z" class="cls-4" transform="translate(-3.046 -1.562)"/><path id="패스_638" d="M151.332 174.113h7.81c-.006.249-.019.529-.036.83l-.041.582h-7.687a.957.957 0 00-.707.268.922.922 0 00-.339.774 1.111 1.111 0 00.273.777.879.879 0 00.773.364h7.472a.677.677 0 000 .089l-.049.267c-.067.364-.124.664-.177.893a1.194 1.194 0 00.114 1.04 1.041 1.041 0 00.773.528 1.258 1.258 0 00.224.02.913.913 0 00.654-.26 1.715 1.715 0 00.515-.725 10.449 10.449 0 00.261-1.367c.07-.541.138-1.13.209-1.779.023-.293.051-.585.078-.878s.06-.359.083-.663l.014-.327c.019-.4.032-.729.032-.984a1.962 1.962 0 00-.347-1.079 1.3 1.3 0 00-1.067-.5h-8.882a.958.958 0 00-.717.326 1.176 1.176 0 00-.286.792.835.835 0 00.3.69.916.916 0 00.75.322z" class="cls-4" transform="translate(-3.835 -1.398)"/><path id="패스_639" d="M162.924 181.953a.955.955 0 00-.708-.341h-6.146v-1.153a1.586 1.586 0 00-.392-1.124 1.4 1.4 0 00-.859-.311 1.164 1.164 0 00-.858.354 1.356 1.356 0 00-.373 1.032v1.2h-5.023a.882.882 0 00-.693.351 1.143 1.143 0 00-.284.74.945.945 0 00.282.714.809.809 0 00.649.328h13.7a.941.941 0 00.708-.314 1.037 1.037 0 00.27-.728 1.259 1.259 0 00-.273-.748z" class="cls-4" transform="translate(-3.667 -2.089)"/><path id="패스_640" d="M136.807 174.3h-5.923a1.254 1.254 0 100 2.507h5.054a9.86 9.86 0 01-1.44 3.843 8.573 8.573 0 01-4.367 3.591 1.244 1.244 0 00-.613 1.668 1.287 1.287 0 001.7.6 11.075 11.075 0 005.388-4.444 12.5 12.5 0 001.974-5.992 1.755 1.755 0 00-1.773-1.773z" class="cls-4" transform="translate(-1.962 -1.728)"/><path id="패스_651" d="M159.936 188.368a6.228 6.228 0 00-.9-1.535 5.173 5.173 0 00-1.476-1.1 5.294 5.294 0 00-4.035-.049 4.418 4.418 0 00-1.5 1.042 3.939 3.939 0 00-.925 1.522 5.373 5.373 0 00-.3 1.83 4.419 4.419 0 00.377 1.845 4.584 4.584 0 00.993 1.488 5.371 5.371 0 001.5.992 5.034 5.034 0 003.669 0 5.033 5.033 0 001.515-.993 5.146 5.146 0 001.011-1.48 4.629 4.629 0 00.378-1.849 5.7 5.7 0 00-.307-1.713zm-1.809 2.043l-3.759 2.288a.369.369 0 01-.191.052.358.358 0 01-.2-.06.447.447 0 01-.193-.376v-4.573a.444.444 0 01.193-.374.359.359 0 01.391-.009l3.759 2.285a.448.448 0 01.2.384.442.442 0 01-.2.383z" class="cls-4" transform="translate(-3.855 -3.095)"/></g></g></svg>