<svg xmlns="http://www.w3.org/2000/svg" width="27" height="27" viewBox="0 0 27 27"><g transform="translate(-195 -136)"><circle cx="13.5" cy="13.5" r="13.5" fill="#fff" transform="translate(195 136)"/><path fill="#ffc233" stroke="#ffc233" stroke-width=".4" d="M214.419 146.467l-2.61-2.61a.35.35 0 00-.494 0l-7.13 7.13a.362.362 0 00-.084.136l-1.327 3.937a.349.349 0 00.443.443l3.937-1.327a.36.36 0 00.135-.084l7.126-7.126a.35.35 0 00.004-.499zm-4.836.11l.811.811-4.658 4.659-.811-.811zm-5.922 8.037l.922-2.735 1.813 1.813zm3.381-1.265l-.811-.811 4.657-4.657.811.811zm5.151-5.151l-2.116-2.116 1.485-1.485 2.116 2.116z"/></g></svg>