<svg xmlns="http://www.w3.org/2000/svg" width="27" height="27" viewBox="0 0 27 27"><defs><style>.cls-2{fill:#5067ff;stroke:#5067ff;stroke-width:.4px}</style></defs><g id="ico_age04" transform="translate(-195 -250)"><circle id="타원_85" cx="13.5" cy="13.5" r="13.5" fill="#fff" transform="translate(195 250)"/><g id="그룹_1509" transform="translate(-1534.734 -497.416)"><g id="그룹_1504" transform="translate(1741.89 754.416)"><path id="패스_716" d="M1810.968 757.7a.255.255 0 01-.255-.255v-1.791s-.148-.726-.726-.726-.724.739-.73.771v1.746a.255.255 0 11-.51 0v-1.791a1.235 1.235 0 012.469-.044v1.835a.255.255 0 01-.248.255z" class="cls-2" transform="translate(-1808.751 -754.416)"/></g><g id="그룹_1505" transform="translate(1738.667 757.188)"><path id="패스_717" d="M1762.343 809.511h-8.409a.255.255 0 01-.255-.255v-3.021a4.459 4.459 0 118.919 0v3.021a.255.255 0 01-.255.255zm-8.154-.51h7.9v-2.766a3.949 3.949 0 10-7.9 0z" class="cls-2" transform="translate(-1753.679 -801.776)"/></g><g id="그룹_1506" transform="translate(1740.502 759.023)"><path id="패스_718" d="M1785.29 836.012a.255.255 0 01-.255-.255 2.627 2.627 0 012.624-2.624.255.255 0 010 .51 2.116 2.116 0 00-2.114 2.114.255.255 0 01-.255.255z" class="cls-2" transform="translate(-1785.035 -833.133)"/></g><g id="그룹_1507" transform="translate(1737.734 764.413)"><path id="패스_719" d="M1748.078 927.706h-9.9a.256.256 0 01-.172-.066.808.808 0 01-.269-.608c-.005-.755.91-1.632 1.014-1.729a.255.255 0 01.348.373 2.63 2.63 0 00-.852 1.353.305.305 0 00.045.167h9.675a.3.3 0 00.045-.167 2.629 2.629 0 00-.852-1.353.255.255 0 01.349-.373c.1.1 1.019.975 1.014 1.729a.809.809 0 01-.269.608.255.255 0 01-.176.066z" class="cls-2" transform="translate(-1737.734 -925.234)"/></g><g id="그룹_1508" transform="translate(1741.246 766.375)"><path id="패스_720" d="M1799.636 960.728a1.911 1.911 0 01-1.506-.559 1.63 1.63 0 01-.366-1.192.259.259 0 01.285-.221.255.255 0 01.221.284 1.121 1.121 0 00.246.8 1.831 1.831 0 002.24 0 1.125 1.125 0 00.246-.8.255.255 0 01.222-.283.251.251 0 01.284.22 1.631 1.631 0 01-.367 1.192 1.91 1.91 0 01-1.505.559z" class="cls-2" transform="translate(-1797.756 -958.753)"/></g></g></g></svg>