<svg xmlns="http://www.w3.org/2000/svg" width="12" height="9" viewBox="0 0 12 9"><defs><linearGradient id="a" x1=".222" x2=".801" y1="-.044" y2=".894" gradientUnits="objectBoundingBox"><stop offset="0" stop-color="#f17138"/><stop offset=".942" stop-color="#f59a43"/></linearGradient></defs><path fill="url(#a)" d="M1504.209 796a1.1 1.1 0 00-1.1 1.11v4.107a1.359 1.359 0 01-1.351 1.366 1.359 1.359 0 01-1.351-1.366v-1.686h-.009v-2.421a1.1 1.1 0 00-1.1-1.11 1.1 1.1 0 00-1.1 1.11v4.175a1.358 1.358 0 01-1.35 1.3 1.359 1.359 0 01-1.352-1.366v-4.109a1.1 1.1 0 00-1.1-1.11 1.1 1.1 0 00-1.1 1.11v4.107a3.943 3.943 0 00.388 1.659 3.7 3.7 0 00.443.723A3.627 3.627 0 001497 805h.134a2.716 2.716 0 014.393 0h.134a3.627 3.627 0 002.874-1.416 3.7 3.7 0 00.774-2.271v-4.2a1.1 1.1 0 00-1.1-1.113z" transform="translate(-1493.307 -796)"/></svg>