<svg xmlns="http://www.w3.org/2000/svg" width="13" height="13" viewBox="0 0 13 13"><path fill="none" d="M0 0h13v13H0z"/><path fill="#be5050" d="M11.38 2.177a3.053 3.053 0 00-2.246-.8 2.517 2.517 0 00-.809.14 3.255 3.255 0 00-.768.376c-.237.158-.44.307-.611.445a.488.488 0 01-.972 0q-.256-.207-.611-.445a3.251 3.251 0 00-.768-.376 2.516 2.516 0 00-.809-.14 3.053 3.053 0 00-2.246.8A3 3 0 00.728 4.41a2.885 2.885 0 00.15.9 3.973 3.973 0 00.342.786 5.758 5.758 0 00.435.633q.243.309.355.425a2.144 2.144 0 00.175.169l3.993 3.907a.4.4 0 00.563 0l3.986-3.9a4.268 4.268 0 001.465-2.921 3 3 0 00-.812-2.233zm0 0" opacity=".5"/></svg>