<svg xmlns="http://www.w3.org/2000/svg" width="30" height="30" viewBox="0 0 30 30"><defs><style>.cls-2{fill:#fff}</style></defs><g id="icon_viedo" transform="translate(-290 -700)"><circle id="타원_93" cx="15" cy="15" r="15" fill="#dea6a6" transform="translate(290 700)"/><g id="그룹_1538" transform="translate(-463 366.999)"><path id="패스_727" d="M773.188 344.071h-3.9l2.008-2.008a.623.623 0 00-.88-.88l-2.63 2.63-2.63-2.63a.623.623 0 10-.88.88l2.007 2.007h-3.9a1.392 1.392 0 00-1.39 1.39v7.727a1.392 1.392 0 001.39 1.39h10.8a1.392 1.392 0 001.39-1.39v-7.727a1.392 1.392 0 00-1.385-1.389zm-10.942 1.39a.145.145 0 01.145-.145h10.8a.145.145 0 01.145.145v7.727a.145.145 0 01-.145.145h-10.8a.145.145 0 01-.145-.145z" class="cls-2"/><path id="패스_728" d="M836.514 493.765h-7.681a.318.318 0 00-.318.318v5.135a.318.318 0 00.318.318h7.681a.318.318 0 00.318-.318v-5.135a.318.318 0 00-.318-.318zm-.314 5.135" class="cls-2" transform="translate(-64.885 -147.326)"/></g></g></svg>