<svg xmlns="http://www.w3.org/2000/svg" width="15" height="15" viewBox="0 0 15 15"><path fill="none" d="M0 0h15v15H0z"/><path fill="#e7161a" stroke="#e7161a" d="M12.746 2.991a3.442 3.442 0 00-2.478-.857 2.869 2.869 0 00-.893.149 3.648 3.648 0 00-.847.4 9.099 9.099 0 00-.674.473 6.511 6.511 0 00-.536.47 6.484 6.484 0 00-.537-.47q-.282-.22-.674-.473a3.642 3.642 0 00-.848-.4 2.868 2.868 0 00-.893-.149 3.442 3.442 0 00-2.478.857 3.13 3.13 0 00-.9 2.376 2.971 2.971 0 00.166.953 4.15 4.15 0 00.378.836 6.118 6.118 0 00.48.674q.268.328.392.452a2.327 2.327 0 00.193.18l4.405 4.158a.451.451 0 00.622 0l4.4-4.145a4.481 4.481 0 001.617-3.108 3.131 3.131 0 00-.9-2.376zm0 0"/></svg>