<svg xmlns="http://www.w3.org/2000/svg" width="12" height="12" viewBox="0 0 12 12"><defs><clipPath id="clip-path"><path id="SVGID" d="M0 0h9.921v9.668H0z" class="cls-1"/></clipPath><style>.cls-1{fill:none}</style></defs><g id="icon_star" transform="translate(-265 -416)"><path id="사각형_856" d="M0 0h12v12H0z" class="cls-1" transform="translate(265 416)"/><g id="그룹_1486" transform="translate(-679 -108.668)"><g id="그룹_1485" transform="translate(945 526)"><g id="그룹_1484" clip-path="url(#clip-path)"><path id="패스_685" d="M954.784 530.141l-2.018 1.966.477 2.779a.535.535 0 01-.526.624.546.546 0 01-.249-.061l-2.495-1.312-2.495 1.312a.533.533 0 01-.774-.562l.477-2.778-2.019-1.968a.533.533 0 01.3-.91l2.789-.405 1.247-2.528a.533.533 0 01.956 0l1.249 2.528 2.789.406a.534.534 0 01.3.91zm0 0" transform="translate(-945 -526)"/></g></g></g></g></svg>