<svg xmlns="http://www.w3.org/2000/svg" width="27" height="29" viewBox="0 0 27 29"><defs><style>.cls-2{fill:#e89239}.cls-3{fill:#c76e27}.cls-4{fill:#9e3e11}.cls-5{fill:#e9973d}</style></defs><g id="icon_bronze" transform="translate(-39 -451)"><path id="빼기_3" d="M-7665 26a12.866 12.866 0 01-8-2.753V3h16.307A12.97 12.97 0 01-7652 13a12.915 12.915 0 01-3.808 9.193A12.914 12.914 0 01-7665 26z" opacity=".5" transform="translate(7718 454)"/><g id="그룹_1530" transform="translate(39 451)"><g id="그룹_1521" transform="translate(8.51)"><g id="그룹_1520"><path id="패스_716" d="M6678.891 2221.707h-1.1v-3.074a1.012 1.012 0 00-1.015-1.008h-4.741a1.012 1.012 0 00-1.015 1.008v3.074h-1.1v-3.074a2.114 2.114 0 012.119-2.105h4.741a2.115 2.115 0 012.12 2.105z" class="cls-2" transform="translate(-6669.911 -2216.527)"/></g></g><g id="그룹_1525" transform="translate(8.51 2.116)"><g id="그룹_1524"><g id="그룹_1522" transform="translate(7.876)"><path id="패스_717" d="M7291.617 2387.726h1.1V2385q-.542-.19-1.1-.335z" class="cls-3" transform="translate(-7291.617 -2384.662)"/></g><g id="그룹_1523"><path id="패스_718" d="M6671.016 2387.727v-3.064q-.563.145-1.1.335v2.729z" class="cls-3" transform="translate(-6669.911 -2384.663)"/></g></g></g><ellipse id="타원_88" cx="13" cy="12.915" class="cls-2" rx="13" ry="12.915" transform="translate(0 2.169)"/><ellipse id="타원_89" cx="11.032" cy="10.96" class="cls-3" rx="11.032" ry="10.96" transform="translate(1.968 4.124)"/><path id="패스_720" d="M6164.522 2544.963a11 11 0 0111.027 10.59c0-.123.005-.247.005-.37a11.032 11.032 0 00-22.064 0c0 .123 0 .247.007.37a11 11 0 0111.025-10.59z" class="cls-4" transform="translate(-6151.522 -2540.097)"/><path id="패스_721" d="M7057.427 2908.67a1.721 1.721 0 00-.524 1.032l-.312.185a7.419 7.419 0 00.514-2.1l.362-.423a1.758 1.758 0 00.983-.675 1.8 1.8 0 00.145-1.243 1.824 1.824 0 00-1.05.692 1.721 1.721 0 00-.165 1.145l-.26.3a7.667 7.667 0 00-.03-1.312 7.857 7.857 0 00-.152-.911l.193-.482a1.751 1.751 0 00.711-.954.692.692 0 10-1.035-.231 1.714 1.714 0 00.215 1.136l-.131.328a9.951 9.951 0 00-.646-1.8l.112-.547a1.75 1.75 0 00.532-1.063.692.692 0 10-1.062-.047 1.724 1.724 0 00.414 1.081l-.083.4a12.373 12.373 0 00-.724-1.28 1.855 1.855 0 00-.285-1.208 1.982 1.982 0 00-1.2-.654 1.955 1.955 0 00.271 1.333 1.911 1.911 0 001.116.638 12.779 12.779 0 01.679 1.2l-.337-.13a1.727 1.727 0 00-.69-.931 1.832 1.832 0 00-1.255-.116 1.812 1.812 0 00.72 1.028 1.774 1.774 0 001.188.132l.449.173a9.667 9.667 0 01.669 1.866l-.346-.209a1.724 1.724 0 00-.515-1.037 1.833 1.833 0 00-1.215-.333 1.8 1.8 0 00.527 1.138 1.771 1.771 0 001.145.337l.441.267a7.736 7.736 0 01.178 2.156l-.236-.282a1.718 1.718 0 00-.15-1.147 1.825 1.825 0 00-1.041-.705 1.8 1.8 0 00.129 1.246 1.765 1.765 0 00.975.687l.312.372a7.2 7.2 0 01-.52 2.136l-.146-.375a1.72 1.72 0 00.227-1.134.692.692 0 10-1.038.222 1.751 1.751 0 00.7.96l.189.485-.021.045a8.369 8.369 0 01-1.081 1.775l-.034-.376a1.732 1.732 0 00.532-1.029.692.692 0 10-1.061-.071 1.747 1.747 0 00.409 1.115l.045.495a9.867 9.867 0 01-1.455 1.435l.062-.436a1.726 1.726 0 00.755-.881.692.692 0 10-1.016-.309 1.74 1.74 0 00.143 1.178l-.079.553a10.692 10.692 0 01-1.812 1.137l.14-.347a1.742 1.742 0 00.942-.678 1.8 1.8 0 00.127-1.245 1.822 1.822 0 00-1.04.706 1.742 1.742 0 00-.144 1.178l-.186.463a8.948 8.948 0 01-1.96.674l.224-.312a1.747 1.747 0 001.078-.436 1.8 1.8 0 00.422-1.18 1.832 1.832 0 00-1.18.441 1.749 1.749 0 00-.421 1.111l-.294.41a5.742 5.742 0 01-.216.037 2.151 2.151 0 00-.449.132.071.071 0 00-.037.094.072.072 0 00.065.042.074.074 0 00.029-.006 2.064 2.064 0 01.417-.122c.067-.01.136-.022.2-.034l.485.233a1.761 1.761 0 00.907.773.693.693 0 10.306-1.01 1.751 1.751 0 00-1.156.133l-.348-.167a9.166 9.166 0 001.954-.675l.542.115a1.765 1.765 0 001.065.537.693.693 0 10.056-1.054 1.744 1.744 0 00-1.091.4l-.4-.084a10.982 10.982 0 001.489-.889q.214-.153.419-.313l.482-.014a1.778 1.778 0 001.164.272 1.817 1.817 0 001.024-.729 1.836 1.836 0 00-1.222-.309 1.737 1.737 0 00-.964.647l-.331.01a10.02 10.02 0 001.388-1.373l.533-.141a1.774 1.774 0 001.2 0 .693.693 0 10-.431-.965 1.733 1.733 0 00-.79.849l-.381.1a8.515 8.515 0 001.1-1.807.614.614 0 00.025-.059l.446-.265a1.77 1.77 0 001.148-.327 1.8 1.8 0 00.537-1.132 1.83 1.83 0 00-1.208.339z" class="cls-4" transform="translate(-7035.453 -2891.445)"/><path id="패스_722" d="M6229.554 2915.618a2.182 2.182 0 00-.449-.132 4.061 4.061 0 01-.216-.037l-.294-.41a1.741 1.741 0 00-.42-1.111 1.833 1.833 0 00-1.18-.441 1.807 1.807 0 00.422 1.18 1.745 1.745 0 001.078.436l.224.312a8.969 8.969 0 01-1.96-.674l-.186-.463a1.737 1.737 0 00-.143-1.178 1.822 1.822 0 00-1.041-.706 1.8 1.8 0 00.127 1.245 1.74 1.74 0 00.942.678l.141.347a10.638 10.638 0 01-1.813-1.137l-.079-.553a1.736 1.736 0 00.142-1.178.692.692 0 10-1.015.309 1.729 1.729 0 00.754.881l.061.436a9.971 9.971 0 01-1.454-1.435l.044-.495a1.742 1.742 0 00.409-1.115.692.692 0 10-1.06.071 1.729 1.729 0 00.531 1.029l-.033.376a8.31 8.31 0 01-1.081-1.775c-.008-.015-.013-.03-.02-.045l.188-.485a1.752 1.752 0 00.7-.96.692.692 0 10-1.039-.222 1.717 1.717 0 00.226 1.134l-.146.375a7.2 7.2 0 01-.521-2.136l.312-.372a1.763 1.763 0 00.976-.687 1.8 1.8 0 00.128-1.246 1.825 1.825 0 00-1.041.705 1.731 1.731 0 00-.151 1.147l-.236.282a7.737 7.737 0 01.178-2.156l.441-.267a1.771 1.771 0 001.145-.337 1.8 1.8 0 00.527-1.138 1.833 1.833 0 00-1.215.333 1.724 1.724 0 00-.515 1.037l-.345.209a9.7 9.7 0 01.668-1.866l.449-.173a1.77 1.77 0 001.187-.132 1.814 1.814 0 00.722-1.028 1.833 1.833 0 00-1.255.116 1.73 1.73 0 00-.691.931l-.336.13a12.565 12.565 0 01.679-1.2 1.911 1.911 0 001.116-.638 1.952 1.952 0 00.271-1.333 1.981 1.981 0 00-1.2.654 1.852 1.852 0 00-.285 1.208 12.457 12.457 0 00-.723 1.28l-.083-.4a1.724 1.724 0 00.412-1.081.692.692 0 10-1.061.047 1.737 1.737 0 00.533 1.063l.111.547a9.912 9.912 0 00-.646 1.8l-.132-.328a1.717 1.717 0 00.215-1.136.692.692 0 10-1.035.231 1.748 1.748 0 00.711.954l.193.482a8.3 8.3 0 00-.153.911 7.767 7.767 0 00-.029 1.312l-.259-.3a1.73 1.73 0 00-.165-1.145 1.828 1.828 0 00-1.051-.692 1.8 1.8 0 00.145 1.243 1.76 1.76 0 00.983.675l.363.423a7.37 7.37 0 00.514 2.1l-.312-.185a1.726 1.726 0 00-.524-1.032 1.834 1.834 0 00-1.218-.322 1.8 1.8 0 00.537 1.132 1.774 1.774 0 001.149.327l.447.265.026.059a8.375 8.375 0 001.1 1.807l-.381-.1a1.731 1.731 0 00-.79-.849 1.832 1.832 0 00-1.26.023 1.81 1.81 0 00.831.942 1.772 1.772 0 001.194 0l.534.141a10 10 0 001.389 1.373l-.333-.01a1.737 1.737 0 00-.964-.647.693.693 0 10-.2 1.038 1.775 1.775 0 001.164-.272l.483.014q.2.161.418.313a10.9 10.9 0 001.49.889l-.4.084a1.741 1.741 0 00-1.091-.4.693.693 0 10.056 1.054 1.768 1.768 0 001.066-.537l.542-.115a9.153 9.153 0 001.954.675l-.348.167a1.749 1.749 0 00-1.156-.133 1.808 1.808 0 00-.939.833 1.828 1.828 0 001.247.178 1.759 1.759 0 00.906-.773l.486-.233.2.034a2.045 2.045 0 01.417.122.074.074 0 00.029.006.072.072 0 00.066-.042.071.071 0 00-.026-.112z" class="cls-4" transform="translate(-6216.906 -2891.445)"/><path id="패스_723" d="M7153.668 2943.958a.988.988 0 01-.284-.039 1.3 1.3 0 01-.6-.439 1.568 1.568 0 01.459-.076.978.978 0 01.283.04 1.292 1.292 0 01.6.438 1.55 1.55 0 01-.458.076zm2.06-1.117h-.046a1.315 1.315 0 01-.686-.285 1.33 1.33 0 01.666-.212h.046a1.285 1.285 0 01.686.285 1.322 1.322 0 01-.666.211zm-3.225-.459a1.3 1.3 0 01.313-.67 1.275 1.275 0 01.668-.323 1.1 1.1 0 01-.98.992zm1.955-.827a1.294 1.294 0 01.143-.724.393.393 0 11.43.254 1.3 1.3 0 01-.573.469zm3.108-.376a1.45 1.45 0 01-.564-.13 1.3 1.3 0 01.642-.373.907.907 0 01.17-.016 1.446 1.446 0 01.564.131 1.309 1.309 0 01-.642.373.905.905 0 01-.17.013zm-1.324-.977a1.09 1.09 0 01.409-1.329 1.093 1.093 0 01-.409 1.329zm2.619-.83a1.717 1.717 0 01-.3-.03 1.293 1.293 0 01.54-.508 1.073 1.073 0 01.437-.083 1.687 1.687 0 01.3.029 1.3 1.3 0 01-.538.508 1.081 1.081 0 01-.439.082zm-1.238-.681a1.092 1.092 0 01.092-1.386 1.092 1.092 0 01-.092 1.386zm2.034-1.581a1.1 1.1 0 011.075-.891 1.318 1.318 0 01-.377.637 1.287 1.287 0 01-.698.253zm-1.079-.37a1.3 1.3 0 01-.393-.627 1.252 1.252 0 01.1-.732 1.093 1.093 0 01.3 1.359zm1.48-2.142a1.284 1.284 0 01.153-.722.393.393 0 11-.153.722zm-1.142-.008a1.1 1.1 0 11-.145-.724 1.3 1.3 0 01.146.724zm-.4-2.15a1.313 1.313 0 01-.694-.26 1.281 1.281 0 01-.371-.639 1.316 1.316 0 01.7.261 1.291 1.291 0 01.363.638zm1.084-.36a1.092 1.092 0 01.307-1.356 1.3 1.3 0 01.09.733 1.282 1.282 0 01-.397.623zm-1.975-1.519a1.183 1.183 0 01-.6-.14 1.29 1.29 0 01-.479-.564c.044 0 .086-.005.129-.005a1.188 1.188 0 01.6.141 1.3 1.3 0 01.479.564 1.99 1.99 0 01-.131.004zm1.131-.548a1.09 1.09 0 11.281-.683 1.3 1.3 0 01-.283.683zm-1.166-.742a1.466 1.466 0 01-.714-.468 1.445 1.445 0 01-.236-.816 1.462 1.462 0 01.713.468 1.44 1.44 0 01.235.816z" class="cls-5" transform="translate(-7137.88 -2919.033)"/><path id="패스_724" d="M6249.081 2943.891a1.556 1.556 0 01-.459-.076 1.3 1.3 0 01.6-.438.985.985 0 01.284-.039 1.55 1.55 0 01.458.076 1.3 1.3 0 01-.6.439 1.008 1.008 0 01-.283.038zm-2.061-1.117a1.325 1.325 0 01-.667-.212 1.31 1.31 0 01.686-.285h.046a1.334 1.334 0 01.666.212 1.312 1.312 0 01-.686.286zm3.224-.46a1.305 1.305 0 01-.667-.322.393.393 0 11.667.322zm-1.954-.827a1.3 1.3 0 01-.572-.47 1.276 1.276 0 01-.143-.724 1.1 1.1 0 01.715 1.194zm-3.109-.376a.95.95 0 01-.17-.015 1.282 1.282 0 01-.642-.372 1.449 1.449 0 01.565-.131.968.968 0 01.169.015 1.311 1.311 0 01.642.373 1.446 1.446 0 01-.564.13zm1.325-.977a1.3 1.3 0 01-.443-.592.393.393 0 11.443.592zm-2.62-.831a1.078 1.078 0 01-.437-.083 1.3 1.3 0 01-.54-.508 1.717 1.717 0 01.305-.029 1.081 1.081 0 01.437.083 1.29 1.29 0 01.539.508 1.745 1.745 0 01-.304.026zm1.239-.679a1.086 1.086 0 11.2-.71 1.3 1.3 0 01-.2.71zm-2.033-1.581a1.106 1.106 0 01-1.076-.891 1.275 1.275 0 01.7.255 1.294 1.294 0 01.375.636zm1.08-.371a1.281 1.281 0 01-.1-.731.392.392 0 11.489.1 1.313 1.313 0 01-.39.631zm-1.482-2.142a1.1 1.1 0 11-.153-.722 1.3 1.3 0 01.152.722zm1.142-.007a1.1 1.1 0 11.573-.469 1.31 1.31 0 01-.574.469zm.4-2.15a1.286 1.286 0 01.371-.639 1.312 1.312 0 01.694-.261 1.289 1.289 0 01-.371.639 1.309 1.309 0 01-.692.261zm-1.083-.36a1.092 1.092 0 11.09-.732 1.289 1.289 0 01-.088.732zm1.974-1.519h-.129a1.3 1.3 0 01.479-.565 1.184 1.184 0 01.6-.14h.128a1.3 1.3 0 01-.477.565 1.2 1.2 0 01-.599.141zm-1.131-.548a1.089 1.089 0 11.219-.705 1.294 1.294 0 01-.217.706zm1.166-.742a1.45 1.45 0 01.237-.816 1.466 1.466 0 01.714-.469 1.449 1.449 0 01-.237.817 1.467 1.467 0 01-.713.464z" class="cls-5" transform="translate(-6238.867 -2918.967)"/><g id="그룹_1529" transform="translate(9.168 8.287)"><path id="패스_725" d="M6737.928 2906.283a2.71 2.71 0 00-.957-.823 1.673 1.673 0 00.6-.663 3.461 3.461 0 00.408-1.428 2.84 2.84 0 00-.935-2.187 3.5 3.5 0 00-2.447-.841 3.631 3.631 0 00-2.332.763 3.193 3.193 0 00-1.134 2.227l-.364.058.322.319h2.065l.035-.3a1.289 1.289 0 011.437-1.343 1.309 1.309 0 01.961.319 1.275 1.275 0 01.324.958c0 1-.495 1.439-1.6 1.439h-.647l-.321 1.4.321.319h.854a2.118 2.118 0 011.457.437 1.591 1.591 0 01.468 1.25 1.849 1.849 0 01-.467 1.323 1.879 1.879 0 01-2.48.047 1.509 1.509 0 01-.426-1.081v-.339l-.322-.319-1.766.319.02.357a3.21 3.21 0 001.111 2.348 4.233 4.233 0 005.3-.1 3.337 3.337 0 001.1-2.579 3.121 3.121 0 00-.585-1.88z" class="cls-4" transform="translate(-6730.656 -2900.021)"/><path id="패스_726" fill="#eb963b" d="M6728.792 2880.907a2.708 2.708 0 00-.956-.823 2.393 2.393 0 00.6-.663 2.709 2.709 0 00.409-1.428 2.842 2.842 0 00-.935-2.188 3.509 3.509 0 00-2.448-.841 3.626 3.626 0 00-2.331.763 3.186 3.186 0 00-1.135 2.228l-.042.377h2.066l.033-.3a1.289 1.289 0 011.437-1.343 1.31 1.31 0 01.961.319 1.273 1.273 0 01.324.958c0 1-.5 1.439-1.6 1.439h-.647v1.716h.854a2.117 2.117 0 011.457.437 1.586 1.586 0 01.468 1.25 1.848 1.848 0 01-.467 1.323 1.881 1.881 0 01-2.48.048 1.509 1.509 0 01-.426-1.081v-.339h-2.088l.02.357a3.207 3.207 0 001.111 2.348 4.231 4.231 0 005.3-.1 3.336 3.336 0 001.1-2.58 3.125 3.125 0 00-.585-1.877z" transform="translate(-6721.842 -2874.964)"/></g></g></g></svg>