<svg xmlns="http://www.w3.org/2000/svg" width="113" height="113" viewBox="0 0 113 113"><defs><clipPath id="clip-path"><path id="SVGID" fill="none" d="M271.633 363.364a56.5 56.5 0 10-56.5-56.5 56.5 56.5 0 0056.5 56.5" transform="translate(-215.133 -250.364)"/></clipPath><style>.cls-4{fill:#231815}.cls-5{fill:red}.cls-7{fill:#fff}</style></defs><g id="icon_strawberry"><g id="그룹_1642"><path id="패스_880" fill="#feccc2" d="M271.633 363.364a56.5 56.5 0 10-56.5-56.5 56.5 56.5 0 0056.5 56.5" transform="translate(-215.133 -250.364)"/></g><g id="그룹_1652"><g id="그룹_1651" clip-path="url(#clip-path)"><g id="그룹_1650" transform="translate(19.891 4.378)"><g id="그룹_1643" transform="translate(9.265 110.704)"><path id="패스_881" d="M248.415 323.137s-2.45.14-6.772 2.558c-2.67 1.49-4.407 1.985-5.226 1.774s-2.727-.8-2.62.765c.051.8 2.751.842 3.527.657 1.887-.454 4.161-1.785 6.6-2.871 3.213-1.428 3.883-2.292 5.658-1.528s-1.167-1.355-1.167-1.355z" class="cls-4" transform="translate(-233.316 -322.651)"/><path id="패스_882" d="M236.4 329.637a4.864 4.864 0 01-2.506-.516.9.9 0 01-.4-.677 1.371 1.371 0 01.443-1.224c.684-.567 1.841-.272 2.606-.075l.162.041c.291.076 1.48.168 4.879-1.728 4.366-2.446 6.872-2.612 6.976-2.619l.168-.01.138.1c2.082 1.505 2.071 1.764 1.866 2.125-.257.451-.805.213-1.169.056-1.139-.489-1.685-.219-3.31.589-.538.268-1.177.584-1.966.937s-1.539.716-2.276 1.075a23.392 23.392 0 01-4.405 1.823 6.052 6.052 0 01-1.206.103zm-1.4-1.794a.716.716 0 00-.451.111c-.083.068-.117.211-.1.427a5.97 5.97 0 002.941.227 22.925 22.925 0 004.21-1.752c.746-.364 1.518-.74 2.306-1.091s1.4-.656 1.93-.918a6.322 6.322 0 012.712-.939h.048c-.044-.035-.091-.068-.135-.1a19.22 19.22 0 00-6.406 2.482c-1.822 1.015-4.27 2.161-5.577 1.818l-.167-.041a6 6 0 00-1.311-.224z" class="cls-4" transform="translate(-233.493 -322.831)"/></g><g id="그룹_1644" transform="translate(68.827 103.752)"><path id="패스_883" d="M272.59 318.865s2.4-.513 7.205.67c2.974.729 4.774.743 5.511.326s2.417-1.491 2.731.038c.164.784-2.433 1.544-3.225 1.571-1.942.064-4.483-.616-7.129-1.013-3.473-.526-4.351-1.18-5.857.032s.764-1.624.764-1.624z" class="cls-4" transform="translate(-270.816 -318.277)"/><path id="패스_884" d="M284.736 322.128a25.7 25.7 0 01-4.439-.588c-.812-.151-1.652-.308-2.5-.435s-1.548-.265-2.138-.381c-1.782-.346-2.384-.467-3.351.311-.308.248-.772.627-1.14.257-.3-.294-.373-.542 1.234-2.547l.106-.132.165-.036c.1-.022 2.558-.524 7.419.673 3.772.923 4.9.518 5.161.373l.135-.076c.689-.4 1.729-.991 2.542-.63a1.377 1.377 0 01.756 1.062.907.907 0 01-.2.759c-.626.8-2.744 1.359-3.471 1.385a8.602 8.602 0 01-.279.005zm-10.945-2.628a11.31 11.31 0 012.05.289c.578.113 1.261.248 2.1.373.862.13 1.712.289 2.535.443a22.581 22.581 0 004.508.565c.777-.027 2.623-.681 2.774-1.054a.5.5 0 00-.214-.33c-.376-.165-1.286.361-1.675.586l-.141.081c-1.178.67-3.835.218-5.858-.278a19.392 19.392 0 00-6.833-.691l-.106.135a3.022 3.022 0 01.86-.119z" class="cls-4" transform="translate(-270.999 -318.453)"/></g><path id="패스_885" d="M260.17 261.433s-29.476 2.209-32.379 31.537c-1.494 15.1 10.062 29.316 12.022 29.913 0 0-7.161 25.566 13.861 39.424 13.975 9.214 41.55 10.435 53.954-18.876 7.856-18.569-3.3-44.505-5.139-49.911s-10.834-33.683-42.319-32.087z" class="cls-5" transform="translate(-227.658 -248.271)"/><g id="그룹_1645" transform="translate(27.754 50.619)"><path id="패스_886" d="M255.829 295.7a8.855 8.855 0 006.5-10.7l-17.2 4.2a8.844 8.844 0 0010.7 6.5z" transform="translate(-245.135 -284.996)"/><path id="패스_887" fill="#ff5960" d="M259.076 289.772a9.75 9.75 0 00-3.873-.6 8.554 8.554 0 00-6.9 3.57 8.815 8.815 0 0010.769-2.971z" transform="translate(-243.27 -282.546)"/></g><g id="그룹_1646" transform="translate(21.748 40.28)"><path id="패스_888" d="M249.721 286.137a4.212 4.212 0 11-3.464-4.847 4.211 4.211 0 013.464 4.847z" class="cls-7" transform="translate(-241.353 -276.871)"/><path id="패스_889" d="M247.461 285.244a2.547 2.547 0 11-2.095-2.932 2.545 2.545 0 012.095 2.932z" class="cls-4" transform="translate(-240.737 -276.256)"/><path id="패스_890" d="M260.4 283.392a4.213 4.213 0 11-3.459-4.85 4.211 4.211 0 013.459 4.85z" class="cls-7" transform="translate(-235.071 -278.485)"/><path id="패스_891" d="M258.119 282.49a2.527 2.527 0 11-2.08-2.909 2.529 2.529 0 012.08 2.909z" class="cls-4" transform="translate(-234.446 -277.861)"/></g><g id="그룹_1647" transform="translate(72.409 51.991)"><path id="패스_892" d="M274 290.132s4.126-.427 5.957-1.914 4.105-2.255 5.455-.937 2.158 4.748-4.793 9.011" class="cls-5" transform="translate(-272.813 -285.421)"/><path id="패스_893" d="M281.066 297.922a1.191 1.191 0 01-.624-2.207c4.212-2.581 5.017-4.566 5.123-5.52a1.9 1.9 0 00-.537-1.62c-.824-.8-2.584-.041-3.876 1.007-2.047 1.661-6.125 2.126-6.584 2.174a1.206 1.206 0 01-1.307-1.061 1.192 1.192 0 011.061-1.309c1.051-.11 4.057-.621 5.33-1.653 2.625-2.138 5.391-2.473 7.038-.866a4.291 4.291 0 011.243 3.589c-.273 2.465-2.374 4.917-6.247 7.291a1.174 1.174 0 01-.62.175z" class="cls-4" transform="translate(-273.254 -285.86)"/></g><g id="그룹_1648" transform="translate(1.538 76.474)"><path id="패스_894" d="M241.461 302.6s-4.059.856-6.257 0-4.6-.885-5.484.781-.594 5.18 7.327 7.1" class="cls-5" transform="translate(-228.186 -300.837)"/><path id="패스_895" d="M237.49 312.117a1.157 1.157 0 01-.283-.033c-4.407-1.072-7.159-2.758-8.175-5.018a4.3 4.3 0 01.076-3.8c1.08-2.036 3.818-2.558 6.967-1.336 1.525.591 4.547.156 5.582-.062a1.191 1.191 0 01.491 2.331c-.453.1-4.482.9-6.933-.049-1.55-.6-3.459-.783-4 .23a1.9 1.9 0 00-.01 1.707c.394.873 1.772 2.517 6.567 3.683a1.191 1.191 0 01-.28 2.347z" class="cls-4" transform="translate(-228.627 -301.277)"/></g><g id="그룹_1649" transform="translate(20.471)"><path id="패스_896" fill="#f30" d="M269.276 278.257c-.3-.856-.769-2.45-1.332-3.967a14.291 14.291 0 001.658.164c5.787.168 10.791-6.06 10.791-6.06a10.167 10.167 0 01-5.425-.594c-1.852-.75-6.436-2.954-8.741-3.019a7.592 7.592 0 00-3.359.64c1.858-3.884 3.36-8.015 3.36-8.015-1.54-1.51-4.724-.21-4.724-.21.146 1.945-.761 5.229-1.59 7.764a7.324 7.324 0 00-2.879-4.429c-1.834-1.38-6.789-2.531-8.7-3.1a10.276 10.276 0 01-4.612-2.93s.006 7.985 4.639 11.477a14.128 14.128 0 002.353 1.412c-1.677.916-3.5 2.2-4.439 2.785a8.565 8.565 0 01-4.356 1.285s5.012 4.367 9.733 3.384a16.394 16.394 0 007.372-4.185 16.446 16.446 0 003.14 7.875c3.071 3.727 9.714 3.449 9.714 3.449a8.577 8.577 0 01-2.603-3.726z" transform="translate(-239.744 -252.308)"/><path id="패스_897" d="M272.331 283.6c-1.525 0-7.1-.248-9.976-3.743a16.2 16.2 0 01-3.062-6.857 15.926 15.926 0 01-6.675 3.433c-5.045 1.054-10.2-3.373-10.418-3.562l-1.652-1.44 2.193.048a7.883 7.883 0 003.915-1.162c.264-.165.6-.386.977-.637.638-.421 1.434-.947 2.257-1.448a13.559 13.559 0 01-1.2-.807c-4.893-3.687-4.955-11.768-4.955-12.111v-2.195l1.405 1.688a9.59 9.59 0 004.227 2.674c.351.1.805.229 1.324.37 2.395.653 6.016 1.64 7.631 2.855a8.484 8.484 0 012.322 2.609 17.246 17.246 0 00.877-5.249l-.043-.576.535-.219c.151-.06 3.689-1.477 5.58.378l.365.357-.176.481c-.013.035-1.14 3.127-2.635 6.457a8.879 8.879 0 011.91-.148c2.015.057 5.441 1.539 7.705 2.519.513.222.962.416 1.312.559a9.521 9.521 0 004.964.553l2.163-.448-1.382 1.721c-.214.267-5.366 6.508-11.434 6.357q-.231-.007-.462-.024c.2.6.391 1.177.554 1.683.137.427.257.8.357 1.089a7.786 7.786 0 002.328 3.354l1.766 1.334-2.211.092a2.956 2.956 0 01-.386.015zM260.4 269.85l.216 1.512a15.657 15.657 0 002.965 7.481c1.809 2.2 5.082 2.876 7.162 3.079a9.178 9.178 0 01-1.412-2.592c-.1-.3-.227-.684-.368-1.124-.265-.823-.592-1.841-.959-2.827l-.469-1.258 1.328.2a13.92 13.92 0 001.569.157c3.616.057 7.022-2.6 8.815-4.343a10.878 10.878 0 01-3.775-.783 65.725 65.725 0 01-1.344-.572c-2.023-.875-5.409-2.341-7.121-2.388a6.8 6.8 0 00-3.013.572l-1.968.875.929-1.944c1.424-2.976 2.647-6.128 3.121-7.383a4.565 4.565 0 00-2.96.062 27.889 27.889 0 01-1.644 7.451l-.921 2.813-.61-2.9a6.57 6.57 0 00-2.581-3.959c-1.372-1.032-4.953-2.009-7.094-2.593-.532-.145-1-.272-1.356-.378a10.927 10.927 0 01-3.443-1.756c.31 2.479 1.259 6.713 4.172 8.907a13.275 13.275 0 002.223 1.332l1.388.672-1.353.74c-1.172.64-2.454 1.486-3.391 2.1-.392.259-.735.486-1.007.656a9.21 9.21 0 01-2.717 1.14c1.75 1.14 4.728 2.657 7.51 2.079a15.414 15.414 0 006.992-3.986z" class="cls-7" transform="translate(-240.549 -253.121)"/></g></g></g></g></g></svg>