<svg xmlns="http://www.w3.org/2000/svg" width="27" height="27" viewBox="0 0 27 27"><g transform="translate(-25 -136)"><circle cx="13.5" cy="13.5" r="13.5" fill="#fff" transform="translate(25 136)"/><path fill="#674aff" stroke="#674aff" stroke-width=".25" d="M44.594 148.111A5.117 5.117 0 0039.482 143a.369.369 0 00-.369.369v4.374h-4.029a2.739 2.739 0 00-2.716-2.371.369.369 0 100 .738 2 2 0 012 2 5.118 5.118 0 003.067 4.684l-.258.258a1.358 1.358 0 10.522.522l.512-.512a5.124 5.124 0 002.214.071l.44.44a1.359 1.359 0 10.522-.522l-.144-.144a5.12 5.12 0 003.349-4.8zm-8.075 6.745a.619.619 0 11.619-.619.62.62 0 01-.619.619zm6.152-.619a.619.619 0 11-.619-.619.62.62 0 01.619.619zm.153-8.945a4.353 4.353 0 011.017 2.45h-3.467zm-.522-.522l-2.45 2.45v-3.467a4.355 4.355 0 012.45 1.017zm-2.82 7.715a4.379 4.379 0 01-4.358-4h8.716a4.38 4.38 0 01-4.358 4zm0 0"/></g></svg>