<svg xmlns="http://www.w3.org/2000/svg" width="113" height="113" viewBox="0 0 113 113"><defs><clipPath id="clip-path"><path id="SVGID" d="M466.242 306.862a56.5 56.5 0 0056.1 56.5h.8a56.5 56.5 0 10-56.9-56.5" class="cls-1" transform="translate(-466.242 -250.364)"/></clipPath><style>.cls-1{fill:none}.cls-4{fill:#fff240}.cls-7{fill:#fff}.cls-9{fill:red}</style></defs><g id="icon_orange" transform="translate(-466.242 -250.364)"><g id="그룹_1668" transform="translate(466.242 250.364)"><path id="패스_917" fill="#74fe52" d="M522.742 363.364a56.5 56.5 0 10-56.5-56.5 56.5 56.5 0 0056.5 56.5" transform="translate(-466.242 -250.364)"/></g><path id="패스_918" d="M466.242 306.862a56.5 56.5 0 0056.1 56.5h.8a56.5 56.5 0 10-56.9-56.5" class="cls-1"/><g id="그룹_1678" transform="translate(466.242 250.364)"><g id="그룹_1677" clip-path="url(#clip-path)"><g id="그룹_1676" transform="translate(17.695 11.332)"><path id="패스_919" d="M485.308 290.715a1.184 1.184 0 01-.129-2.361 1.249 1.249 0 01.132-.008 1.192 1.192 0 011.189 1.054 1.191 1.191 0 01-1.059 1.3.874.874 0 01-.133.015zm0-2.158a.838.838 0 00-.108.006.973.973 0 00.1 1.941h.11a.981.981 0 00.869-1.074.979.979 0 00-.968-.873z" class="cls-4" transform="translate(-473.427 -239.36)"/><path id="패스_920" d="M487.054 295.044a1.189 1.189 0 01-1.18-1.056 1.191 1.191 0 011.058-1.307 1.232 1.232 0 01.132-.006 1.192 1.192 0 011.186 1.054 1.164 1.164 0 01-.254.867 1.192 1.192 0 01-.807.441 1.254 1.254 0 01-.135.007zm.01-2.158h-.108a.98.98 0 00-.87 1.075.953.953 0 00.356.65.989.989 0 001.391-.151.952.952 0 00.206-.711.978.978 0 00-.976-.863z" class="cls-4" transform="translate(-472.397 -236.815)"/><path id="패스_921" d="M516.321 293.806a1.185 1.185 0 111.191-1.315 1.189 1.189 0 01-1.059 1.307.906.906 0 01-.132.008zm0-2.158c-.035 0-.07 0-.106.006a.982.982 0 00-.872 1.073.986.986 0 001.747.5.948.948 0 00.208-.711.981.981 0 00-.974-.868z" class="cls-4" transform="translate(-455.19 -237.542)"/><path id="패스_922" d="M514.093 297.6a1.183 1.183 0 01-.129-2.36 1.258 1.258 0 01.132-.008 1.191 1.191 0 011.185 1.054 1.166 1.166 0 01-.253.865 1.18 1.18 0 01-.805.44.878.878 0 01-.13.009zm0-2.157a.837.837 0 00-.108.006.972.972 0 10.875 1.571.958.958 0 00.208-.71.981.981 0 00-.968-.866z" class="cls-4" transform="translate(-456.501 -235.31)"/><path id="패스_923" fill="#ff7f2c" d="M522.989 266.589s-27.664-7.694-39.981 18.152c-6.343 13.3-.47 30.1 1.129 31.294 0 0-14.972 21-.329 40.591 9.733 13.025 34.526 23.227 55.52.532 13.3-14.378 11.652-41.755 11.753-47.3s1.2-34.351-28.093-43.271" transform="translate(-477.385 -252.785)"/><g id="그룹_1669" transform="translate(12.019 51.738)"><path id="패스_924" d="M511.224 293.732a1.078 1.078 0 101.2.953 1.081 1.081 0 00-1.2-.953z" class="cls-4" transform="translate(-470.074 -287.934)"/><path id="패스_925" d="M491.035 291.82a1.079 1.079 0 101.2.956 1.085 1.085 0 00-1.2-.956z" class="cls-4" transform="translate(-481.949 -289.059)"/><path id="패스_926" d="M485.923 290.085a1.079 1.079 0 101.2.956 1.083 1.083 0 00-1.2-.956z" class="cls-4" transform="translate(-484.953 -290.079)"/><path id="패스_927" d="M487.675 294.413a1.08 1.08 0 101.2.956 1.083 1.083 0 00-1.2-.956z" class="cls-4" transform="translate(-483.923 -287.534)"/><path id="패스_928" d="M516.939 293.176a1.078 1.078 0 101.2.953 1.086 1.086 0 00-1.2-.953z" class="cls-4" transform="translate(-466.715 -288.261)"/><path id="패스_929" d="M514.709 296.972a1.078 1.078 0 101.2.953 1.086 1.086 0 00-1.2-.953z" class="cls-4" transform="translate(-468.027 -286.029)"/></g><path id="패스_930" d="M502.367 300.643a8.6 8.6 0 009.466-7.637l-17.1-1.831a8.6 8.6 0 007.631 9.468" transform="translate(-467.21 -237.697)"/><path id="패스_931" fill="#ff595c" d="M507.018 297.255a9.462 9.462 0 00-3.268-1.949 8.314 8.314 0 00-7.511.711 8.564 8.564 0 0010.78 1.237" transform="translate(-466.298 -235.598)"/><path id="패스_932" d="M500.009 290.888a4.093 4.093 0 11-1.567-5.569 4.091 4.091 0 011.567 5.569" class="cls-7" transform="translate(-468.586 -241.449)"/><path id="패스_933" d="M498 289.5a2.475 2.475 0 11-.948-3.373A2.471 2.471 0 01498 289.5" transform="translate(-467.987 -240.852)"/><path id="패스_934" d="M510.675 291.9a4.092 4.092 0 11-1.566-5.571 4.095 4.095 0 011.566 5.571" class="cls-7" transform="translate(-462.313 -240.853)"/><path id="패스_935" d="M508.643 290.5a2.456 2.456 0 11-.94-3.346 2.456 2.456 0 01.94 3.346" transform="translate(-461.707 -240.248)"/><path id="패스_936" fill="#38b84a" d="M518.028 257.6c-7.677.9-13.476 7.618-15.477 10.249.535-3.98 1.067-7.512 1.067-7.512-2.207-.77-4.745 1.985-4.745 1.985 1.882 3.306.318 13.008.318 13.008a1.562 1.562 0 001.237.36 1.685 1.685 0 001.28-.969c.165-1.583.394-3.457.638-5.32 2.057 1.76 9.682 7.705 17.858 6.746 9.571-1.124 16.243-11.307 16.243-11.307s-8.847-8.359-18.419-7.24z" transform="translate(-464.748 -257.5)"/><g id="그룹_1672" transform="translate(22.631 39.274)"><g id="그룹_1670" transform="translate(0 1.186)"><path id="선_1" d="M1.472 2.457L0 0" class="cls-9" transform="translate(.795 .795)"/><path id="패스_937" d="M493.9 287.022a.79.79 0 01-.68-.386l-1.472-2.457a.793.793 0 111.361-.815l1.472 2.457a.793.793 0 01-.681 1.2z" transform="translate(-491.635 -282.977)"/></g><g id="그룹_1671" transform="translate(6.336)"><path id="선_2" d="M0 2.948L.732 0" class="cls-9" transform="translate(.794 .794)"/><path id="패스_938" d="M496.419 286.767a.8.8 0 01-.77-.986l.732-2.947a.794.794 0 111.54.383l-.732 2.949a.793.793 0 01-.77.601z" transform="translate(-495.625 -282.23)"/></g></g><g id="그룹_1675" transform="translate(45.741 41.008)"><g id="그룹_1673" transform="translate(3.09 5.516)"><path id="선_3" d="M0 1.252L2.821 0" class="cls-9" transform="translate(.795 .794)"/><path id="패스_939" d="M508.928 289.635a.794.794 0 01-.322-1.52l2.82-1.251a.794.794 0 01.645 1.451l-2.82 1.251a.8.8 0 01-.323.069z" transform="translate(-508.133 -286.796)"/></g><g id="그룹_1674"><path id="선_4" d="M0 2.604L.996 0" class="cls-9" transform="translate(.794 .794)"/><path id="패스_940" d="M506.981 287.514a.8.8 0 01-.283-.052.793.793 0 01-.457-1.026l1-2.6a.793.793 0 111.482.567l-1 2.6a.792.792 0 01-.742.511z" transform="translate(-506.188 -283.322)"/></g></g></g></g></g></g></svg>