<svg xmlns="http://www.w3.org/2000/svg" width="8.2" height="10.2" viewBox="0 0 8.2 10.2"><defs><style>.cls-1{fill:#b8b8b8;stroke:#b8b8b8;stroke-width:.2px}</style></defs><g id="icon_delet" transform="translate(-803.9 -347.9)"><path id="패스_774" d="M811.231 349.25h-1.692v-.312a.931.931 0 00-.923-.938h-1.231a.931.931 0 00-.923.938v.312h-1.692a.776.776 0 00-.769.781v1.094a.31.31 0 00.308.312h.168l.266 5.67a.928.928 0 00.922.893h4.673a.928.928 0 00.922-.893l.266-5.67h.168a.31.31 0 00.308-.312v-1.094a.776.776 0 00-.769-.781zm-4.154-.312a.31.31 0 01.308-.313h1.231a.311.311 0 01.308.313v.312h-1.846zm-2.462 1.094a.155.155 0 01.154-.156h6.462a.155.155 0 01.154.156v.781h-6.769zm6.028 7.046a.309.309 0 01-.307.3h-4.673a.309.309 0 01-.307-.3l-.264-5.64h5.816zm0 0" class="cls-1"/><path id="패스_775" d="M948.262 507.929a.262.262 0 00.262-.262v-3.4a.262.262 0 10-.524 0v3.4a.262.262 0 00.262.262zm0 0" class="cls-1" transform="translate(-140.262 -151.233)"/><path id="패스_776" d="M1008.262 507.929a.262.262 0 00.262-.262v-3.4a.262.262 0 10-.524 0v3.4a.262.262 0 00.262.262zm0 0" class="cls-1" transform="translate(-198.704 -151.233)"/><path id="패스_777" d="M888.262 507.929a.262.262 0 00.262-.262v-3.4a.262.262 0 10-.524 0v3.4a.262.262 0 00.262.262zm0 0" class="cls-1" transform="translate(-81.819 -151.233)"/></g></svg>