<svg xmlns="http://www.w3.org/2000/svg" width="113" height="113" viewBox="0 0 113 113"><defs><clipPath id="clip-path"><path id="SVGID" d="M382.9 306.862a56.5 56.5 0 1056.5-56.5 56.5 56.5 0 00-56.5 56.5" class="cls-1" transform="translate(-382.904 -250.365)"/></clipPath><style>.cls-1{fill:none}</style></defs><g id="icon_grape" transform="translate(-382.904 -250.364)"><g id="그룹_1661" transform="translate(382.906 250.364)"><path id="패스_908" fill="#fffe77" d="M439.4 363.364a56.5 56.5 0 10-56.5-56.5 56.5 56.5 0 0056.5 56.5" transform="translate(-382.905 -250.364)"/></g><path id="패스_909" d="M382.9 306.862a56.5 56.5 0 1056.5-56.5 56.5 56.5 0 00-56.5 56.5" class="cls-1" transform="translate(0 .001)"/><g id="그룹_1666" transform="translate(382.904 250.366)"><g id="그룹_1665" clip-path="url(#clip-path)"><g id="그룹_1664" transform="translate(25.8 15.624)"><path id="패스_910" fill="#6565ff" d="M461.807 292.716a31.82 31.82 0 11-38.7-22.957 31.821 31.821 0 0138.7 22.957" transform="translate(-399.15 -255.17)"/><path id="패스_911" d="M423.43 278.134a1.262 1.262 0 01-1.243-1.05l-1.731-10.064-9.862-3.317a1.264 1.264 0 11.807-2.4l9.29 3.125a1.23 1.23 0 01.561-.246 1.164 1.164 0 01.314-.016l5.693-3.757a1.263 1.263 0 111.391 2.109l-5.75 3.8 1.779 10.338a1.269 1.269 0 01-1.248 1.477z" transform="translate(-392.927 -260.203)"/><g id="그룹_1663" transform="translate(20.407 31.559)"><path id="패스_912" d="M428.355 301.187a10.306 10.306 0 003.776-14.07l-17.84 10.291a10.3 10.3 0 0014.064 3.78" transform="translate(-410.653 -275.935)"/><path id="패스_913" fill="#ff595c" d="M430.123 292.5a11.371 11.371 0 00-4.52.591 9.965 9.965 0 00-6.54 6.235 10.25 10.25 0 0011.059-6.826" transform="translate(-407.846 -272.79)"/><g id="그룹_1662" transform="translate(13.122)"><path id="패스_914" d="M427.413 281.547c.178.176-1.248 1.915-3.186 3.881s-3.653 3.422-3.83 3.248 1.247-1.915 3.181-3.883 3.657-3.423 3.835-3.246z" transform="translate(-420.193 -279.219)"/><path id="패스_915" d="M423.284 280.078c.27.086-.172 2.292-.981 4.933s-1.691 4.712-1.961 4.629.17-2.292.983-4.934 1.689-4.706 1.959-4.628z" transform="translate(-420.263 -280.076)"/><path id="패스_916" d="M429.656 283.857c.089.227-1.928 1.215-4.505 2.206s-4.74 1.61-4.828 1.38 1.929-1.215 4.507-2.207 4.742-1.606 4.826-1.379z" transform="translate(-420.229 -277.879)"/></g><circle id="타원_102" cx="2.514" cy="2.514" r="2.514" transform="translate(0 12.797)"/></g></g></g></g></g></svg>