<svg xmlns="http://www.w3.org/2000/svg" width="27" height="29" viewBox="0 0 27 29"><defs><style>.cls-2{fill:#ffe905}.cls-3{fill:#ffbf00}.cls-6{fill:#e59200}</style></defs><g id="icon_gold" transform="translate(-39 -183)"><path id="빼기_1" d="M-7665 26a12.866 12.866 0 01-8-2.753V3h16.307A12.97 12.97 0 01-7652 13a12.915 12.915 0 01-3.808 9.193A12.914 12.914 0 01-7665 26z" opacity=".5" transform="translate(7718 186)"/><g id="그룹_1504" transform="translate(39 183)"><g id="그룹_1500" transform="translate(8.51)"><g id="그룹_1499"><path id="패스_690" d="M1238.575 2221.707h-1.1v-3.074a1.012 1.012 0 00-1.014-1.008h-4.742a1.012 1.012 0 00-1.015 1.008v3.074h-1.1v-3.074a2.115 2.115 0 012.12-2.105h4.742a2.115 2.115 0 012.119 2.105z" class="cls-2" transform="translate(-1229.595 -2216.527)"/></g></g><g id="그룹_1501" transform="translate(8.51 2.116)"><path id="패스_691" d="M1851.3 2387.726h1.1V2385q-.542-.19-1.1-.335z" class="cls-3" transform="translate(-1843.425 -2384.662)"/><path id="패스_692" d="M1230.7 2387.727v-3.064q-.562.145-1.1.335v2.729z" class="cls-3" transform="translate(-1229.595 -2384.663)"/></g><ellipse id="타원_84" cx="13" cy="12.915" fill="#ffe500" rx="13" ry="12.915" transform="translate(0 2.169)"/><ellipse id="타원_85" cx="11.032" cy="10.96" fill="#fc0" rx="11.032" ry="10.96" transform="translate(1.968 4.124)"/><path id="패스_694" d="M724.207 2544.963a11 11 0 0111.026 10.59c0-.123.006-.247.006-.37a11.032 11.032 0 00-22.064 0c0 .123 0 .247.006.37a11 11 0 0111.026-10.59z" class="cls-6" transform="translate(-711.207 -2540.097)"/><path id="패스_695" d="M1617.112 2908.67a1.725 1.725 0 00-.524 1.032l-.312.185a7.385 7.385 0 00.513-2.1l.363-.423a1.761 1.761 0 00.984-.675 1.8 1.8 0 00.144-1.243 1.824 1.824 0 00-1.05.692 1.718 1.718 0 00-.165 1.145l-.261.3a7.58 7.58 0 00-.029-1.312 8.184 8.184 0 00-.153-.911l.193-.482a1.753 1.753 0 00.712-.954.692.692 0 10-1.037-.231 1.719 1.719 0 00.216 1.136l-.131.328a9.88 9.88 0 00-.647-1.8l.113-.547a1.746 1.746 0 00.532-1.063.692.692 0 10-1.061-.047 1.724 1.724 0 00.414 1.081l-.083.4a12.693 12.693 0 00-.723-1.28 1.86 1.86 0 00-.285-1.208 1.982 1.982 0 00-1.2-.654 1.954 1.954 0 00.271 1.333 1.909 1.909 0 001.116.638 12.48 12.48 0 01.678 1.2l-.336-.13a1.73 1.73 0 00-.69-.931 1.831 1.831 0 00-1.255-.116 1.809 1.809 0 00.72 1.028 1.774 1.774 0 001.188.132l.45.173a9.8 9.8 0 01.668 1.866l-.346-.209a1.723 1.723 0 00-.515-1.037 1.832 1.832 0 00-1.215-.333 1.8 1.8 0 00.527 1.138 1.774 1.774 0 001.146.337l.44.267a7.733 7.733 0 01.179 2.156l-.236-.282a1.72 1.72 0 00-.151-1.147 1.825 1.825 0 00-1.041-.705 1.8 1.8 0 00.129 1.246 1.766 1.766 0 00.975.687l.312.372a7.2 7.2 0 01-.52 2.136l-.146-.375a1.719 1.719 0 00.226-1.134.692.692 0 10-1.039.222 1.753 1.753 0 00.7.96l.189.485-.02.045a8.36 8.36 0 01-1.081 1.775l-.035-.376a1.725 1.725 0 00.532-1.029.692.692 0 10-1.06-.071 1.744 1.744 0 00.409 1.115l.045.495a9.953 9.953 0 01-1.455 1.435l.062-.436a1.731 1.731 0 00.754-.881.692.692 0 10-1.016-.309 1.742 1.742 0 00.142 1.178l-.079.553a10.675 10.675 0 01-1.812 1.137l.139-.347a1.741 1.741 0 00.943-.678 1.8 1.8 0 00.127-1.245 1.822 1.822 0 00-1.041.706 1.742 1.742 0 00-.143 1.178l-.186.463a8.954 8.954 0 01-1.96.674l.224-.312a1.747 1.747 0 001.078-.436 1.8 1.8 0 00.422-1.18 1.831 1.831 0 00-1.179.441 1.743 1.743 0 00-.42 1.111l-.295.41a5.693 5.693 0 01-.215.037 2.193 2.193 0 00-.449.132.071.071 0 00.029.136.072.072 0 00.029-.006 2.066 2.066 0 01.417-.122c.067-.01.135-.022.2-.034l.485.233a1.761 1.761 0 00.907.773.693.693 0 10.307-1.01 1.749 1.749 0 00-1.156.133l-.348-.167a9.13 9.13 0 001.954-.675l.542.115a1.767 1.767 0 001.066.537.693.693 0 10.057-1.054 1.745 1.745 0 00-1.091.4l-.4-.084a10.916 10.916 0 001.489-.889q.214-.153.419-.313l.483-.014a1.775 1.775 0 001.163.272.693.693 0 10-.2-1.038 1.74 1.74 0 00-.965.647l-.332.01a10.027 10.027 0 001.389-1.373l.533-.141a1.773 1.773 0 001.195 0 1.812 1.812 0 00.83-.942 1.831 1.831 0 00-1.26-.023 1.733 1.733 0 00-.79.849l-.381.1a8.465 8.465 0 001.1-1.807l.026-.059.447-.265a1.771 1.771 0 001.149-.327 1.8 1.8 0 00.537-1.132 1.832 1.832 0 00-1.208.339z" class="cls-6" transform="translate(-1595.139 -2891.445)"/><path id="패스_696" d="M789.239 2915.618a2.2 2.2 0 00-.449-.132 4.206 4.206 0 01-.215-.037l-.294-.41a1.742 1.742 0 00-.42-1.111 1.831 1.831 0 00-1.18-.441 1.8 1.8 0 00.421 1.18 1.748 1.748 0 001.078.436l.224.312a8.953 8.953 0 01-1.96-.674l-.186-.463a1.74 1.74 0 00-.143-1.178 1.823 1.823 0 00-1.04-.706 1.8 1.8 0 00.127 1.245 1.739 1.739 0 00.943.678l.139.347a10.672 10.672 0 01-1.812-1.137l-.079-.553a1.739 1.739 0 00.142-1.178.692.692 0 10-1.016.309 1.732 1.732 0 00.755.881l.062.436a9.973 9.973 0 01-1.455-1.435l.045-.495a1.744 1.744 0 00.41-1.115.692.692 0 10-1.06.071 1.727 1.727 0 00.532 1.029l-.034.376a8.375 8.375 0 01-1.081-1.775l-.02-.045.189-.485a1.754 1.754 0 00.7-.96.692.692 0 10-1.039-.222 1.72 1.72 0 00.226 1.134l-.146.375a7.2 7.2 0 01-.52-2.136l.312-.372a1.765 1.765 0 00.975-.687 1.8 1.8 0 00.129-1.246 1.824 1.824 0 00-1.041.705 1.719 1.719 0 00-.15 1.147l-.236.282a7.735 7.735 0 01.179-2.156l.44-.267a1.774 1.774 0 001.146-.337 1.805 1.805 0 00.526-1.138 1.832 1.832 0 00-1.215.333 1.727 1.727 0 00-.515 1.037l-.346.209a9.79 9.79 0 01.668-1.866l.45-.173a1.774 1.774 0 001.188-.132 1.81 1.81 0 00.72-1.028 1.831 1.831 0 00-1.255.116 1.729 1.729 0 00-.69.931l-.336.13a12.405 12.405 0 01.678-1.2 1.908 1.908 0 001.116-.638 1.955 1.955 0 00.271-1.333 1.983 1.983 0 00-1.2.654 1.859 1.859 0 00-.285 1.208 12.7 12.7 0 00-.724 1.28l-.083-.4a1.723 1.723 0 00.414-1.081.692.692 0 10-1.061.047 1.748 1.748 0 00.532 1.063l.113.547a9.916 9.916 0 00-.647 1.8l-.131-.328a1.722 1.722 0 00.216-1.136.692.692 0 10-1.037.231 1.752 1.752 0 00.712.954l.193.482a8.181 8.181 0 00-.152.911 7.6 7.6 0 00-.03 1.312l-.26-.3a1.719 1.719 0 00-.165-1.145 1.823 1.823 0 00-1.05-.692 1.8 1.8 0 00.144 1.243 1.761 1.761 0 00.983.675l.363.423a7.373 7.373 0 00.513 2.1l-.312-.185a1.723 1.723 0 00-.524-1.032 1.832 1.832 0 00-1.218-.322 1.8 1.8 0 00.537 1.132 1.772 1.772 0 001.149.327l.446.265.026.059a8.465 8.465 0 001.1 1.807l-.381-.1a1.732 1.732 0 00-.79-.849 1.831 1.831 0 00-1.26.023 1.811 1.811 0 00.83.942 1.773 1.773 0 001.195 0l.533.141a10.014 10.014 0 001.388 1.373l-.331-.01a1.74 1.74 0 00-.965-.647.693.693 0 10-.2 1.038 1.775 1.775 0 001.163-.272l.483.014q.2.161.419.313a10.909 10.909 0 001.489.889l-.4.084a1.746 1.746 0 00-1.091-.4.693.693 0 10.056 1.054 1.764 1.764 0 001.065-.537l.542-.115a9.131 9.131 0 001.954.675l-.349.167a1.749 1.749 0 00-1.156-.133.693.693 0 10.307 1.01 1.759 1.759 0 00.907-.773l.486-.233.2.034a2.054 2.054 0 01.417.122.073.073 0 00.029.006.071.071 0 00.029-.136z" class="cls-6" transform="translate(-776.59 -2891.445)"/><path id="패스_697" d="M1713.354 2943.958a.984.984 0 01-.283-.039 1.308 1.308 0 01-.6-.439 1.559 1.559 0 01.458-.076.973.973 0 01.283.04 1.3 1.3 0 01.6.438 1.557 1.557 0 01-.458.076zm2.06-1.117h-.045a1.313 1.313 0 01-.685-.285 1.328 1.328 0 01.666-.212h.046a1.287 1.287 0 01.686.285 1.327 1.327 0 01-.668.211zm-3.224-.459a1.3 1.3 0 01.311-.67 1.277 1.277 0 01.668-.323 1.3 1.3 0 01-.312.67 1.308 1.308 0 01-.667.322zm1.955-.827a1.294 1.294 0 01.142-.724 1.277 1.277 0 01.572-.471 1.291 1.291 0 01-.142.725 1.305 1.305 0 01-.572.469zm3.109-.376a1.441 1.441 0 01-.564-.13 1.3 1.3 0 01.641-.373.892.892 0 01.169-.016 1.445 1.445 0 01.564.131 1.307 1.307 0 01-.641.373.909.909 0 01-.169.013zm-1.325-.977a1.292 1.292 0 01-.034-.738 1.266 1.266 0 01.443-.592 1.093 1.093 0 01-.409 1.329zm2.62-.83a1.716 1.716 0 01-.3-.03 1.3 1.3 0 01.539-.508 1.081 1.081 0 01.437-.083 1.7 1.7 0 01.3.029 1.3 1.3 0 01-.538.508 1.081 1.081 0 01-.438.082zm-1.24-.681a1.09 1.09 0 11.3-.677 1.291 1.291 0 01-.3.676zm2.035-1.581a1.3 1.3 0 01.377-.636 1.284 1.284 0 01.7-.255 1.3 1.3 0 01-.377.637 1.282 1.282 0 01-.7.253zm-1.08-.37a1.3 1.3 0 01-.392-.627 1.259 1.259 0 01.1-.732 1.09 1.09 0 01.3 1.359zm1.481-2.142a1.291 1.291 0 01.153-.722 1.306 1.306 0 01.578-.462 1.289 1.289 0 01-.152.722 1.308 1.308 0 01-.579.464zm-1.142-.008a1.3 1.3 0 01-.573-.469 1.29 1.29 0 01-.143-.724 1.1 1.1 0 01.716 1.193zm-.4-2.15a1.316 1.316 0 01-.695-.26 1.293 1.293 0 01-.371-.639 1.313 1.313 0 01.7.261 1.293 1.293 0 01.363.638zm1.083-.36a1.091 1.091 0 11.4-.623 1.288 1.288 0 01-.403.623zm-1.974-1.519a1.188 1.188 0 01-.6-.14 1.3 1.3 0 01-.478-.564c.044 0 .087-.005.129-.005a1.19 1.19 0 01.6.141 1.3 1.3 0 01.479.564 2.05 2.05 0 01-.133.004zm1.132-.548a1.09 1.09 0 11.281-.683 1.291 1.291 0 01-.284.683zm-1.166-.742a1.469 1.469 0 01-.714-.468 1.447 1.447 0 01-.237-.816 1.229 1.229 0 01.951 1.284z" class="cls-2" transform="translate(-1697.567 -2919.033)"/><path id="패스_698" d="M808.766 2943.891a1.552 1.552 0 01-.458-.076 1.3 1.3 0 01.6-.438.976.976 0 01.283-.039 1.551 1.551 0 01.458.076 1.31 1.31 0 01-.6.439 1 1 0 01-.283.038zm-2.06-1.117a1.326 1.326 0 01-.666-.212 1.31 1.31 0 01.686-.285h.046a1.33 1.33 0 01.666.212 1.31 1.31 0 01-.685.286zm3.224-.46a1.306 1.306 0 01-.668-.322.393.393 0 11.668.322zm-1.955-.827a1.094 1.094 0 11-.142-.724 1.3 1.3 0 01.142.724zm-3.109-.376a.933.933 0 01-.169-.015 1.28 1.28 0 01-.642-.372 1.448 1.448 0 01.565-.131.956.956 0 01.169.015 1.31 1.31 0 01.642.373 1.438 1.438 0 01-.565.13zm1.325-.977a1.092 1.092 0 11.034-.737 1.3 1.3 0 01-.034.737zm-2.621-.831a1.076 1.076 0 01-.437-.083 1.293 1.293 0 01-.539-.508 1.708 1.708 0 01.3-.029 1.076 1.076 0 01.437.083 1.3 1.3 0 01.539.508 1.743 1.743 0 01-.299.026zm1.24-.679a1.09 1.09 0 11.2-.71 1.294 1.294 0 01-.199.71zm-2.035-1.581a1.1 1.1 0 11-.377-.636 1.287 1.287 0 01.378.636zm1.08-.371a1.09 1.09 0 11.392-.626 1.285 1.285 0 01-.391.626zm-1.481-2.142a1.306 1.306 0 01-.579-.462 1.291 1.291 0 01-.152-.722 1.31 1.31 0 01.578.462 1.29 1.29 0 01.154.722zm1.142-.007a1.094 1.094 0 11.573-.469 1.308 1.308 0 01-.572.469zm.4-2.15a1.292 1.292 0 01.371-.639 1.315 1.315 0 01.694-.261 1.3 1.3 0 01-.371.639 1.314 1.314 0 01-.691.261zm-1.083-.36a1.092 1.092 0 11.09-.732 1.3 1.3 0 01-.087.732zm1.974-1.519h-.13a1.3 1.3 0 01.479-.565 1.188 1.188 0 01.6-.14h.129a1.3 1.3 0 01-.478.565 1.191 1.191 0 01-.597.141zm-1.132-.548a1.091 1.091 0 11.218-.705 1.3 1.3 0 01-.215.706zm1.166-.742a1.227 1.227 0 11.714-.467 1.471 1.471 0 01-.71.463z" class="cls-2" transform="translate(-798.553 -2918.967)"/><g id="그룹_1503" transform="translate(10.156 8.535)"><path id="패스_699" d="M1363.732 2904.278v-9.3l-.321-.319-1.333.319-.053.275c-.192.994-.9 1.517-2.149 1.592l-.321 1.414.321.319h1.837v5.695h-1.229l-.321 1.588.321.32h4.437v-1.907l-.321-.319z" class="cls-6" transform="translate(-1359.555 -2894.663)"/><path id="패스_700" d="M1363.411 2903.959v-9.3h-1.654l-.053.275c-.192.994-.9 1.516-2.149 1.592v1.733h1.837v5.7h-1.229v1.906h4.437v-1.906z" class="cls-2" transform="translate(-1359.555 -2894.663)"/></g></g></g></svg>