<svg xmlns="http://www.w3.org/2000/svg" width="8.2" height="9.296" viewBox="0 0 8.2 9.296"><defs><style>.cls-1{fill:#b8b8b8;stroke:#b8b8b8;stroke-width:.2px}</style></defs><g id="icon_report" transform="translate(-813.9 -399.9)"><path id="패스_778" d="M821.233 406.466h-.164v-3.4a3.068 3.068 0 10-6.137 0v3.4h-.164a.768.768 0 00-.767.767v1.1a.768.768 0 00.767.767h6.466a.768.768 0 00.767-.767v-1.1a.768.768 0 00-.768-.767zm-5.644-3.4a2.411 2.411 0 114.822 0v3.4h-4.822zm5.753 5.26a.11.11 0 01-.11.11h-6.466a.11.11 0 01-.11-.11v-1.1a.11.11 0 01.11-.11h6.466a.11.11 0 01.11.11z" class="cls-1"/><path id="패스_779" d="M897.754 448a1.755 1.755 0 00-1.754 1.753.329.329 0 00.658 0 1.1 1.1 0 011.1-1.1.329.329 0 000-.658z" class="cls-1" transform="translate(-79.467 -46.4)"/></g></svg>