<svg xmlns="http://www.w3.org/2000/svg" width="27" height="29" viewBox="0 0 27 29"><defs><style>.cls-2{fill:#dadce5}.cls-3{fill:#a5abbf}.cls-4{fill:#818692}</style></defs><g id="icon_sliver" transform="translate(-39 -317)"><path id="빼기_2" d="M-7665 26a12.866 12.866 0 01-8-2.753V3h16.307A12.97 12.97 0 01-7652 13a12.915 12.915 0 01-3.808 9.193A12.914 12.914 0 01-7665 26z" opacity=".5" transform="translate(7718 320)"/><g id="그룹_1516" transform="translate(39 317)"><g id="그룹_1509" transform="translate(8.51)"><g id="그룹_1508"><path id="패스_703" d="M3958.733 2221.707h-1.1v-3.074a1.013 1.013 0 00-1.015-1.008h-4.741a1.012 1.012 0 00-1.015 1.008v3.074h-1.1v-3.074a2.115 2.115 0 012.12-2.105h4.741a2.115 2.115 0 012.12 2.105z" class="cls-2" transform="translate(-3949.753 -2216.527)"/></g></g><g id="그룹_1511" transform="translate(8.51 2.116)"><g id="그룹_1510"><path id="패스_704" d="M4571.459 2387.726h1.1V2385q-.543-.19-1.1-.335z" class="cls-3" transform="translate(-4563.583 -2384.662)"/><path id="패스_705" d="M3950.858 2387.727v-3.064q-.563.145-1.1.335v2.729z" class="cls-3" transform="translate(-3949.753 -2384.663)"/></g></g><ellipse id="타원_86" cx="13" cy="12.915" class="cls-2" rx="13" ry="12.915" transform="translate(0 2.169)"/><ellipse id="타원_87" cx="11.032" cy="10.96" class="cls-3" rx="11.032" ry="10.96" transform="translate(1.968 4.124)"/><path id="패스_707" d="M3444.365 2544.963a11 11 0 0111.026 10.59c0-.123.006-.247.006-.37a11.032 11.032 0 00-22.064 0c0 .123 0 .247.007.37a11 11 0 0111.025-10.59z" class="cls-4" transform="translate(-3431.365 -2540.097)"/><path id="패스_708" d="M4337.27 2908.67a1.721 1.721 0 00-.524 1.032l-.312.185a7.369 7.369 0 00.513-2.1l.363-.423a1.764 1.764 0 00.984-.675 1.8 1.8 0 00.145-1.243 1.823 1.823 0 00-1.05.692 1.715 1.715 0 00-.165 1.145l-.261.3a7.567 7.567 0 00-.029-1.312 8.3 8.3 0 00-.152-.911l.192-.482a1.753 1.753 0 00.712-.954.692.692 0 10-1.037-.231 1.722 1.722 0 00.216 1.136l-.131.328a9.917 9.917 0 00-.647-1.8l.113-.547a1.744 1.744 0 00.531-1.063.692.692 0 10-1.061-.047 1.724 1.724 0 00.413 1.081l-.083.4a12.464 12.464 0 00-.724-1.28 1.859 1.859 0 00-.284-1.208 1.985 1.985 0 00-1.2-.654 1.96 1.96 0 00.27 1.333 1.91 1.91 0 001.117.638 12.558 12.558 0 01.678 1.2l-.336-.13a1.733 1.733 0 00-.691-.931 1.832 1.832 0 00-1.255-.116 1.811 1.811 0 00.72 1.028 1.773 1.773 0 001.188.132l.449.173a9.794 9.794 0 01.668 1.866l-.346-.209a1.727 1.727 0 00-.515-1.037 1.832 1.832 0 00-1.215-.333 1.809 1.809 0 00.527 1.138 1.774 1.774 0 001.146.337l.44.267a7.7 7.7 0 01.178 2.156l-.236-.282a1.721 1.721 0 00-.15-1.147 1.822 1.822 0 00-1.042-.705 1.8 1.8 0 00.129 1.246 1.766 1.766 0 00.975.687l.313.372a7.227 7.227 0 01-.52 2.136l-.147-.375a1.72 1.72 0 00.227-1.134.692.692 0 10-1.039.222 1.756 1.756 0 00.7.96l.189.485-.021.045a8.388 8.388 0 01-1.081 1.775l-.035-.376a1.73 1.73 0 00.532-1.029.692.692 0 10-1.06-.071 1.747 1.747 0 00.41 1.115l.045.495a9.966 9.966 0 01-1.456 1.435l.062-.436a1.736 1.736 0 00.754-.881.692.692 0 10-1.016-.309 1.741 1.741 0 00.142 1.178l-.079.553a10.68 10.68 0 01-1.813 1.137l.139-.347a1.74 1.74 0 00.943-.678 1.792 1.792 0 00.127-1.245 1.821 1.821 0 00-1.04.706 1.752 1.752 0 00-.144 1.178l-.185.463a8.951 8.951 0 01-1.96.674l.224-.312a1.748 1.748 0 001.078-.436 1.8 1.8 0 00.42-1.18 1.831 1.831 0 00-1.179.441 1.752 1.752 0 00-.421 1.111l-.294.41a5.693 5.693 0 01-.215.037 2.2 2.2 0 00-.449.132.071.071 0 00.03.136.077.077 0 00.029-.006 2.039 2.039 0 01.417-.122c.067-.01.136-.022.2-.034l.485.233a1.763 1.763 0 00.907.773.693.693 0 10.306-1.01 1.749 1.749 0 00-1.156.133l-.349-.167a9.12 9.12 0 001.954-.675l.542.115a1.763 1.763 0 001.065.537.693.693 0 10.056-1.054 1.741 1.741 0 00-1.091.4l-.4-.084a10.858 10.858 0 001.489-.889c.143-.1.283-.206.419-.313l.482-.014a1.777 1.777 0 001.164.272.693.693 0 10-.2-1.038 1.747 1.747 0 00-.965.647l-.331.01a9.993 9.993 0 001.388-1.373l.534-.141a1.772 1.772 0 001.195 0 1.811 1.811 0 00.83-.942 1.831 1.831 0 00-1.26-.023 1.732 1.732 0 00-.791.849l-.381.1a8.5 8.5 0 001.1-1.807l.025-.059.447-.265a1.771 1.771 0 001.148-.327 1.8 1.8 0 00.537-1.132 1.83 1.83 0 00-1.197.339z" class="cls-4" transform="translate(-4315.296 -2891.445)"/><path id="패스_709" d="M3509.4 2915.618a2.206 2.206 0 00-.449-.132 4.206 4.206 0 01-.215-.037l-.295-.41a1.744 1.744 0 00-.42-1.111 1.832 1.832 0 00-1.18-.441 1.8 1.8 0 00.421 1.18 1.748 1.748 0 001.078.436l.224.312a8.962 8.962 0 01-1.959-.674l-.186-.463a1.74 1.74 0 00-.143-1.178 1.823 1.823 0 00-1.04-.706 1.8 1.8 0 00.127 1.245 1.74 1.74 0 00.942.678l.139.347a10.692 10.692 0 01-1.812-1.137l-.079-.553a1.744 1.744 0 00.142-1.178.692.692 0 10-1.016.309 1.732 1.732 0 00.754.881l.062.436a9.977 9.977 0 01-1.455-1.435l.045-.495a1.744 1.744 0 00.41-1.115.692.692 0 10-1.061.071 1.732 1.732 0 00.532 1.029l-.035.376a8.367 8.367 0 01-1.081-1.775l-.021-.045.189-.485a1.751 1.751 0 00.7-.96.692.692 0 10-1.038-.222 1.72 1.72 0 00.226 1.134l-.146.375a7.213 7.213 0 01-.52-2.136l.313-.372a1.765 1.765 0 00.975-.687 1.8 1.8 0 00.128-1.246 1.825 1.825 0 00-1.041.705 1.724 1.724 0 00-.151 1.147l-.236.282a7.719 7.719 0 01.179-2.156l.44-.267a1.771 1.771 0 001.145-.337 1.806 1.806 0 00.527-1.138 1.833 1.833 0 00-1.215.333 1.726 1.726 0 00-.514 1.037l-.346.209a9.76 9.76 0 01.668-1.866l.45-.173a1.775 1.775 0 001.188-.132 1.812 1.812 0 00.719-1.028 1.832 1.832 0 00-1.255.116 1.726 1.726 0 00-.69.931l-.336.13a12.46 12.46 0 01.679-1.2 1.91 1.91 0 001.116-.638 1.955 1.955 0 00.271-1.333 1.983 1.983 0 00-1.2.654 1.861 1.861 0 00-.285 1.208 12.744 12.744 0 00-.724 1.28l-.083-.4a1.724 1.724 0 00.414-1.081.692.692 0 10-1.062.047 1.752 1.752 0 00.532 1.063l.113.547a9.88 9.88 0 00-.647 1.8l-.131-.328a1.719 1.719 0 00.216-1.136.692.692 0 10-1.037.231 1.755 1.755 0 00.711.954l.193.482a8.069 8.069 0 00-.152.911 7.617 7.617 0 00-.03 1.312l-.26-.3a1.715 1.715 0 00-.165-1.145 1.823 1.823 0 00-1.05-.692 1.8 1.8 0 00.145 1.243 1.762 1.762 0 00.984.675l.363.423a7.385 7.385 0 00.513 2.1l-.312-.185a1.721 1.721 0 00-.524-1.032 1.831 1.831 0 00-1.217-.322 1.8 1.8 0 00.537 1.132 1.772 1.772 0 001.149.327l.446.265.026.059a8.477 8.477 0 001.1 1.807l-.381-.1a1.734 1.734 0 00-.791-.849 1.83 1.83 0 00-1.26.023 1.811 1.811 0 00.83.942 1.771 1.771 0 001.194 0l.534.141a9.993 9.993 0 001.388 1.373l-.331-.01a1.74 1.74 0 00-.965-.647.693.693 0 10-.2 1.038 1.777 1.777 0 001.164-.272l.482.014q.205.161.419.313a10.9 10.9 0 001.49.889l-.4.084a1.745 1.745 0 00-1.091-.4.694.694 0 10.056 1.054 1.763 1.763 0 001.065-.537l.542-.115a9.133 9.133 0 001.955.675l-.349.167a1.749 1.749 0 00-1.156-.133.693.693 0 10.307 1.01 1.758 1.758 0 00.906-.773l.486-.233.2.034a2.055 2.055 0 01.417.122.074.074 0 00.029.006.072.072 0 00.066-.042.071.071 0 00-.023-.111z" class="cls-4" transform="translate(-3496.748 -2891.445)"/><path id="패스_710" d="M4433.51 2943.958a.993.993 0 01-.284-.039 1.311 1.311 0 01-.6-.439 1.562 1.562 0 01.459-.076.978.978 0 01.283.04 1.3 1.3 0 01.6.438 1.557 1.557 0 01-.458.076zm2.061-1.117h-.047a1.312 1.312 0 01-.685-.285 1.33 1.33 0 01.666-.212h.045a1.282 1.282 0 01.687.285 1.326 1.326 0 01-.667.211zm-3.225-.459a1.3 1.3 0 01.312-.67 1.277 1.277 0 01.669-.323 1.1 1.1 0 01-.98.992zm1.955-.827a1.094 1.094 0 11.572-.47 1.31 1.31 0 01-.573.469zm3.107-.376a1.445 1.445 0 01-.563-.13 1.308 1.308 0 01.643-.373.875.875 0 01.169-.016 1.437 1.437 0 01.563.131 1.306 1.306 0 01-.641.373.923.923 0 01-.171.013zm-1.324-.977a1.3 1.3 0 01-.034-.738 1.272 1.272 0 01.443-.592 1.09 1.09 0 01-.409 1.329zm2.621-.83a1.71 1.71 0 01-.3-.03 1.3 1.3 0 01.538-.508 1.084 1.084 0 01.438-.083 1.7 1.7 0 01.3.029 1.3 1.3 0 01-.538.508 1.086 1.086 0 01-.438.082zm-1.24-.681a1.092 1.092 0 01.092-1.386 1.088 1.088 0 01-.092 1.386zm2.034-1.581a1.3 1.3 0 01.377-.636 1.284 1.284 0 01.7-.255 1.308 1.308 0 01-.376.637 1.281 1.281 0 01-.7.253zm-1.079-.37a1.3 1.3 0 01-.393-.627 1.252 1.252 0 01.1-.732 1.091 1.091 0 01.3 1.359zm1.48-2.142a1.092 1.092 0 11.58-.463 1.32 1.32 0 01-.58.465zm-1.142-.008a1.307 1.307 0 01-.573-.469 1.283 1.283 0 01-.143-.724 1.092 1.092 0 01.716 1.193zm-.4-2.15a1.316 1.316 0 01-.7-.26 1.3 1.3 0 01-.371-.639 1.1 1.1 0 011.066.9zm1.083-.36a1.091 1.091 0 11.4-.623 1.3 1.3 0 01-.402.623zm-1.975-1.519a1.188 1.188 0 01-.6-.14 1.3 1.3 0 01-.479-.564c.044 0 .087-.005.13-.005a1.193 1.193 0 01.6.141 1.289 1.289 0 01.478.564 1.92 1.92 0 01-.13.004zm1.132-.548a1.09 1.09 0 11.281-.683 1.289 1.289 0 01-.279.683zm-1.166-.742a1.473 1.473 0 01-.715-.468 1.453 1.453 0 01-.236-.816 1.227 1.227 0 01.951 1.284z" class="cls-2" transform="translate(-4417.723 -2919.033)"/><path id="패스_711" d="M3528.923 2943.891a1.558 1.558 0 01-.459-.076 1.307 1.307 0 01.6-.438.977.977 0 01.284-.039 1.547 1.547 0 01.458.076 1.3 1.3 0 01-.6.439 1 1 0 01-.283.038zm-2.061-1.117a1.324 1.324 0 01-.666-.212 1.31 1.31 0 01.685-.285h.046a1.331 1.331 0 01.666.212 1.31 1.31 0 01-.686.286zm3.224-.46a1.306 1.306 0 01-.668-.322.393.393 0 11.668.322zm-1.955-.827a1.094 1.094 0 11-.142-.724 1.3 1.3 0 01.143.724zm-3.108-.376a.929.929 0 01-.169-.015 1.285 1.285 0 01-.643-.372 1.451 1.451 0 01.565-.131.955.955 0 01.169.015 1.311 1.311 0 01.642.373 1.44 1.44 0 01-.564.13zm1.325-.977a1.3 1.3 0 01-.443-.592 1.284 1.284 0 01.034-.737 1.3 1.3 0 01.444.592 1.29 1.29 0 01-.035.737zm-2.62-.831a1.075 1.075 0 01-.437-.083 1.294 1.294 0 01-.539-.508 1.7 1.7 0 01.3-.029 1.074 1.074 0 01.437.083 1.3 1.3 0 01.539.508 1.741 1.741 0 01-.3.026zm1.24-.679a1.089 1.089 0 11.2-.71 1.288 1.288 0 01-.2.71zm-2.035-1.581a1.1 1.1 0 11-.377-.636 1.288 1.288 0 01.377.636zm1.08-.371a1.09 1.09 0 11.392-.626 1.286 1.286 0 01-.392.626zm-1.481-2.142a1.1 1.1 0 11-.153-.722 1.287 1.287 0 01.152.722zm1.142-.007a1.094 1.094 0 11.573-.469 1.31 1.31 0 01-.573.469zm.4-2.15a1.292 1.292 0 01.371-.639 1.317 1.317 0 01.695-.261 1.3 1.3 0 01-.371.639 1.315 1.315 0 01-.693.261zm-1.083-.36a1.092 1.092 0 11.09-.732 1.29 1.29 0 01-.088.732zm1.974-1.519h-.129a1.3 1.3 0 01.479-.565 1.188 1.188 0 01.6-.14h.129a1.3 1.3 0 01-.478.565 1.192 1.192 0 01-.598.141zm-1.132-.548a1.092 1.092 0 11.218-.705 1.3 1.3 0 01-.216.706zm1.167-.742a1.227 1.227 0 11.713-.467 1.469 1.469 0 01-.713.463z" class="cls-2" transform="translate(-3518.71 -2918.967)"/><g id="그룹_1515" transform="translate(9.089 8.535)"><path id="패스_712" d="M3998.769 2929.143a17.27 17.27 0 011.334-1.2 15.565 15.565 0 002.542-2.466 3.66 3.66 0 00.689-2.192 3.131 3.131 0 00-.947-2.32 3.626 3.626 0 00-2.641-.927 3.726 3.726 0 00-2.593.9 3.518 3.518 0 00-1.123 2.4l-.353.048.322.32h2.074l.023-.315a1.724 1.724 0 01.513-1.226 1.593 1.593 0 011.108-.407 1.571 1.571 0 011.159.392 1.469 1.469 0 01.4 1.1 2.36 2.36 0 01-.512 1.5 13.607 13.607 0 01-2.1 1.954 11.319 11.319 0 00-2.231 2.194 3.5 3.5 0 00-.648 2l-.322.02.322.319h7.582v-1.907l-.322-.319-4.449.319a4.61 4.61 0 01.173-.187z" class="cls-4" transform="translate(-3995.459 -2919.719)"/><path id="패스_713" d="M3998.448 2903.768a17.16 17.16 0 011.334-1.2 15.6 15.6 0 002.542-2.466 3.664 3.664 0 00.689-2.192 3.131 3.131 0 00-.947-2.32 3.627 3.627 0 00-2.641-.927 3.724 3.724 0 00-2.592.9 3.516 3.516 0 00-1.123 2.4l-.031.367h2.074l.023-.314a1.728 1.728 0 01.513-1.226 1.592 1.592 0 011.107-.408 1.571 1.571 0 011.159.392 1.469 1.469 0 01.4 1.1 2.362 2.362 0 01-.511 1.5 13.63 13.63 0 01-2.1 1.954 11.267 11.267 0 00-2.23 2.195 3.49 3.49 0 00-.649 2v.339h7.582v-1.906h-4.771c.044-.056.102-.117.172-.188z" class="cls-2" transform="translate(-3995.459 -2894.663)"/></g></g></g></svg>