<svg xmlns="http://www.w3.org/2000/svg" width="113" height="112.998" viewBox="0 0 113 112.998"><defs><clipPath id="clip-path"><path id="SVGID" fill="none" d="M295.918 299.239a56.5 56.5 0 1056.5-56.5 56.5 56.5 0 00-56.5 56.5" transform="translate(-295.918 -242.742)"/></clipPath><style>.cls-5{fill:#fff}</style></defs><g id="icon_bana" transform="translate(-295.918 -242.741)"><path id="패스_898" fill="#31ccf2" d="M352.418 355.739a56.5 56.5 0 10-56.5-56.5 56.5 56.5 0 0056.5 56.5"/><g id="그룹_1659" transform="translate(295.918 242.743)"><g id="그룹_1658" clip-path="url(#clip-path)"><g id="그룹_1657" transform="translate(23.275 6.281)"><g id="그룹_1656"><path id="패스_899" fill="#ffff1c" d="M350 263.19a5.86 5.86 0 00-.938-3.6 3.915 3.915 0 00-1.088-.888 21.014 21.014 0 007.809-3.141 5.03 5.03 0 001.5-6.544 4.159 4.159 0 00-5.982-1.642c-6.806 4.462-13.957.673-14.318.478a4.191 4.191 0 00-5.858 2.05 5 5 0 001.866 6.433 24.228 24.228 0 007.526 2.442 4.711 4.711 0 00-.9.8 7.541 7.541 0 00-1.569 2.924c-7.786 1.094-17.554 5.685-23.217 20.51-5.4 14.127.834 35.1 2.265 36.322 0 0-14.081 27.883-.843 48.24 8.8 13.535 28.712 24.188 46.908-.094 11.539-15.395 13.349-48.407 13.36-58.242-.003-5.832.448-43.027-26.521-46.048z" transform="translate(-310.574 -246.697)"/><g id="그룹_1654" transform="translate(18.015 60.275)"><path id="패스_900" d="M321.939 300.855a.843.843 0 011.463-.734c2.049 2.407 3.371 2.724 3.978 2.695a1.164 1.164 0 00.924-.473c.4-.569-.246-1.579-1.02-2.277a9.661 9.661 0 01-2.068-4.023.863.863 0 01.6-1.031.843.843 0 011.029.6 8.288 8.288 0 001.571 3.2c1.652 1.493 2.149 3.259 1.266 4.505a2.857 2.857 0 01-2.225 1.181c-1.623.072-3.417-1.034-5.337-3.284a.833.833 0 01-.178-.362" transform="translate(-321.918 -278.576)"/><path id="패스_901" d="M340.93 300.494a.824.824 0 01-.149.418c-1.68 2.431-3.354 3.711-4.975 3.8a2.831 2.831 0 01-2.333-.953c-1-1.147-.686-2.957.805-4.605a8.271 8.271 0 001.243-3.344.836.836 0 01.962-.7.859.859 0 01.7.964 9.755 9.755 0 01-1.656 4.208c-.7.772-1.242 1.841-.786 2.368a1.141 1.141 0 00.967.376c.607-.032 1.89-.48 3.689-3.074a.842.842 0 011.532.538" transform="translate(-315.464 -278.507)"/><path id="패스_902" d="M330.805 287.418a2.571 2.571 0 01-2.512-1.656.844.844 0 011.6-.549.9.9 0 00.916.521 1.081 1.081 0 001.029-.578.849.849 0 011.109-.421.832.832 0 01.44 1.085 2.766 2.766 0 01-2.577 1.6" transform="translate(-318.194 -284.652)"/></g><g id="그룹_1655" transform="translate(15.478 49.498)"><path id="패스_903" d="M330.469 285.82a5.4 5.4 0 11-2.2-7.307 5.395 5.395 0 012.2 7.307" class="cls-5" transform="translate(-320.32 -277.866)"/><path id="패스_904" d="M327.43 283.771a2.967 2.967 0 11-1.207-4.023 2.966 2.966 0 011.207 4.023" transform="translate(-319.422 -276.969)"/><path id="패스_905" d="M343.272 286.816a5.4 5.4 0 11-2.188-7.311 5.4 5.4 0 012.188 7.311" class="cls-5" transform="translate(-312.79 -277.283)"/><path id="패스_906" d="M340.209 284.743a2.944 2.944 0 11-1.2-3.989 2.946 2.946 0 011.2 3.989" transform="translate(-311.882 -276.375)"/></g></g><path id="패스_907" d="M333.238 380a.557.557 0 01-.346-.146.671.671 0 01-.071-.892l.491-.626A111.659 111.659 0 00357.5 310.7c.832-42.684-16.808-49.114-16.986-49.174a.642.642 0 01-.386-.789.58.58 0 01.731-.421c.762.251 18.661 6.664 17.815 50.41a113.021 113.021 0 01-24.469 68.43l-.484.619a.573.573 0 01-.48.224" class="cls-5" transform="translate(-297.572 -238.703)"/></g></g></g></g></svg>