<svg xmlns="http://www.w3.org/2000/svg" width="12" height="12" viewBox="0 0 12 12"><path fill="none" d="M0 0h12v12H0z"/><path fill="#be5050" d="M10.451 2.101a2.81 2.81 0 00-2.05-.724 2.328 2.328 0 00-.739.126 2.99 2.99 0 00-.7.339 8.17 8.17 0 00-.558.4 5.45 5.45 0 00-.444.4 5.38 5.38 0 00-.444-.4q-.234-.186-.557-.4a2.987 2.987 0 00-.7-.339 2.327 2.327 0 00-.738-.126 2.81 2.81 0 00-2.05.724A2.678 2.678 0 00.729 4.11a2.561 2.561 0 00.137.806 3.546 3.546 0 00.313.707 5.179 5.179 0 00.4.57q.222.278.324.383a1.949 1.949 0 00.16.152l3.644 3.516a.367.367 0 00.514 0l3.638-3.5a3.819 3.819 0 001.337-2.628 2.68 2.68 0 00-.742-2.009zm0 0"/></svg>