<svg xmlns="http://www.w3.org/2000/svg" width="15" height="25" viewBox="0 0 15 25"><path fill="#fff" d="M14.318 10.545h-2.045V5.772a4.773 4.773 0 00-9.546 0v4.773H.681a.682.682 0 00-.682.682 7.51 7.51 0 006.818 7.469v1.486h-.682a3.413 3.413 0 00-3.409 3.409.682.682 0 00.682.682h8.182a.682.682 0 00.682-.682 3.413 3.413 0 00-3.409-3.409h-.682v-1.484a7.51 7.51 0 006.818-7.469.682.682 0 00-.682-.682zm-3.526 12.364H4.207a2.049 2.049 0 011.929-1.364h2.727a2.049 2.049 0 011.929 1.364zm-6.7-13.727h1.136a.682.682 0 100-1.364H4.089V6.454h1.136a.682.682 0 100-1.364H4.157a3.414 3.414 0 011.295-2.044v.453a.682.682 0 001.364 0V2.431a3.419 3.419 0 011.364 0v1.067a.682.682 0 001.364 0v-.453a3.415 3.415 0 011.3 2.044H9.776a.682.682 0 000 1.364h1.136v1.364H9.776a.682.682 0 000 1.364h1.136v1.364H4.089zm6.75 2.727a3.409 3.409 0 01-6.681 0zm-3.34 5.455a6.145 6.145 0 01-6.1-5.455h1.375a4.773 4.773 0 009.447 0h1.375a6.145 6.145 0 01-6.1 5.455zm0 0"/><path fill="none" d="M0 0h15v25H0z"/></svg>