<svg xmlns="http://www.w3.org/2000/svg" width="30" height="30" viewBox="0 0 30 30"><g transform="translate(-310 -792)"><path fill="none" d="M310 792h30v30h-30z"/><circle cx="15" cy="15" r="15" fill="#dea6a6" transform="translate(310 792)"/><path fill="#fff" d="M324.996 800a7.008 7.008 0 00-7 7v5.5a1.5 1.5 0 001.5 1.5h2a.5.5 0 00.5-.5v-5a.5.5 0 00-.5-.5h-2c-.04 0-.079 0-.119.006v-.787a5.621 5.621 0 1111.238 0v.787c-.04 0-.079-.006-.119-.006h-2a.5.5 0 00-.5.5v5a.5.5 0 00.5.5h2a1.5 1.5 0 001.5-1.5V807a7.008 7.008 0 00-7-7z"/></g></svg>