<svg xmlns="http://www.w3.org/2000/svg" width="113" height="113" viewBox="0 0 113 113"><defs><clipPath id="clip-path"><path id="SVGID" d="M554.115 306.862a56.5 56.5 0 0056.1 56.5h.8a56.5 56.5 0 10-56.9-56.5" transform="translate(-554.115 -250.364)"/></clipPath><style>.cls-3{fill:#2bcc1c}.cls-4{fill:#2bab1c}.cls-7{fill:#fff}</style></defs><g id="icon_water"><g id="그룹_1680"><path id="패스_941" fill="#fe59b8" d="M610.615 363.364a56.5 56.5 0 10-56.5-56.5 56.5 56.5 0 0056.5 56.5" transform="translate(-554.115 -250.364)"/></g><g id="그룹_1682"><path id="SVGID-2" d="M554.115 306.862a56.5 56.5 0 0056.1 56.5h.8a56.5 56.5 0 10-56.9-56.5" transform="translate(-554.115 -250.364)"/><g id="그룹_1681" clip-path="url(#clip-path)"><path id="패스_942" d="M594.822 270.139a28.365 28.365 0 01-13.216-3.346 2.353 2.353 0 012.366-4.067c.418.241 10.159 5.72 20.17.391a2.353 2.353 0 112.209 4.154 24.27 24.27 0 01-11.529 2.868" class="cls-3" transform="translate(-538.635 -243.282)"/><path id="패스_943" d="M590.007 281.119a2.355 2.355 0 01-2.349-2.214l-.689-11.748a2.353 2.353 0 014.7-.273l.689 11.745a2.356 2.356 0 01-2.211 2.487h-.14" class="cls-3" transform="translate(-534.797 -241.953)"/><path id="패스_944" d="M605.2 263.139a2.275 2.275 0 00-1.039.06 2.039 2.039 0 00-1.507 2.328 5.59 5.59 0 004.64 3.929c.032 0 .065.006.1.008a5.275 5.275 0 00-.214-4.505 2.707 2.707 0 00-1.977-1.82m-4.763 12.023a8.447 8.447 0 01-5.358-3.986.942.942 0 011.62-.961c.117.2 2.871 4.7 6.9 2.576a12.226 12.226 0 002.482-1.655 7.409 7.409 0 01-5.279-5.28 3.912 3.912 0 012.828-4.462 4.336 4.336 0 015.282 2.838 7.82 7.82 0 01.621 4.839 7.412 7.412 0 003.254-4.123 5.141 5.141 0 00-.469-5.271 10.185 10.185 0 00-7.564-3.513.942.942 0 01-.16-1.877 12 12 0 019.238 4.272 7 7 0 01.7 7.092c-1.7 4.232-4.177 5.436-6.055 5.666a11.643 11.643 0 01-4 3.138 6.2 6.2 0 01-4.042.707" class="cls-3" transform="translate(-530.102 -248.068)"/><path id="패스_945" d="M609.063 272.056s-27.55-5.642-37.845 20.513c-5.3 13.465-2.608 29.511-.961 30.57 0 0-12.19 21.594 3.492 39.776 10.426 12.09 38.514 20.383 57.52-3.281 12.042-14.993 10.624-41.691 10.344-47.126s-3.249-33.726-32.55-40.453" class="cls-3" transform="translate(-547.277 -237.909)"/><path id="패스_946" d="M620.221 312.507c-.222-5.439-.935-33.722-24.191-40.454a23.932 23.932 0 00-7.178-.418 18.958 18.958 0 012.79.418c23.257 6.732 23.97 35.015 24.191 40.454s2.994 32.133-6.567 47.126c-6.347 9.957-13.533 14.242-20.345 14.98 8.028.869 17-2.854 24.734-14.98 9.555-14.993 6.787-41.69 6.565-47.126" class="cls-4" transform="translate(-533.688 -237.908)"/><path id="패스_947" d="M605.714 312.507c-.117-5.439-.492-33.722-12.668-40.454a6.824 6.824 0 00-3.759-.418 5.784 5.784 0 011.464.418c12.174 6.732 12.547 35.015 12.665 40.454s1.566 32.133-3.438 47.126c-3.324 9.957-7.086 14.242-10.654 14.98 4.207.869 8.9-2.854 12.951-14.98 5-14.993 3.554-41.69 3.44-47.126" class="cls-4" transform="translate(-533.432 -237.908)"/><path id="패스_948" d="M570.9 312.507c.221-5.439.935-33.722 24.191-40.454a23.94 23.94 0 017.178-.418 18.909 18.909 0 00-2.79.418c-23.256 6.732-23.97 35.015-24.189 40.454s-2.992 32.133 6.567 47.126c6.346 9.957 13.532 14.242 20.345 14.98-8.029.869-17-2.854-24.734-14.98-9.557-14.993-6.791-41.69-6.567-47.126" class="cls-4" transform="translate(-544.562 -237.908)"/><path id="패스_949" d="M580.433 312.507c.116-5.439.489-33.722 12.666-40.454a6.828 6.828 0 013.759-.418 5.756 5.756 0 00-1.463.418c-12.176 6.732-12.547 35.015-12.665 40.454s-1.567 32.133 3.438 47.126c3.322 9.957 7.084 14.242 10.653 14.98-4.2.869-8.9-2.854-12.951-14.98-5-14.993-3.554-41.69-3.438-47.126" class="cls-4" transform="translate(-538.804 -237.908)"/><path id="패스_950" fill="#422124" d="M592.1 307.458a9.285 9.285 0 009.617-8.934l-18.544-.683a9.273 9.273 0 008.927 9.617" transform="translate(-537.028 -222.445)"/><path id="패스_951" fill="#ff595c" d="M597 303.351a10.235 10.235 0 00-3.734-1.714 8.977 8.977 0 00-7.977 1.633 9.24 9.24 0 0011.71.081" transform="translate(-535.78 -220.383)"/><path id="패스_952" d="M588.786 297.288a3.649 3.649 0 11-1.741-4.855 3.648 3.648 0 011.741 4.855" class="cls-7" transform="translate(-537.811 -225.832)"/><path id="패스_953" d="M586.949 296.139a2.206 2.206 0 11-1.049-2.939 2.206 2.206 0 011.053 2.939" transform="translate(-537.277 -225.299)"/><path id="패스_954" d="M598.334 297.528a3.648 3.648 0 11-1.739-4.858 3.65 3.65 0 011.739 4.858" class="cls-7" transform="translate(-532.196 -225.692)"/><path id="패스_955" d="M596.476 296.364a2.19 2.19 0 11-1.043-2.917 2.19 2.19 0 011.043 2.917" transform="translate(-531.656 -225.152)"/><path id="패스_956" d="M577.4 310.306s3.589-.143 5.252-1.328 3.673-1.721 4.769-.507 1.6 4.221-4.64 7.521" class="cls-3" transform="translate(-540.423 -216.597)"/><path id="패스_957" d="M583.041 316.956a.705.705 0 01-.329-1.329c2.89-1.528 4.631-3.2 4.9-4.718a1.971 1.971 0 00-.453-1.706c-.8-.891-2.5-.333-3.837.608-1.812 1.293-5.476 1.453-5.63 1.456a.686.686 0 01-.735-.675.7.7 0 01.677-.732c.942-.041 3.653-.329 4.872-1.2 2.246-1.591 4.482-1.753 5.7-.4a3.4 3.4 0 01.8 2.9c-.356 2.009-2.252 3.935-5.633 5.722a.694.694 0 01-.329.081" transform="translate(-540.684 -216.855)"/><path id="패스_958" d="M603.367 310.857s-3.579-.313-5.185-1.572-3.586-1.887-4.74-.729-1.8 4.143 4.285 7.731" class="cls-3" transform="translate(-531.433 -216.502)"/><path id="패스_959" d="M597.986 317.252a.7.7 0 01-.356-.1c-3.3-1.944-5.1-3.954-5.357-5.977a3.389 3.389 0 01.931-2.857c1.277-1.289 3.508-1.027 5.674.672 1.183.926 3.875 1.34 4.812 1.424a.7.7 0 01.642.762.713.713 0 01-.765.643c-.156-.013-3.808-.346-5.558-1.72-1.285-1-2.962-1.637-3.8-.786a1.985 1.985 0 00-.53 1.68c.2 1.525 1.857 3.281 4.674 4.944a.707.707 0 01-.36 1.315" transform="translate(-531.694 -216.761)"/><path id="사각형_1029" d="M0 0h2.993v3.294H0z" class="cls-7" transform="translate(51.519 75.661)"/><path id="사각형_1030" d="M0 0h2.993v3.294H0z" class="cls-7" transform="translate(56.011 75.661)"/></g></g></g></svg>