<svg xmlns="http://www.w3.org/2000/svg" width="20.3" height="20.3" viewBox="0 0 20.3 20.3"><defs><style>.cls-2{fill:#333;stroke:#333;stroke-width:.3px}</style></defs><g id="icon_setting" transform="translate(.15 .15)"><path id="사각형_976" fill="none" d="M0 0h20v20H0z"/><g id="그룹_1567"><path id="패스_776" d="M10.628 20H9.372a1.843 1.843 0 01-1.841-1.841v-.425a8.074 8.074 0 01-1.254-.52l-.3.3a1.841 1.841 0 01-2.6 0l-.887-.887a1.841 1.841 0 010-2.6l.3-.3a8.075 8.075 0 01-.52-1.254h-.429A1.843 1.843 0 010 10.628V9.372a1.843 1.843 0 011.841-1.841h.425a8.076 8.076 0 01.52-1.254l-.3-.3a1.841 1.841 0 010-2.6l.887-.887a1.841 1.841 0 012.6 0l.3.3a8.082 8.082 0 011.254-.52v-.429A1.843 1.843 0 019.372 0h1.255a1.843 1.843 0 011.841 1.841v.425a8.074 8.074 0 011.254.52l.3-.3a1.841 1.841 0 012.6 0l.887.887a1.841 1.841 0 010 2.6l-.3.3a8.075 8.075 0 01.52 1.254h.425A1.843 1.843 0 0120 9.372v1.255a1.843 1.843 0 01-1.841 1.841h-.425a8.076 8.076 0 01-.52 1.254l.3.3a1.841 1.841 0 010 2.6l-.887.887a1.841 1.841 0 01-2.6 0l-.3-.3a8.082 8.082 0 01-1.254.52v.425A1.843 1.843 0 0110.628 20zm-4.155-4.017a6.907 6.907 0 001.79.743.586.586 0 01.44.567v.865a.67.67 0 00.669.669h1.255a.67.67 0 00.669-.669v-.865a.586.586 0 01.44-.567 6.907 6.907 0 001.79-.743.586.586 0 01.713.09l.613.613a.669.669 0 00.946 0l.888-.888a.669.669 0 000-.946l-.613-.613a.586.586 0 01-.09-.713 6.906 6.906 0 00.743-1.79.586.586 0 01.567-.439h.865a.67.67 0 00.669-.669V9.372a.67.67 0 00-.669-.669h-.865a.586.586 0 01-.567-.439 6.907 6.907 0 00-.743-1.79.586.586 0 01.09-.713l.613-.613a.669.669 0 000-.946l-.886-.888a.669.669 0 00-.946 0l-.613.613a.586.586 0 01-.713.09 6.907 6.907 0 00-1.79-.743.586.586 0 01-.44-.567v-.866a.67.67 0 00-.669-.669H9.372a.67.67 0 00-.669.669v.865a.586.586 0 01-.44.567 6.907 6.907 0 00-1.79.743.586.586 0 01-.713-.09l-.613-.613a.669.669 0 00-.946 0l-.887.887a.669.669 0 000 .946l.613.613a.586.586 0 01.09.713 6.905 6.905 0 00-.743 1.79.586.586 0 01-.567.439h-.866a.67.67 0 00-.669.669v1.255a.67.67 0 00.669.669h.865a.586.586 0 01.567.439 6.907 6.907 0 00.743 1.79.586.586 0 01-.09.713l-.613.613a.669.669 0 000 .946l.888.888a.669.669 0 00.946 0l.613-.613a.589.589 0 01.713-.09z" class="cls-2"/><path id="패스_777" d="M149.283 153.966a4.683 4.683 0 114.683-4.683 4.688 4.688 0 01-4.683 4.683zm0-8.105a3.422 3.422 0 103.422 3.422 3.426 3.426 0 00-3.422-3.422z" class="cls-2" transform="translate(-139.283 -139.283)"/></g></g></svg>