<svg xmlns="http://www.w3.org/2000/svg" width="90" height="90" viewBox="0 0 90 90"><defs><clipPath id="clip-path"><path id="SVGID" fill="none" d="M0 0h78.182v71.818H0z"/></clipPath><style>.cls-3{fill:#231815}.cls-4{fill:#fff}</style></defs><g id="img_strawberry" transform="translate(-67 -34)"><circle id="타원_94" cx="45" cy="45" r="45" fill="#e7161a" transform="translate(67 34)"/><g id="그룹_1557" transform="translate(75.182 43.091)"><path id="패스_773" d="M2997.111-711.663a8.688 8.688 0 009.723-7.491l-17.214-2.232a8.683 8.683 0 007.491 9.723z" class="cls-3" transform="translate(-2961.456 769.254)"/><path id="패스_774" d="M3014.6-686.274a9.689 9.689 0 00-3.332-1.915 8.392 8.392 0 00-7.573.838 8.65 8.65 0 005 2.454 8.643 8.643 0 005.905-1.377z" class="cls-4" transform="translate(-2973.044 742.489)"/><g id="그룹_1554" transform="translate(24.5 37.643)"><path id="패스_775" d="M2977.385-771.665a4.125 4.125 0 01-5.651 1.456 4.129 4.129 0 01-1.456-5.659 4.128 4.128 0 015.657-1.453 4.125 4.125 0 011.45 5.656z" class="cls-4" transform="translate(-2969.702 777.899)"/><path id="패스_776" d="M2983.367-765.117a2.492 2.492 0 01-3.418.879 2.493 2.493 0 01-.881-3.423 2.5 2.5 0 013.418-.882 2.5 2.5 0 01.881 3.426z" class="cls-3" transform="translate(-2977.087 770.518)"/><path id="패스_777" d="M3071.668-760.573a4.124 4.124 0 01-5.654 1.453 4.134 4.134 0 01-1.457-5.653 4.131 4.131 0 015.658-1.456 4.125 4.125 0 011.453 5.656z" class="cls-4" transform="translate(-3046.925 768.811)"/><path id="패스_778" d="M3077.713-753.942a2.479 2.479 0 01-3.392.872 2.474 2.474 0 01-.873-3.4 2.485 2.485 0 013.4-.869 2.48 2.48 0 01.865 3.397z" class="cls-3" transform="translate(-3054.39 761.34)"/></g><g id="그룹_1556"><g id="그룹_1555" clip-path="url(#clip-path)"><path id="패스_779" d="M2892.2-949.67a58.294 58.294 0 00-.7-1 20.8 20.8 0 004.85-3.509 9.849 9.849 0 01-5.169-1.082c-1.707-.891-5.912-3.445-8.122-3.724a7.3 7.3 0 00-3.293.3c2.151-3.575 3.982-7.413 3.982-7.413-1.34-1.6-4.526-.641-4.526-.641-.042 1.887-1.217 4.968-2.25 7.331a7.1 7.1 0 00-2.362-4.536c-1.633-1.5-6.29-3.074-8.084-3.8a9.942 9.942 0 01-4.157-3.254 20.6 20.6 0 00.618 6.592 8.078 8.078 0 00-2.3-.232c-9.412.266-22.257 3.81-30 19.2-6.249 12.435-2.161 28.29.134 32.046-2.357 3.531-14.066 22.916-.859 41.468a37.02 37.02 0 0026.74 15q1.176.09 2.466.092c7.515 0 17.826-2.554 28.112-13.212 12.657-13.108 12.986-36.938 13.111-45.909.013-.9.021-1.627.044-2.154l.013-.3c.53-12.728-2.248-23.247-8.248-31.263zm6.415 31.189l-.013.3c-.021.542-.032 1.288-.045 2.2-.121 8.774-.444 32.074-12.6 44.665-8.684 8.993-18.755 13.349-29.127 12.565a35.621 35.621 0 01-25.388-14.24c-13.746-19.306 1.077-39.675 1.227-39.881l.43-.7-.588-.558c-1.407-1.339-6.6-17.758-.2-30.485 7.341-14.58 19.507-17.939 28.425-18.19h.232a5.877 5.877 0 012.893.723 8.854 8.854 0 001.9 2.579 13.821 13.821 0 002.133 1.586c-1.7.724-3.572 1.789-4.53 2.265a8.221 8.221 0 01-4.311.828s4.412 4.682 9.048 4.175a15.56 15.56 0 007.23-3.156c.134.672.292 1.354.478 2.011a14.205 14.205 0 002.058 5.688c2.608 3.873 9.027 4.229 9.027 4.229a8.245 8.245 0 01-2.157-3.838c-.2-.85-.51-2.433-.911-3.946a12.893 12.893 0 001.578.311 9.422 9.422 0 004.377-.577c.3.406.613.853.955 1.355 5.746 7.666 8.396 17.795 7.877 30.091z" class="cls-4" transform="translate(-2825.608 973.697)"/></g></g></g></g></svg>