<svg xmlns="http://www.w3.org/2000/svg" width="84" height="59" viewBox="0 0 84 59"><defs><style>.cls-1{fill:#e7161a}</style></defs><g id="intro_logo" transform="translate(-380.315 -148.346)"><path id="패스_749" d="M414.286 169.016v-4.3a2.615 2.615 0 00-2.7-2.933 2.658 2.658 0 00-2.7 2.933v14.165a2.827 2.827 0 002.7 2.933 2.775 2.775 0 002.7-2.933v-9.865z" class="cls-1" transform="translate(-4.17 -1.935)"/><path id="패스_750" d="M452.986 182.158v-4.3a2.615 2.615 0 00-2.7-2.933 2.658 2.658 0 00-2.7 2.933v14.165a2.827 2.827 0 002.7 2.933 2.775 2.775 0 002.7-2.933v-9.865z" class="cls-1" transform="translate(-9.82 -3.828)"/><path id="패스_751" d="M477.75 155.578v-4.3a2.615 2.615 0 00-2.7-2.933 2.658 2.658 0 00-2.7 2.933v14.165a2.827 2.827 0 002.7 2.933 2.775 2.775 0 002.7-2.933v-9.865z" class="cls-1" transform="translate(-13.435)"/><path id="패스_752" d="M465.7 162.794h.019a2.614 2.614 0 002.926-2.707 2.657 2.657 0 00-2.926-2.707h-6.2a2.826 2.826 0 00-2.925 2.707 2.774 2.774 0 002.925 2.707h6.181z" class="cls-1" transform="translate(-11.136 -1.301)"/><path id="패스_753" d="M471.148 153.794h.02a2.614 2.614 0 002.926-2.707 2.657 2.657 0 00-2.926-2.707h-11.645a2.826 2.826 0 00-2.926 2.707 2.774 2.774 0 002.926 2.707h11.625z" class="cls-1" transform="translate(-11.135 -.005)"/><path id="패스_754" d="M467.611 194.671s-5.108-2.243-8.466 2a7.106 7.106 0 00-.833 5.591 6.51 6.51 0 00-1.376 8.186c1.53 2.762 6.378 5.334 11.345 1.676 3.145-2.32 4.008-7.583 4.19-8.62a7.843 7.843 0 00-4.859-8.831" class="cls-1" transform="translate(-11.051 -6.587)"/><path id="패스_755" d="M469.428 203.926l-5.719-3.152a.594.594 0 00-.6.01.6.6 0 00-.3.52v6.3a.6.6 0 00.3.518.6.6 0 00.6.01l5.719-3.153a.6.6 0 000-1.056" class="cls-1" transform="translate(-12.044 -7.54)"/><path id="패스_756" d="M417.093 177.377a2.811 2.811 0 102.811-2.817 2.815 2.815 0 00-2.811 2.817" class="cls-1" transform="translate(-5.369 -3.776)"/><path id="패스_757" d="M460.937 169.355a2.87 2.87 0 102.869-2.875 2.874 2.874 0 00-2.869 2.875" class="cls-1" transform="translate(-11.769 -2.612)"/><path id="패스_758" d="M402.889 164.276c-8.342 0-10.093 4.871-10.093 8.957s1.751 8.959 10.093 8.959a1.23 1.23 0 001.227-1.231v-15.453a1.23 1.23 0 00-1.227-1.232" class="cls-1" transform="translate(-1.822 -2.294)"/><path id="패스_759" d="M387.763 173.233c0-2.75.8-5.854 3.873-7.59v-.134a1.23 1.23 0 00-1.228-1.233c-8.341 0-10.093 4.872-10.093 8.957s1.752 8.959 10.093 8.959a1.23 1.23 0 001.228-1.231v-.134c-3.069-1.738-3.873-4.838-3.873-7.594" class="cls-1" transform="translate(0 -2.294)"/><path id="패스_760" d="M404.116 212.065a2.568 2.568 0 01-1.439-4.694l4.239-2.877-4.312-3.149a2.573 2.573 0 01.111-4.228l3.993-2.6-4.012-2.67a2.566 2.566 0 012.834-4.278l7.259 4.83a2.571 2.571 0 01-.019 4.291l-4.144 2.7 4.255 3.108a2.571 2.571 0 01-.073 4.2l-7.259 4.925a2.544 2.544 0 01-1.434.442" class="cls-1" transform="translate(-3.1 -5.587)"/><path id="패스_761" d="M442.761 175.651a.854.854 0 00-.773-.491h-14.832a.855.855 0 00-.854.856v17.977a.853.853 0 001.512.545l14.833-17.976a.857.857 0 00.115-.91" class="cls-1" transform="translate(-6.713 -3.862)"/><path id="패스_762" d="M471.43 175.3h-12.206a.855.855 0 00-.854.856v12.234a.855.855 0 00.854.856h12.206a.855.855 0 00.854-.856v-12.237a.855.855 0 00-.854-.856" class="cls-1" transform="translate(-11.394 -3.882)"/></g></svg>