<svg id="Layer_1" data-name="Layer 1" xmlns="http://www.w3.org/2000/svg" viewBox="0 0 155 170"><defs><style>.cls-1{fill:#fff}.cls-2{fill:red}.cls-4{fill:#241714}</style></defs><path class="cls-1" d="M155.5 78.4c0 41.4-31.9 75.3-72.3 78-1.5 3-5.2 9.1-8.4 13.9-4.3-8.8-5.9-11.2-7.6-14.5C29.5 150.5.5 117.9.5 78.4.5 35.3 35.2.3 78 .3s77.5 35 77.5 78.1z" transform="translate(-.5 -.3)"/><g id="character01"><path id="Path_737" data-name="Path 737" class="cls-2" d="M111.7 53.1c0 .1-7.8-1.5-8-2.9-3-2.2-9.7-6.5-10.1-7.9a25.1 25.1 0 00-21.5 14.2c-5 9.7-1 21.8.1 22.7S60.7 94.5 71 108.5c6.9 9.3 24.9 16.4 40.9-.3 10.1-10.6 9.6-30.4 9.8-34.4s.9-13.5-5.7-21.9a10.6 10.6 0 01-4.3 1.2" transform="translate(-.5 -.3)"/><path id="Path_738" data-name="Path 738" d="M93.2 76.3a6.9 6.9 0 007.3-5.7l-12.7-1.1a5.9 5.9 0 004.9 6.8h.5" transform="translate(-.5 -.3)" fill="#422124"/><path id="Path_739" data-name="Path 739" class="cls-1" d="M97.6 75.1a7 7 0 00-2.4-1.3 6.2 6.2 0 00-5.6.9 6.2 6.2 0 003.6 1.6 6.8 6.8 0 004.4-1.2" transform="translate(-.5 -.3)"/><path id="Path_740" data-name="Path 740" class="cls-1" d="M90.9 66.5a3.3 3.3 0 01-4.2 1.3 3 3 0 01-1.2-3.9v-.2a3.2 3.2 0 014.2-1.2 2.8 2.8 0 011.3 3.8v.2" transform="translate(-.5 -.3)"/><path id="Path_741" data-name="Path 741" class="cls-4" d="M89.8 66a1.8 1.8 0 01-2.5.7 1.7 1.7 0 01-.7-2.3.1.1 0 01.1-.1 1.9 1.9 0 012.5-.8 1.9 1.9 0 01.7 2.4h-.1" transform="translate(-.5 -.3)"/><path id="Path_742" data-name="Path 742" class="cls-1" d="M103.3 67.5a3.2 3.2 0 01-4.2 1.2 2.7 2.7 0 01-1.1-3.8c0-.1 0-.2.1-.2a3.2 3.2 0 014.2-1.3 2.9 2.9 0 011.1 3.9c0 .1-.1.1-.1.2" transform="translate(-.5 -.3)"/><path id="Path_743" data-name="Path 743" class="cls-4" d="M102.3 66.9a2.1 2.1 0 01-2.6.8 1.8 1.8 0 01-.7-2.3v-.2a1.9 1.9 0 012.5-.7 1.6 1.6 0 01.7 2.3" transform="translate(-.5 -.3)"/><path id="Path_746" data-name="Path 746" class="cls-1" d="M107.2 99.6a2.2 2.2 0 01-2.1 2.1 1.8 1.8 0 01-2-1.7v-.2a2.2 2.2 0 012-2.1 2 2 0 012.1 1.8" transform="translate(-.5 -.3)"/><path id="Path_747" data-name="Path 747" class="cls-1" d="M111.4 89.1a2.2 2.2 0 01-2 2.1 1.9 1.9 0 01-2.1-1.8 2.2 2.2 0 012.1-2.1 1.8 1.8 0 012 1.7v.2" transform="translate(-.5 -.3)"/><path id="Path_748" data-name="Path 748" class="cls-1" d="M96.1 105.2a2.3 2.3 0 01-2.1 2.1 1.8 1.8 0 01-2-1.8 2 2 0 012-2.1 1.9 1.9 0 012.1 1.8" transform="translate(-.5 -.3)"/><path id="Path_745" data-name="Path 745" d="M111.4 56c-.1-.7-.4-2-.7-3.3l1.4.2c4.7.4 9.4-4.4 9.4-4.4a8.4 8.4 0 01-4.4-.7 28.7 28.7 0 00-7-2.9 6.8 6.8 0 00-2.8.4c1.9-3.1 3.5-6.4 3.5-6.4l-3.9-.3a20.4 20.4 0 01-2 6.2 4.9 4.9 0 00-2-3.7 24.7 24.7 0 00-6.9-2.9 7.5 7.5 0 01-3.5-2.6s-.8 6.5 2.8 9.5a8.3 8.3 0 001.8 1.3c-1.5.6-3.1 1.6-3.9 2a8.5 8.5 0 01-3.8.9s3.8 3.8 7.8 3.2a15.7 15.7 0 006.5-3.1 12.2 12.2 0 001.8 6.5c2.3 3.2 7.8 3.3 7.8 3.3a7 7 0 01-1.9-3.2z" transform="translate(-.5 -.3)" stroke="red" stroke-miterlimit="10" fill="#fff"/><path class="cls-2" d="M51.1 60.1h3.8a12.6 12.6 0 0112.6 12.6v3.2a12.6 12.6 0 01-12.6 12.6h-3.8a1.6 1.6 0 01-1.6-1.6V61.7a1.6 1.6 0 011.6-1.6z"/><circle class="cls-2" cx="40.8" cy="74.4" r="7.1"/></g></svg>