<svg version="1.1" id="Layer_1" xmlns="http://www.w3.org/2000/svg" x="0" y="0" viewBox="0 0 116.1 118.1" xml:space="preserve"><style>.st1{fill:#fff}.st2{fill:#241714}.st3{fill:none;stroke:#000;stroke-width:4;stroke-linecap:round;stroke-linejoin:round}</style><g id="join_01" transform="translate(-118.265 -313.66)"><path id="패스_914" d="M175.7 390.7c18.8 0 34-15.2 34-33.9l-67.9-.1c0 18.7 15.1 34 33.9 34" fill="#422124"/><path id="패스_915" class="st1" d="M198.4 383.2c-4.2-2.8-8.9-4.8-13.9-5.8-11.4-2.3-22.4.7-29 7 5.9 4.6 13.2 7 20.6 7.1 8.2 0 16.1-3 22.3-8.3"/><path id="패스_916" class="st1" d="M155.1 337.6c-3.5 8.2-13 12-21.2 8.5s-12-13-8.5-21.2 13-12 21.2-8.5 12 13 8.5 21.2"/><path id="패스_917" class="st2" d="M149.4 335.3c-2.1 5-7.9 7.2-12.8 5.1-5-2.1-7.2-7.9-5.1-12.8 2.1-5 7.9-7.2 12.8-5.1 5 2.1 7.3 7.8 5.1 12.8.1 0 0 0 0 0"/><path id="패스_918" class="st1" d="M224.7 337.3c-3.5 8.2-13 12-21.2 8.5s-12-13-8.5-21.2 13-12 21.2-8.5 12 13 8.5 21.2"/><path id="패스_919" class="st2" d="M219 335c-2.1 4.9-7.8 7.2-12.7 5.1s-7.2-7.8-5.1-12.7c2.1-4.9 7.8-7.2 12.7-5.1 4.9 2 7.2 7.7 5.1 12.7"/><path id="패스_921" class="st3" d="M120.6 414.3s12.7-3 17.9-8.3c5.1-5.3 12-8.6 16.7-5.1 4.7 3.5 8.6 13.8-11.5 29.8"/><path id="패스_923" class="st3" d="M232.1 415.8s-12.4-4-17-9.8c-4.6-5.7-11.1-9.6-16.2-6.4-5 3.2-9.7 13.1 8.8 30.7"/></g></svg>