<svg xmlns="http://www.w3.org/2000/svg" width="33.214" height="15" viewBox="0 0 33.214 15"><defs><style>.cls-2{fill:#fff;stroke:#fff;stroke-width:.5px}</style></defs><g id="kakao_s" transform="translate(-190 -224)"><rect id="사각형_3333" width="33.214" height="15" fill="#ffcd00" rx="3" transform="translate(190 224)"/><g id="kakao_CI_BI" transform="translate(195.358 228.286)"><path id="패스_32772" d="M308.342 269.587h-.783v-6.457l.783-.167zm2.1-4.686l.613.434-1.507 1.854 1.746 2.055-.6.46-2.06-2.473z" class="cls-2" transform="translate(-307.559 -262.963)"/><path id="패스_32773" d="M352.2 286.669a1.251 1.251 0 01.473-1.057 2.224 2.224 0 011.375-.364h.9v-.292q0-1.061-.954-1.061a2.664 2.664 0 00-.643.083 3.7 3.7 0 00-.617.209l-.23-.543a3.246 3.246 0 01.754-.3 3.15 3.15 0 01.787-.1q1.652 0 1.652 1.729v2.927h-.579l-.094-.5a2.815 2.815 0 01-.745.426 2.121 2.121 0 01-.754.15 1.331 1.331 0 01-.975-.347 1.277 1.277 0 01-.35-.96zm1.47.685a1.428 1.428 0 00.335-.042 2.775 2.775 0 00.348-.108 1.879 1.879 0 00.326-.163 1.921 1.921 0 00.272-.2v-1.069h-.814a1.543 1.543 0 00-.9.209.765.765 0 00-.284.66.636.636 0 00.718.713z" class="cls-2" transform="translate(-347.778 -281.273)"/><path id="패스_32774" d="M402.375 269.587h-.783v-6.457l.783-.167zm2.094-4.686l.613.434-1.507 1.854 1.745 2.055-.6.46-2.061-2.473z" class="cls-2" transform="translate(-392.275 -262.963)"/><path id="패스_32775" d="M446.234 286.669a1.252 1.252 0 01.472-1.057 2.225 2.225 0 011.375-.364h.9v-.292q0-1.061-.953-1.061a2.662 2.662 0 00-.643.083 3.7 3.7 0 00-.617.209l-.23-.543a3.243 3.243 0 01.753-.3 3.153 3.153 0 01.788-.1q1.651 0 1.652 1.729v2.927h-.579l-.094-.5a2.8 2.8 0 01-.745.426 2.118 2.118 0 01-.753.15 1.331 1.331 0 01-.975-.347 1.277 1.277 0 01-.351-.96zm1.47.685a1.427 1.427 0 00.335-.042 2.807 2.807 0 00.348-.108 1.917 1.917 0 00.6-.368v-1.069h-.814a1.542 1.542 0 00-.9.209.765.765 0 00-.284.66.636.636 0 00.711.718z" class="cls-2" transform="translate(-432.494 -281.273)"/><path id="패스_32776" d="M494.47 283.331a1.94 1.94 0 011.524.618 2.565 2.565 0 01.554 1.771 2.521 2.521 0 01-.549 1.746 2.215 2.215 0 01-3.052 0 2.509 2.509 0 01-.554-1.746 2.555 2.555 0 01.558-1.771 1.945 1.945 0 011.519-.618zm0 .618a1.092 1.092 0 00-.94.451 2.227 2.227 0 00-.329 1.32 2.15 2.15 0 00.329 1.3 1.1 1.1 0 00.94.439 1.116 1.116 0 00.95-.439 2.154 2.154 0 00.327-1.3 2.232 2.232 0 00-.327-1.32 1.1 1.1 0 00-.95-.451z" class="cls-2" transform="translate(-474.078 -281.351)"/></g></g></svg>