<svg xmlns="http://www.w3.org/2000/svg" width="50" height="50" viewBox="0 0 50 50"><defs><style>.cls-1{fill:#fcda11}</style></defs><g id="kakao" transform="translate(-192.873 -152.181)"><circle id="타원_11" cx="25" cy="25" r="25" class="cls-1" transform="translate(192.873 152.181)"/><g id="그룹_16" transform="translate(205.801 166.07)"><g id="그룹_15"><path id="패스_29" fill="#1c1213" d="M219.025 167.181c-6.731 0-12.19 4.324-12.19 9.66 0 3.431 2.261 6.437 5.657 8.156l-1.149 4.3a.359.359 0 00.087.368.338.338 0 00.461.019l4.94-3.347a15.28 15.28 0 002.194.161c6.733 0 12.193-4.324 12.193-9.66s-5.461-9.657-12.193-9.657z" transform="translate(-206.835 -167.181)"/></g></g><g id="그룹_17" transform="translate(208.018 172.848)"><path id="패스_30" d="M223.77 214.652h-1.326a.871.871 0 01-.471-.125.523.523 0 01-.243-.357 1.192 1.192 0 01-.019-.137.539.539 0 01.208-.453.826.826 0 01.522-.164h4.059a.865.865 0 01.47.125.529.529 0 01.245.357.6.6 0 01.009.134.554.554 0 01-.2.459.813.813 0 01-.519.161h-1.326v4.586a.742.742 0 01-.192.532.673.673 0 01-.514.2.71.71 0 01-.449-.145.666.666 0 01-.237-.4.77.77 0 01-.012-.188z" class="cls-1" transform="translate(-221.71 -213.301)"/><path id="패스_31" d="M249.839 213.094a.635.635 0 01.256-.344.814.814 0 01.431-.1h.336a.882.882 0 01.458.112.74.74 0 01.291.426l1.694 4.927a2.908 2.908 0 01.114.393 1.557 1.557 0 01.026.169.624.624 0 01-.2.456.641.641 0 01-.467.186.6.6 0 01-.63-.4l-.363-1.073h-2.26l-.365 1.073a.586.586 0 01-.629.4.652.652 0 01-.415-.128.583.583 0 01-.215-.363.737.737 0 01-.014-.15.853.853 0 01.038-.26c.027-.1.06-.2.1-.3zm.849 1.144h-.018l-.827 2.585h1.643z" class="cls-1" transform="translate(-243.988 -212.647)"/><path id="패스_32" d="M286.6 213.378a.734.734 0 01.192-.529.672.672 0 01.514-.2.7.7 0 01.45.147.669.669 0 01.234.4.707.707 0 01.012.185v4.589h2.345a.842.842 0 01.475.125.536.536 0 01.238.358.921.921 0 01.02.134.546.546 0 01-.208.456.83.83 0 01-.522.161h-2.93a.933.933 0 01-.528-.134.646.646 0 01-.265-.437 1.942 1.942 0 01-.031-.287z" class="cls-1" transform="translate(-276.923 -212.647)"/><path id="패스_33" d="M317.606 213.378a.738.738 0 01.192-.529.674.674 0 01.514-.2.693.693 0 01.449.147.658.658 0 01.236.4.7.7 0 01.014.185v2.132l2.205-2.541a1.517 1.517 0 01.267-.243.531.531 0 01.292-.079.715.715 0 01.42.131.525.525 0 01.233.344l.011.055a.2.2 0 000 .06.569.569 0 01-.065.268 1.258 1.258 0 01-.167.235l-1.442 1.581 1.706 2.711.052.082a1.447 1.447 0 01.2.409c0 .005 0 .022.011.043a.227.227 0 000 .046.643.643 0 01-.211.541.807.807 0 01-.51.164.694.694 0 01-.35-.077.913.913 0 01-.276-.306l-1.618-2.612-.77.805.007 1.458a.752.752 0 01-.194.532.673.673 0 01-.514.2.714.714 0 01-.45-.145.666.666 0 01-.236-.4.9.9 0 01-.012-.188z" class="cls-1" transform="translate(-303.31 -212.647)"/></g></g></svg>