<svg xmlns="http://www.w3.org/2000/svg" width="43.929" height="15" viewBox="0 0 43.929 15"><g transform="translate(-190 -224)"><rect width="43.929" height="15" fill="#2db400" rx="3" transform="translate(190 224)"/><path fill="#fff" d="M216.762 234.5v-5.979h4.619v1.634h-2.1v.57h1.919v1.554h-1.924v.587h2.177v1.634zm-5.292 0l-2.66-5.979h2.605l.911 2.72a6.3 6.3 0 01.173.938.045.045 0 00.088 0 6.319 6.319 0 01.174-.937l.877-2.72h2.6l-2.655 5.978zm-4.155 0l-.227-.745H205.2l-.2.745h-2.641l2.387-5.979h2.76l2.451 5.979zm-1.223-3.977a5.252 5.252 0 01-.118.6l-.326 1.213h1l-.332-1.219a5.818 5.818 0 01-.127-.591.052.052 0 00-.052-.043.048.048 0 00-.045.04zM199.5 234.5s-2.131-3.056-2.2-3.14-.073 0-.073 0a3.92 3.92 0 01.155 1.2v1.94H195v-5.979h2.4s2.171 3.228 2.236 3.315.073 0 .073 0a5.525 5.525 0 01-.209-1.523v-1.792h2.386v5.979zm26.55-.021l-1.077-1.919c-.046-.068-.062 0-.062 0v1.919h-2.442V228.5h3.015c1.549 0 2.86.571 2.86 2.078 0 .9-.4 1.284-1.33 1.554 0 0-.052.014 0 .048a1.865 1.865 0 01.419.356l1.494 1.943zm-1.139-3.33h.173c.41 0 .82-.056.82-.5 0-.46-.373-.515-.8-.515h-.191z"/></g></svg>