<svg xmlns="http://www.w3.org/2000/svg" width="47.787" height="49.691" viewBox="0 0 47.787 49.691"><defs><style>.cls-2{fill:red}.cls-4{fill:#fff}.cls-5{fill:#241714}</style></defs><g id="none" opacity=".13" transform="translate(-372.299 -475.801)"><path id="패스_735" d="M403.158 486.642a4.253 4.253 0 001.994.541 16.394 16.394 0 00-1.588-3.416 2.512 2.512 0 00-.349-.277 2.888 2.888 0 00-1.186-.415l-1.529-.175-.135.106-.32.7a6.426 6.426 0 00-.644 3.388 3.49 3.49 0 001.15 1.9c.02-.121.042-.245.072-.37s.079-.314.131-.514c.1-.386.228-.87.329-1.349l.306-1.456 1.207.946a5.609 5.609 0 00.561.4" class="cls-2" transform="translate(11.015 2.709)"/><path id="패스_736" d="M398.33 478.91a3.3 3.3 0 00.22 1.481 5.569 5.569 0 00.54.97l.969 1.415-1.8-.069c-.629-.024-1.338 0-1.908.024-.24.009-.449.017-.612.02-.139 0-.273 0-.4-.009a3.652 3.652 0 001.76 1.434 7.638 7.638 0 003.662.07l.644-.129.508-1.341a2.285 2.285 0 00.1-1.328c-.164-.155-.317-.313-.488-.466a18.753 18.753 0 00-3.191-2.074" class="cls-2" transform="translate(9.412 1.053)"/><path id="패스_737" d="M413.673 490.694c-.011.05-.025.1-.037.145-.049.185-.09.347-.12.476a2.917 2.917 0 00.087 1.568l.936 2.243-2.232-1.159c-.131-.068-3.209-1.695-3.589-4.274a6.953 6.953 0 01.253-2.9 8.045 8.045 0 01-3.051-.338c-2.582-.844-3.675-4.044-3.717-4.173l-.761-2.3 2.135 1.306a3.349 3.349 0 001.609.387c.151 0 .343-.01.562-.018l.488-.019a5.329 5.329 0 01-.221-2.868 16.88 16.88 0 00-17.222 2.012c-5.913 4.3-7.166 12.711-6.727 13.562 0 0-11.556 5.721-9.528 17.2 1.348 7.632 10.091 17.3 24.737 12.15 9.277-3.26 14.868-15.262 16.194-17.6.916-1.613 4.6-7.832 3.169-14.843a6.8 6.8 0 01-2.966-.564" class="cls-2" transform="translate(0 .347)"/><path id="패스_738" fill="#422124" d="M389.4 494.243a4.608 4.608 0 006.1-1.224l-7.356-4.486a3.958 3.958 0 001.252 5.71" transform="translate(6.166 5.09)"/><path id="패스_739" d="M392.329 493.777a4.533 4.533 0 00-1.094-1.506 4.406 4.406 0 00-3.642-1.193 4.114 4.114 0 001.737 2.08 4.588 4.588 0 003 .619" class="cls-4" transform="translate(6.268 6.157)"/><path id="패스_740" d="M390.815 489a2.174 2.174 0 01-2.9-.534 1.9 1.9 0 01.6-2.729 2.175 2.175 0 012.9.535 1.9 1.9 0 01-.6 2.727" class="cls-4" transform="translate(6.261 3.774)"/><path id="패스_741" d="M390.108 488.123a1.312 1.312 0 01-1.754-.324 1.146 1.146 0 01.36-1.651 1.319 1.319 0 011.757.322 1.153 1.153 0 01-.363 1.654" class="cls-5" transform="translate(6.512 4.007)"/><path id="패스_742" d="M395.927 492.039a2.173 2.173 0 01-2.9-.535 1.9 1.9 0 01.594-2.727 2.177 2.177 0 012.907.535 1.9 1.9 0 01-.6 2.727" class="cls-4" transform="translate(8.357 5.06)"/><path id="패스_743" d="M395.211 491.149a1.308 1.308 0 01-1.743-.322 1.138 1.138 0 01.359-1.638 1.31 1.31 0 011.745.323 1.141 1.141 0 01-.362 1.636" class="cls-5" transform="translate(8.616 5.297)"/><path id="패스_744" d="M403.592 491.373c.093-.393.3-1.107.445-1.813a6.422 6.422 0 00.626.442c2.287 1.389 5.839.168 5.839.168a4.761 4.761 0 01-2.038-1.47 15.958 15.958 0 00-2.769-3.146 3.7 3.7 0 00-1.51-.528c1.708-1.051 3.333-2.276 3.333-2.276-.245-.927-1.849-1.161-1.849-1.161a11.635 11.635 0 01-2.555 2.588 3.069 3.069 0 00-.068-2.343 15.883 15.883 0 00-2.734-3.172 4.382 4.382 0 01-1.13-2.169s-1.971 3.037-.97 5.424a6.1 6.1 0 00.6 1.077c-.9-.034-1.951.034-2.473.042a4.19 4.19 0 01-2.07-.51s.934 2.809 3.079 3.517a8.2 8.2 0 004 .1 6.969 6.969 0 00-.683 3.713c.314 2.12 3.057 3.535 3.057 3.535a3.558 3.558 0 01-.126-2.014" class="cls-2" transform="translate(8.797)"/><path id="패스_745" fill="none" stroke="#fff" stroke-miterlimit="10" stroke-width=".5" d="M412.389 491.373c.093-.393.3-1.107.445-1.813a6.422 6.422 0 00.626.442c2.287 1.389 5.839.168 5.839.168a4.761 4.761 0 01-2.038-1.47 15.958 15.958 0 00-2.769-3.146 3.7 3.7 0 00-1.51-.528c1.708-1.051 3.333-2.276 3.333-2.276-.245-.927-1.849-1.161-1.849-1.161a11.635 11.635 0 01-2.555 2.588 3.069 3.069 0 00-.068-2.343 15.883 15.883 0 00-2.734-3.172 4.382 4.382 0 01-1.13-2.169s-1.971 3.037-.97 5.424a6.1 6.1 0 00.6 1.077c-.9-.034-1.951.034-2.473.042a4.19 4.19 0 01-2.07-.51s.934 2.809 3.079 3.517a8.2 8.2 0 004 .1 6.969 6.969 0 00-.683 3.713c.314 2.12 3.057 3.535 3.057 3.535a3.558 3.558 0 01-.13-2.018z"/><path id="패스_746" d="M390.578 505.9a1.46 1.46 0 01-1.883.621 1.275 1.275 0 01-.646-1.758 1.46 1.46 0 011.882-.623 1.275 1.275 0 01.647 1.76" class="cls-4" transform="translate(6.413 11.601)"/><path id="패스_747" d="M394.64 502.328a1.461 1.461 0 01-1.882.623 1.276 1.276 0 01-.647-1.76 1.463 1.463 0 011.882-.623 1.275 1.275 0 01.647 1.76" class="cls-4" transform="translate(8.082 10.147)"/><path id="패스_748" d="M384.651 505.878a1.459 1.459 0 01-1.882.622 1.275 1.275 0 01-.647-1.758 1.46 1.46 0 011.882-.623 1.275 1.275 0 01.647 1.76" class="cls-4" transform="translate(3.978 11.592)"/></g></svg>