<svg xmlns="http://www.w3.org/2000/svg" width="168" height="152" viewBox="0 0 168 152"><defs><clipPath id="clip-path"><path id="SVGID" fill="none" d="M0 0h168v152H0z" transform="translate(.227 -.388)"/></clipPath><style>.cls-4{fill:#fff}.cls-5{fill:#e7161a}.cls-7{fill:#231815}</style></defs><g id="none03" opacity=".2" transform="translate(-158.309 -160.147)"><g id="그룹_1295" transform="translate(158.082 160.535)"><g id="그룹_1294" clip-path="url(#clip-path)"><g id="그룹_1291" transform="translate(-.21 21.364)"><path id="패스_641" d="M213.493 183.454a17.329 17.329 0 008.635-1.417 76.32 76.32 0 00-12.757-10.819 11.079 11.079 0 00-1.866-.478 11.851 11.851 0 00-5.317.469l-6.146 2.038-.3.667.16 3.374c.153 3.4.92 9.836 4.225 14.712 1.851 2.725 5.035 4.441 8.1 5.521a20.673 20.673 0 01-.462-1.612c-.152-.621-.321-1.4-.516-2.286-.376-1.728-.849-3.89-1.409-5.991l-1.7-6.371 6.44 1.612a24.821 24.821 0 002.913.581z" class="cls-4" transform="translate(-84.394 -157.249)"/><path id="패스_642" d="M191.973 167.224a15.618 15.618 0 003.751 5.528 25.19 25.19 0 003.959 2.908l6.463 3.924-6.968 2.958c-2.438 1.028-5.074 2.415-7.191 3.526-.9.465-1.674.877-2.285 1.18-.52.256-1.032.489-1.545.69 2.8 1.623 6.138 2.955 9.5 2.578 5.907-.645 11.33-4.224 14.038-6.3l2.19-1.686-.708-6.273a10.734 10.734 0 00-2.241-5.485c-.924-.33-1.816-.683-2.774-.995a80.4 80.4 0 00-16.189-2.553z" class="cls-4" transform="translate(-106.486 -167.072)"/><path id="패스_643" d="M297.646 201.251c.051.225.1.443.144.655.184.835.345 1.565.482 2.136a13.886 13.886 0 003.45 6.165l8.063 7.33-10.919-.594c-.642-.034-15.747-.963-22.336-10.668a32.786 32.786 0 01-4.776-12.147 33.024 33.024 0 01-12.445 4.22c-11.647 1.312-22.214-9.6-22.632-10.035l-7.5-7.877 10.833 1.359a13.892 13.892 0 006.975-1.374c.583-.283 1.307-.667 2.132-1.1.567-.3 1.194-.625 1.851-.967a25.217 25.217 0 01-6.549-11.165c-19.6.547-46.345 7.842-62.491 39.6-14.287 28.153-2.438 64.351.951 66.975 0 0-33.263 44.191-2.653 86.77 20.348 28.309 73.285 51.307 119.614 3.774 29.342-30.1 27.1-88.719 27.592-100.56.337-8.18 2.2-39.978-17.225-65.643a28.055 28.055 0 01-12.561 3.146z" class="cls-5" transform="translate(-167.282 -167.185)"/></g><g id="그룹_1292" transform="translate(60.614 101.247)"><path id="패스_644" fill="#432124" d="M198.979 208.357a18.514 18.514 0 0020.762-15.871l-36.755-4.725a18.411 18.411 0 0015.993 20.596z" transform="translate(-182.829 -187.762)"/><path id="패스_645" d="M207.508 196.142a20.789 20.789 0 00-7.116-4.058c-6.029-2.014-12.164-1.152-16.166 1.775a18.6 18.6 0 0023.282 2.283z" class="cls-4" transform="translate(-178.759 -178.462)"/></g><g id="그룹_1293" transform="translate(52.948 79.581)"><path id="패스_646" d="M197.274 195.388a8.849 8.849 0 01-12.065 3.083 8.71 8.71 0 01-3.11-11.993 8.851 8.851 0 0112.077-3.075 8.7 8.7 0 013.098 11.985z" class="cls-4" transform="translate(-180.87 -182.181)"/><path id="패스_647" d="M191.685 191.064a5.346 5.346 0 01-7.3 1.856 5.248 5.248 0 01-1.882-7.247 5.356 5.356 0 017.3-1.871 5.277 5.277 0 011.882 7.262z" class="cls-7" transform="translate(-178.278 -179.616)"/><path id="패스_648" d="M206.585 196.48a8.851 8.851 0 01-12.074 3.075 8.718 8.718 0 01-3.109-11.976 8.86 8.86 0 0112.081-3.083 8.7 8.7 0 013.102 11.984z" class="cls-4" transform="translate(-153.757 -179.022)"/><path id="패스_649" d="M200.93 192.1a5.324 5.324 0 01-7.246 1.844 5.215 5.215 0 01-1.862-7.194 5.323 5.323 0 017.257-1.843 5.232 5.232 0 011.851 7.193z" class="cls-7" transform="translate(-151.134 -176.428)"/></g><path id="패스_650" d="M240.687 216.675c-.434-1.805-1.091-5.156-1.948-8.363a28.45 28.45 0 003.376.665c11.874 1.49 23.423-10.235 23.423-10.235a21.235 21.235 0 01-11.06-2.29c-3.65-1.894-12.643-7.306-17.374-7.891a15.8 15.8 0 00-7.046.64c4.6-7.566 8.521-15.7 8.521-15.7-2.864-3.388-9.683-1.361-9.683-1.361-.089 4-2.605 10.524-4.811 15.536a14.979 14.979 0 00-5.051-9.609c-3.494-3.184-13.457-6.519-17.291-8.056a21.2 21.2 0 01-8.893-6.9s-1.585 16.314 7.249 24.353a29.18 29.18 0 004.561 3.355c-3.631 1.536-7.641 3.793-9.69 4.8a17.754 17.754 0 01-9.221 1.759s9.436 9.919 19.353 8.844c6.854-.75 12.891-4.7 16-7.086.184 3.913 1.065 11.06 4.891 16.7 5.578 8.215 19.31 8.964 19.31 8.964a17.482 17.482 0 01-4.616-8.125z" class="cls-5" transform="translate(-113.715 -157.558)"/></g></g></g></svg>