<svg xmlns="http://www.w3.org/2000/svg" width="113.003" height="113" viewBox="0 0 113.003 113"><defs><clipPath id="clip-path"><path id="SVGID" fill="none" d="M850.312 272.837a56.5 56.5 0 10-56.5-56.5 56.5 56.5 0 0056.5 56.5" transform="translate(-793.81 -159.837)"/></clipPath><style>.cls-4{fill:#e62e24}.cls-6{fill:#fff}.cls-7{fill:#e27f79}.cls-9{fill:#221714}</style></defs><g id="profile_09" transform="translate(-3119.27 -716)"><g id="그룹_1683" transform="translate(3119.27 716)"><path id="패스_960" fill="#3176bc" d="M850.312 272.837a56.5 56.5 0 10-56.5-56.5 56.5 56.5 0 0056.5 56.5" transform="translate(-793.81 -159.837)"/></g><g id="그룹_1688" transform="translate(3119.27 716)"><g id="그룹_1687" clip-path="url(#clip-path)"><g id="그룹_1686" transform="translate(19.552 11.109)"><g id="그룹_1684" transform="translate(0 11.256)"><path id="패스_961" d="M846.031 183.219a8.3 8.3 0 004.124-.974 37.212 37.212 0 00-6.521-4.842 4.849 4.849 0 00-.915-.17 5.636 5.636 0 00-2.546.4l-2.9 1.191-.116.335.184 1.636a14.71 14.71 0 002.525 7.018 7.751 7.751 0 004.094 2.417c-.1-.245-.192-.5-.275-.769-.092-.3-.2-.667-.324-1.094-.241-.826-.54-1.863-.88-2.865l-1.031-3.043 3.16.573a11.977 11.977 0 001.421.187z" class="cls-4" transform="translate(-787.872 -171.978)"/><path id="패스_962" d="M829.375 173.92a7.774 7.774 0 001.993 2.565 12.288 12.288 0 002.007 1.286l3.251 1.694-3.267 1.669c-1.139.58-2.368 1.34-3.352 1.95-.418.256-.78.481-1.064.648a11.4 11.4 0 01-.723.389 7.679 7.679 0 004.667.94 14.607 14.607 0 006.57-3.524l1-.891-.551-3.029a5.228 5.228 0 00-1.263-2.592c-.457-.132-.9-.276-1.372-.394a38.617 38.617 0 00-7.896-.711z" class="cls-4" transform="translate(-793.126 -173.92)"/><path id="패스_963" d="M871.113 186.925c10.222 11.846 10.372 27.372 10.478 31.358.157 5.779 3.173 34.212-9.994 49.813-20.785 24.638-47.095 15.187-57.849 2.085-16.179-19.7-1.587-42.286-1.587-42.286-1.72-1.166-8.636-18.384-2.671-32.543 6.743-15.975 19.411-20.4 28.848-21.306 0 .001 21.168.454 32.775 12.879z" class="cls-4" transform="translate(-806.122 -173.845)"/></g><g id="그룹_1685" transform="translate(28.213)"><path id="패스_964" fill="#e73a18" d="M852.393 192.712c-.27-.864-.7-2.474-1.218-4.005a13.934 13.934 0 001.652.211c5.781.337 10.966-5.744 10.966-5.744a10.2 10.2 0 01-5.409-.751c-1.828-.8-6.348-3.14-8.65-3.268a7.569 7.569 0 00-3.375.54c1.969-3.83 3.589-7.913 3.589-7.913-1.495-1.553-4.715-.346-4.715-.346.089 1.949-.912 5.2-1.814 7.713a7.324 7.324 0 00-2.749-4.507c-1.8-1.432-6.714-2.727-8.611-3.351a10.265 10.265 0 01-4.526-3.062s-.224 7.983 4.3 11.606a14.449 14.449 0 002.312 1.483c-1.7.866-3.564 2.095-4.515 2.654a8.53 8.53 0 01-4.393 1.156s4.885 4.515 9.633 3.665a16.364 16.364 0 007.488-3.969 16.465 16.465 0 002.911 7.961c2.965 3.815 9.614 3.727 9.614 3.727a8.554 8.554 0 01-2.49-3.8z" transform="translate(-823.09 -166.01)"/><path id="패스_965" d="M855.63 198.128c-.764 0-7.143-.119-10.184-4.034a16.223 16.223 0 01-2.863-6.938 15.925 15.925 0 01-6.771 3.24c-5.082.913-10.1-3.668-10.31-3.864l-1.614-1.491 2.195.116a7.811 7.811 0 003.945-1.048c.275-.16.621-.375 1.018-.621.645-.4 1.448-.9 2.277-1.371a13.026 13.026 0 01-1.183-.842c-4.783-3.824-4.61-11.906-4.6-12.249l.062-2.195 1.358 1.729a9.564 9.564 0 004.146 2.8c.348.114.8.251 1.313.408 2.376.723 5.963 1.815 7.545 3.078a8.444 8.444 0 012.246 2.671 17.327 17.327 0 001.029-5.223l-.027-.576.54-.2c.154-.057 3.73-1.367 5.566.538l.354.368-.187.475c-.014.035-1.231 3.094-2.822 6.379a8.7 8.7 0 011.917-.091c2.012.113 5.393 1.693 7.629 2.738.505.237.948.445 1.293.6a9.483 9.483 0 004.95.7l2.174-.383-1.431 1.68c-.221.26-5.471 6.382-11.615 6.022-.154-.01-.307-.021-.459-.036.191.618.362 1.213.513 1.731.121.419.227.786.316 1.072a7.831 7.831 0 002.236 3.416l1.706 1.383-2.193.03zm-11.852-14.089l.172 1.517a15.741 15.741 0 002.749 7.566c1.752 2.253 5 3.022 7.073 3.284a9.182 9.182 0 01-1.34-2.633c-.091-.292-.2-.67-.326-1.1a64.871 64.871 0 00-.885-2.886l-.433-1.275 1.324.238a13.325 13.325 0 001.56.2c3.6.206 7.1-2.4 8.939-4.085a10.846 10.846 0 01-3.753-.893 67.413 67.413 0 01-1.325-.608c-2-.934-5.338-2.5-7.048-2.593a6.771 6.771 0 00-3.028.483l-1.993.819.986-1.917c1.506-2.932 2.82-6.047 3.33-7.289a4.631 4.631 0 00-2.96-.024 27.889 27.889 0 01-1.856 7.4l-1 2.79-.527-2.917a6.538 6.538 0 00-2.465-4.027c-1.342-1.072-4.894-2.152-7.015-2.8-.529-.162-.991-.3-1.347-.419a10.907 10.907 0 01-3.391-1.855c.238 2.487 1.066 6.746 3.913 9.023a13.346 13.346 0 002.185 1.4l1.359.713-1.369.7c-1.177.6-2.425 1.372-3.427 1.991-.41.254-.767.476-1.047.64a9.177 9.177 0 01-2.749 1.061c1.718 1.191 4.64 2.8 7.448 2.295a15.748 15.748 0 007.1-3.783z" class="cls-6" transform="translate(-823.887 -166.832)"/></g></g></g></g><g id="그룹_1698" transform="translate(3148.861 766.534)"><path id="패스_974" d="M821.427 202.536a1.518 1.518 0 11-1.742-1.231 1.506 1.506 0 011.742 1.231z" class="cls-7" transform="translate(-808.932 -185.997)"/><path id="패스_975" d="M815.459 202.291a1.519 1.519 0 11-1.744-1.229 1.508 1.508 0 011.744 1.229z" class="cls-7" transform="translate(-812.443 -186.14)"/><path id="패스_976" d="M816.947 197.559a1.518 1.518 0 11-1.744-1.231 1.509 1.509 0 011.744 1.231z" class="cls-7" transform="translate(-811.568 -188.924)"/><path id="패스_977" d="M844.947 194.892a1.518 1.518 0 11-1.744-1.231 1.509 1.509 0 011.744 1.231z" class="cls-7" transform="translate(-795.102 -190.492)"/><path id="패스_978" d="M849.735 197.134a1.518 1.518 0 11-1.744-1.231 1.508 1.508 0 011.744 1.231z" class="cls-7" transform="translate(-792.286 -189.173)"/><path id="패스_979" d="M844.967 199.694a1.518 1.518 0 11-1.742-1.231 1.506 1.506 0 011.742 1.231z" class="cls-7" transform="translate(-795.089 -187.668)"/><path id="패스_980" fill="#422023" d="M843.873 200c.038.424-.473.819-1.143.881l-17.636 1.609c-.67.06-1.245-.232-1.283-.661-.04-.422.472-.813 1.145-.877l17.632-1.61c.672-.062 1.245.232 1.285.657z" transform="translate(-805.759 -187.143)"/><g id="그룹_1697" transform="translate(15.117)"><path id="패스_981" d="M829.764 198.042a3.989 3.989 0 11-2.631-4.991 3.99 3.99 0 012.631 4.991z" class="cls-6" transform="translate(-821.962 -190.944)"/><path id="패스_982" d="M827.675 196.993a2.414 2.414 0 11-1.594-3.022 2.411 2.411 0 011.594 3.022z" class="cls-9" transform="translate(-821.379 -190.361)"/><path id="패스_983" d="M840.14 196.829a3.99 3.99 0 11-2.63-4.991 3.992 3.992 0 012.63 4.991z" class="cls-6" transform="translate(-815.86 -191.658)"/><path id="패스_984" d="M838.026 195.766a2.394 2.394 0 11-1.578-3 2.4 2.4 0 011.578 3z" class="cls-9" transform="translate(-815.269 -191.067)"/></g><path id="패스_985" d="M825.9 214.922a1.19 1.19 0 01-.619-2.207c3.973-2.417 4.739-4.274 4.842-5.166a1.737 1.737 0 00-.484-1.483c-.756-.738-2.388-.025-3.591.943-1.96 1.579-5.843 2.009-6.278 2.052a1.191 1.191 0 01-.238-2.369c.991-.1 3.826-.573 5.022-1.537 2.517-2.031 5.169-2.344 6.752-.789a4.13 4.13 0 011.183 3.456c-.27 2.354-2.28 4.683-5.971 6.929a1.186 1.186 0 01-.618.171z" class="cls-9" transform="translate(-808.902 -184.763)"/><path id="패스_986" d="M842.056 213.012a1.176 1.176 0 01-.454-.091c-3.992-1.648-6.335-3.641-6.967-5.924a4.135 4.135 0 01.635-3.6c1.325-1.775 3.988-1.879 6.8-.259 1.329.767 4.2.8 5.2.745a1.191 1.191 0 01.129 2.379c-.443.019-4.34.2-6.519-1.061-1.342-.773-3.07-1.221-3.7-.38a1.74 1.74 0 00-.248 1.542c.24.866 1.282 2.581 5.579 4.355a1.192 1.192 0 01-.454 2.293z" class="cls-9" transform="translate(-799.487 -185.581)"/></g></g></svg>