<svg xmlns="http://www.w3.org/2000/svg" width="113.002" height="113" viewBox="0 0 113.002 113"><defs><clipPath id="clip-path"><path id="SVGID" fill="none" d="M390.178 272.837a56.5 56.5 0 10-56.5-56.5 56.5 56.5 0 0056.5 56.5" transform="translate(-333.677 -159.837)"/></clipPath><style>.cls-4{fill:#e62e24}.cls-6{fill:#fff}.cls-7{fill:#221714}.cls-8{fill:#bed04d}.cls-9{fill:#211613}</style></defs><g id="profile_04"><g id="그룹_1692"><path id="패스_969" fill="#f5f198" d="M390.178 272.837a56.5 56.5 0 10-56.5-56.5 56.5 56.5 0 0056.5 56.5" transform="translate(-333.677 -159.837)"/></g><g id="그룹_1728"><g id="그룹_1727" clip-path="url(#clip-path)"><g id="그룹_1726" transform="translate(18.569 13.229)"><g id="그룹_1718" transform="translate(0 11.256)"><path id="패스_1021" d="M385.279 184.554a8.3 8.3 0 004.124-.973 37.2 37.2 0 00-6.519-4.842 5.161 5.161 0 00-.915-.172 5.665 5.665 0 00-2.547.4l-2.9 1.191-.117.335.186 1.636a14.709 14.709 0 002.525 7.018 7.755 7.755 0 004.094 2.417c-.1-.245-.192-.5-.276-.769-.092-.3-.2-.667-.324-1.094-.241-.826-.54-1.863-.88-2.867l-1.03-3.034 3.16.573a12.028 12.028 0 001.419.181z" class="cls-4" transform="translate(-327.12 -173.313)"/><path id="패스_1022" d="M368.624 175.255a7.753 7.753 0 001.993 2.565 12.274 12.274 0 002.006 1.286l3.252 1.694-3.267 1.669c-1.14.58-2.369 1.34-3.354 1.95-.416.256-.778.481-1.062.648-.245.141-.484.272-.723.389a7.677 7.677 0 004.667.94 14.624 14.624 0 006.57-3.524l1-.891-.549-3.028a5.241 5.241 0 00-1.263-2.592c-.459-.132-.9-.276-1.372-.394a38.616 38.616 0 00-7.898-.712z" class="cls-4" transform="translate(-332.373 -175.255)"/><path id="패스_1023" d="M410.361 188.26c10.222 11.845 10.372 27.372 10.478 31.358.157 5.779 3.175 34.212-9.992 49.815-20.786 24.636-47.095 15.185-57.851 2.084-16.179-19.7-1.586-42.286-1.586-42.286-1.72-1.166-8.634-18.384-2.67-32.543 6.741-15.975 19.411-20.4 28.848-21.306 0 0 21.166.451 32.773 12.878z" class="cls-4" transform="translate(-345.37 -175.18)"/></g><g id="그룹_1719" transform="translate(28.213)"><path id="패스_1024" fill="#e73a18" d="M391.641 194.048c-.27-.864-.7-2.474-1.218-4.005a13.639 13.639 0 001.652.211c5.782.337 10.966-5.744 10.966-5.744a10.2 10.2 0 01-5.409-.751c-1.828-.8-6.348-3.14-8.65-3.268a7.566 7.566 0 00-3.373.54c1.969-3.83 3.587-7.913 3.587-7.913-1.494-1.553-4.715-.346-4.715-.346.091 1.949-.91 5.2-1.812 7.713a7.332 7.332 0 00-2.749-4.507c-1.8-1.432-6.714-2.727-8.612-3.351a10.277 10.277 0 01-4.524-3.063s-.224 7.985 4.3 11.607a14.377 14.377 0 002.312 1.483c-1.7.866-3.564 2.095-4.516 2.654a8.528 8.528 0 01-4.393 1.156s4.885 4.515 9.633 3.665a16.372 16.372 0 007.489-3.969 16.461 16.461 0 002.909 7.961c2.965 3.815 9.614 3.727 9.614 3.727a8.554 8.554 0 01-2.491-3.8z" transform="translate(-362.338 -167.346)"/><path id="패스_1025" d="M394.878 199.463c-.764 0-7.143-.119-10.186-4.034a16.246 16.246 0 01-2.86-6.938 15.943 15.943 0 01-6.772 3.24c-5.076.913-10.1-3.668-10.311-3.864l-1.613-1.491 2.2.116a7.858 7.858 0 003.943-1.048c.278-.162.627-.378 1.027-.627.643-.4 1.444-.893 2.269-1.364a12.629 12.629 0 01-1.183-.842c-4.782-3.826-4.612-11.906-4.6-12.249l.062-2.195 1.358 1.728a9.556 9.556 0 004.146 2.8c.348.114.8.251 1.31.407 2.376.723 5.965 1.815 7.55 3.078a8.5 8.5 0 012.246 2.673 17.316 17.316 0 001.028-5.222l-.027-.576.542-.2c.151-.057 3.732-1.369 5.565.538l.354.368-.187.475c-.014.035-1.229 3.092-2.82 6.379a8.791 8.791 0 011.915-.091c2.012.113 5.392 1.693 7.629 2.738.505.237.948.445 1.293.6a9.516 9.516 0 004.948.7l2.176-.383-1.431 1.68c-.222.26-5.511 6.392-11.614 6.022-.156-.01-.31-.021-.461-.037.191.618.362 1.213.513 1.731.121.418.227.784.316 1.07a7.829 7.829 0 002.236 3.418l1.7 1.383-2.192.03zm-11.85-14.088l.172 1.515a15.741 15.741 0 002.747 7.566c1.752 2.253 5 3.022 7.073 3.284a9.183 9.183 0 01-1.339-2.633c-.091-.292-.2-.67-.326-1.1a65.663 65.663 0 00-.885-2.884l-.432-1.275 1.323.238a13.028 13.028 0 001.556.2c3.635.2 7.105-2.4 8.946-4.086a10.82 10.82 0 01-3.754-.891c-.351-.154-.807-.367-1.326-.608-2-.934-5.339-2.5-7.048-2.593a6.754 6.754 0 00-3.027.483l-1.993.819.985-1.917c1.507-2.932 2.822-6.047 3.33-7.289a4.637 4.637 0 00-2.959-.024 27.887 27.887 0 01-1.857 7.4l-1 2.784-.529-2.909a6.566 6.566 0 00-2.465-4.029c-1.345-1.072-4.9-2.153-7.023-2.8-.526-.16-.986-.3-1.342-.418a10.925 10.925 0 01-3.391-1.855c.24 2.487 1.067 6.746 3.915 9.023a13.353 13.353 0 002.184 1.4l1.364.713-1.372.7c-1.175.6-2.419 1.367-3.418 1.987-.413.256-.777.48-1.059.645a9.149 9.149 0 01-2.746 1.061c1.717 1.191 4.648 2.793 7.446 2.293a15.41 15.41 0 007.1-3.781z" class="cls-6" transform="translate(-363.135 -168.167)"/></g><g id="그룹_1725" transform="translate(17.454 38.133)"><g id="그룹_1720" transform="translate(5.212 1.399)"><path id="패스_1026" d="M368.5 199.712a4.654 4.654 0 11-2.206-6.2 4.666 4.666 0 012.206 6.2z" class="cls-6" transform="translate(-359.643 -193.06)"/><path id="패스_1027" d="M366.157 198.243a2.815 2.815 0 11-1.332-3.754 2.812 2.812 0 011.332 3.754z" class="cls-7" transform="translate(-358.961 -192.38)"/><path id="패스_1028" d="M377.564 199.82a4.654 4.654 0 11-2.2-6.2 4.658 4.658 0 012.2 6.2z" class="cls-6" transform="translate(-354.311 -192.998)"/><path id="패스_1029" d="M375.195 198.33a2.792 2.792 0 11-1.323-3.719 2.785 2.785 0 011.323 3.719z" class="cls-7" transform="translate(-353.621 -192.309)"/></g><path id="패스_1030" d="M376.622 203.145a.785.785 0 01-.545-.218c-.016 0-1.221-.726-6.113-.726-4.872 0-5.857.634-5.9.659a.742.742 0 01-1.078.037.842.842 0 01-.033-1.161c.365-.419 1.763-1.123 7.008-1.123 5.549 0 6.916.889 7.205 1.161a.795.795 0 01-.548 1.37z" class="cls-7" transform="translate(-352.608 -187.219)"/><g id="그룹_1721" transform="translate(8.125)"><path id="패스_1031" d="M361.976 192.679s.262.54 3.052 1.182 3.4.251 3.4.251" class="cls-8" transform="translate(-361.182 -191.885)"/><path id="패스_1032" d="M367.911 195.315a12.832 12.832 0 01-2.765-.388c-2.13-.489-3.3-1.016-3.591-1.61a.794.794 0 011.345-.829 7.606 7.606 0 002.6.893 6.7 6.7 0 002.892.3.745.745 0 011.048.268.84.84 0 01-.292 1.121 2.323 2.323 0 01-1.237.245z" class="cls-7" transform="translate(-361.476 -192.179)"/></g><g id="그룹_1722" transform="translate(17.995)"><path id="패스_1033" d="M374.642 192.679s-.26.54-3.051 1.182-3.4.251-3.4.251" class="cls-8" transform="translate(-367.398 -191.885)"/><path id="패스_1034" d="M369.3 195.315a2.33 2.33 0 01-1.239-.241.794.794 0 01.848-1.342c-.011-.008.075.006.3 0a11.626 11.626 0 002.506-.356 7.62 7.62 0 002.6-.893.793.793 0 011.344.829c-.287.594-1.459 1.121-3.588 1.61a12.855 12.855 0 01-2.771.393z" class="cls-7" transform="translate(-367.691 -192.179)"/></g><g id="그룹_1723" transform="translate(22.278 10.34)"><path id="패스_1035" d="M380.9 204.354s-3.252-1.193-4.429-2.774-2.86-2.668-4.226-1.88-2.3 4.8 2.449 9.675" class="cls-4" transform="translate(-369.947 -198.251)"/><path id="패스_1036" d="M375.133 211a1.184 1.184 0 01-.854-.361c-3.837-3.945-4.048-7.143-3.832-8.7a3.769 3.769 0 011.642-2.836c1.756-1.012 4.024-.151 5.776 2.2a10.4 10.4 0 003.886 2.368 1.191 1.191 0 01-.821 2.236c-.367-.133-3.624-1.367-4.974-3.181-.8-1.078-1.982-1.958-2.678-1.559a1.678 1.678 0 00-.472 1.1c-.125.907-.068 3.373 3.181 6.711a1.191 1.191 0 01-.854 2.022z" class="cls-9" transform="translate(-370.389 -198.69)"/></g><g id="그룹_1724" transform="translate(0 9.944)"><path id="패스_1037" d="M357.11 204.985s3.09-1.567 4.075-3.275 2.528-2.982 3.978-2.36 2.844 4.49-1.3 9.894" class="cls-4" transform="translate(-355.92 -198)"/><path id="패스_1038" d="M364.305 210.874a1.19 1.19 0 01-.945-1.915c2.835-3.7 2.6-6.155 2.371-7.04a1.67 1.67 0 00-.6-1.034c-.738-.313-1.8.7-2.477 1.861-1.129 1.958-4.218 3.564-4.566 3.742a1.192 1.192 0 01-1.08-2.125 10.42 10.42 0 003.583-2.806c1.466-2.538 3.616-3.664 5.48-2.86a3.757 3.757 0 011.961 2.619c.4 1.52.565 4.723-2.786 9.093a1.188 1.188 0 01-.941.465z" class="cls-9" transform="translate(-356.36 -198.441)"/></g></g></g></g></g></g></svg>