<svg xmlns="http://www.w3.org/2000/svg" width="113.002" height="113" viewBox="0 0 113.002 113"><defs><clipPath id="clip-path"><path id="SVGID" fill="none" d="M114.033 272.837a56.5 56.5 0 10-56.5-56.5 56.5 56.5 0 0056.5 56.5" transform="translate(-57.532 -159.837)"/></clipPath><style>.cls-4{fill:#221714}.cls-5{fill:#e61f19}.cls-8{fill:#fff}</style></defs><g id="profile_01"><g id="그룹_1689"><path id="패스_966" fill="#f7c8bf" d="M114.033 272.837a56.5 56.5 0 10-56.5-56.5 56.5 56.5 0 0056.5 56.5" transform="translate(-57.532 -159.837)"/></g><g id="그룹_1708"><g id="그룹_1707" clip-path="url(#clip-path)"><g id="그룹_1706" transform="translate(19.893 4.378)"><g id="그룹_1699" transform="translate(9.264 110.705)"><path id="패스_987" d="M90.814 232.609s-2.45.14-6.77 2.56c-2.671 1.49-4.409 1.985-5.226 1.774s-2.727-.8-2.622.764c.051.8 2.752.843 3.527.657 1.888-.454 4.161-1.785 6.6-2.87 3.214-1.429 3.884-2.293 5.66-1.528s-1.169-1.357-1.169-1.357z" class="cls-4" transform="translate(-75.716 -232.125)"/><path id="패스_988" d="M78.8 239.111a4.874 4.874 0 01-2.508-.516.9.9 0 01-.4-.677 1.375 1.375 0 01.445-1.226c.681-.565 1.839-.272 2.6-.075l.162.043c.291.076 1.482.167 4.88-1.728 4.366-2.446 6.87-2.614 6.975-2.619l.17-.01.137.1c2.082 1.505 2.071 1.766 1.866 2.126-.256.449-.8.213-1.167.054-1.14-.489-1.687-.218-3.311.589-.538.268-1.177.584-1.966.937s-1.537.716-2.274 1.077a23.536 23.536 0 01-4.407 1.822 6.023 6.023 0 01-1.202.103zm-1.4-1.795a.721.721 0 00-.453.11.5.5 0 00-.1.429 5.936 5.936 0 002.941.226A22.844 22.844 0 0084 236.33c.746-.365 1.517-.74 2.3-1.093s1.4-.656 1.93-.918a6.351 6.351 0 012.712-.939h.048c-.044-.033-.089-.068-.135-.1a19.21 19.21 0 00-6.406 2.481c-1.822 1.016-4.272 2.165-5.577 1.82l-.167-.041a5.988 5.988 0 00-1.305-.224z" class="cls-4" transform="translate(-75.892 -232.304)"/></g><g id="그룹_1700" transform="translate(68.828 103.753)"><path id="패스_989" d="M114.99 228.338s2.395-.513 7.205.67c2.974.729 4.774.743 5.509.326s2.419-1.493 2.731.037c.165.784-2.431 1.545-3.224 1.572-1.944.064-4.483-.616-7.129-1.013-3.475-.526-4.353-1.18-5.858.03s.766-1.622.766-1.622z" class="cls-4" transform="translate(-113.215 -227.749)"/><path id="패스_990" d="M127.136 231.6a25.86 25.86 0 01-4.44-.584c-.812-.152-1.65-.31-2.5-.437s-1.548-.265-2.138-.381c-1.783-.349-2.382-.468-3.351.311-.308.249-.772.622-1.14.257-.294-.3-.373-.542 1.236-2.549l.1-.132.167-.037c.1-.022 2.557-.521 7.418.673 3.77.926 4.9.521 5.161.375l.135-.078c.691-.4 1.729-.993 2.544-.629a1.376 1.376 0 01.754 1.062.9.9 0 01-.2.758c-.626.8-2.744 1.361-3.472 1.385-.089.006-.182.006-.274.006zm-10.945-2.627a11.349 11.349 0 012.05.289c.576.113 1.261.248 2.1.373.861.129 1.712.289 2.535.443a23.086 23.086 0 004.507.565 5.417 5.417 0 002.776-1.054.5.5 0 00-.216-.33c-.375-.176-1.285.362-1.675.586l-.141.081c-1.178.669-3.835.219-5.858-.278a19.215 19.215 0 00-6.834-.691l-.1.133a3.006 3.006 0 01.856-.118z" class="cls-4" transform="translate(-113.398 -227.926)"/></g><path id="패스_991" d="M102.569 170.906s-29.475 2.207-32.378 31.536c-1.5 15.1 10.061 29.318 12.022 29.915 0 0-7.162 25.567 13.859 39.423 13.975 9.216 41.552 10.437 53.955-18.874 7.856-18.571-3.3-44.508-5.137-49.912s-10.836-33.684-42.321-32.088z" class="cls-5" transform="translate(-70.058 -157.744)"/><g id="그룹_1701" transform="translate(27.753 50.62)"><path id="패스_992" fill="#422023" d="M98.23 205.171a8.853 8.853 0 006.5-10.7l-17.2 4.2a8.847 8.847 0 0010.7 6.5z" transform="translate(-87.534 -194.469)"/><path id="패스_993" fill="#db585d" d="M101.475 199.245a9.711 9.711 0 00-3.872-.6 8.56 8.56 0 00-6.9 3.57 8.814 8.814 0 0010.769-2.971z" transform="translate(-85.669 -192.019)"/></g><g id="그룹_1702" transform="translate(21.747 40.281)"><path id="패스_994" d="M92.12 195.61a4.212 4.212 0 11-3.462-4.848 4.211 4.211 0 013.462 4.848z" class="cls-8" transform="translate(-83.752 -186.344)"/><path id="패스_995" d="M89.86 194.717a2.547 2.547 0 11-2.095-2.933 2.543 2.543 0 012.095 2.933z" class="cls-4" transform="translate(-83.136 -185.729)"/><path id="패스_996" d="M102.8 192.865a4.212 4.212 0 11-3.459-4.85 4.21 4.21 0 013.459 4.85z" class="cls-8" transform="translate(-77.47 -187.958)"/><path id="패스_997" d="M100.518 191.963a2.527 2.527 0 11-2.079-2.909 2.531 2.531 0 012.079 2.909z" class="cls-4" transform="translate(-76.845 -187.334)"/></g><g id="그룹_1703" transform="translate(72.41 51.991)"><path id="패스_998" d="M116.4 199.6s4.126-.429 5.957-1.914 4.105-2.255 5.457-.937 2.157 4.748-4.794 9.011" class="cls-5" transform="translate(-115.213 -194.893)"/><path id="패스_999" d="M123.464 207.4a1.191 1.191 0 01-.624-2.206c4.212-2.582 5.018-4.569 5.123-5.523a1.888 1.888 0 00-.537-1.618c-.824-.805-2.585-.043-3.875 1.007-2.049 1.661-6.127 2.126-6.584 2.174a1.191 1.191 0 01-.246-2.369c1.05-.111 4.058-.623 5.33-1.655 2.625-2.134 5.387-2.474 7.038-.864a4.293 4.293 0 011.242 3.589c-.273 2.463-2.374 4.915-6.246 7.289a1.182 1.182 0 01-.621.176z" class="cls-4" transform="translate(-115.654 -195.332)"/></g><g id="그룹_1704" transform="translate(1.537 71.71)"><path id="패스_1000" d="M83.861 209.067s-4.061.858-6.259 0-4.6-.883-5.484.783-.594 5.179 7.327 7.105" class="cls-5" transform="translate(-70.585 -207.309)"/><path id="패스_1001" d="M79.889 218.591a1.237 1.237 0 01-.283-.033c-4.407-1.072-7.157-2.76-8.175-5.018a4.306 4.306 0 01.076-3.8c1.081-2.036 3.816-2.558 6.967-1.336 1.529.592 4.55.159 5.582-.059a1.19 1.19 0 11.491 2.33c-.451.1-4.477.9-6.934-.049-1.548-.6-3.462-.786-4 .23a1.908 1.908 0 00-.01 1.706c.4.877 1.772 2.517 6.568 3.683a1.191 1.191 0 01-.281 2.349z" class="cls-4" transform="translate(-71.026 -207.749)"/></g><g id="그룹_1705" transform="translate(20.47)"><path id="패스_1002" fill="#e73a18" d="M111.676 187.731c-.3-.856-.77-2.45-1.334-3.967a15.076 15.076 0 001.658.164c5.789.168 10.793-6.06 10.793-6.06a10.186 10.186 0 01-5.425-.594c-1.852-.75-6.438-2.955-8.742-3.021a7.607 7.607 0 00-3.357.642c1.858-3.886 3.359-8.015 3.359-8.015-1.54-1.512-4.725-.21-4.725-.21.146 1.944-.759 5.23-1.59 7.764A7.331 7.331 0 0099.436 170c-1.834-1.38-6.791-2.53-8.7-3.1a10.281 10.281 0 01-4.612-2.928s.006 7.985 4.639 11.475a14.157 14.157 0 002.354 1.413c-1.675.916-3.5 2.2-4.439 2.785a8.569 8.569 0 01-4.356 1.283s5.014 4.367 9.733 3.384a16.378 16.378 0 007.373-4.185 16.429 16.429 0 003.138 7.875c3.071 3.729 9.716 3.449 9.716 3.449a8.551 8.551 0 01-2.606-3.72z" transform="translate(-82.143 -161.781)"/><path id="패스_1003" d="M114.73 193.071c-1.525 0-7.1-.249-9.975-3.745a16.2 16.2 0 01-3.063-6.851 15.914 15.914 0 01-6.675 3.432c-5.047 1.058-10.2-3.373-10.416-3.562l-1.653-1.44 2.195.048a7.962 7.962 0 003.913-1.161c.264-.167.6-.386.978-.638.637-.421 1.432-.947 2.257-1.448a13.587 13.587 0 01-1.205-.805c-4.891-3.688-4.955-11.769-4.955-12.111v-2.195l1.407 1.687a9.587 9.587 0 004.226 2.676c.351.1.805.227 1.324.368 2.395.654 6.016 1.641 7.632 2.857a8.525 8.525 0 012.322 2.609 17.247 17.247 0 00.877-5.25l-.044-.575.535-.219c.151-.062 3.691-1.477 5.581.378l.365.357-.175.481c-.013.035-1.142 3.127-2.636 6.457a9.214 9.214 0 011.91-.149c2.017.057 5.441 1.539 7.707 2.52.511.222.961.416 1.31.557a9.484 9.484 0 004.964.553l2.165-.446-1.382 1.721c-.214.267-5.331 6.535-11.436 6.357-.154 0-.308-.014-.461-.025.2.6.389 1.178.553 1.683.138.429.259.8.359 1.091a7.732 7.732 0 002.328 3.354l1.766 1.334-2.211.094c-.037.001-.171.006-.387.006zm-11.93-13.748l.214 1.512a15.69 15.69 0 002.965 7.481c1.81 2.2 5.083 2.876 7.162 3.079a9.207 9.207 0 01-1.412-2.593c-.1-.3-.227-.683-.368-1.123-.265-.823-.592-1.842-.959-2.827l-.468-1.258 1.329.2a14.22 14.22 0 001.569.157c3.624.065 7.021-2.6 8.814-4.345a10.807 10.807 0 01-3.775-.783c-.356-.143-.816-.343-1.344-.57-2.023-.877-5.409-2.341-7.119-2.39a6.73 6.73 0 00-3.013.573l-1.969.875.931-1.944c1.423-2.976 2.647-6.13 3.119-7.383a4.56 4.56 0 00-2.959.06 27.9 27.9 0 01-1.645 7.451l-.921 2.814-.61-2.9a6.565 6.565 0 00-2.579-3.961c-1.372-1.031-4.955-2.007-7.094-2.592-.532-.145-1-.272-1.358-.378a10.979 10.979 0 01-3.443-1.756c.31 2.477 1.259 6.711 4.173 8.908a13.3 13.3 0 002.222 1.332l1.388.67-1.353.74c-1.17.642-2.454 1.488-3.391 2.106-.392.259-.735.486-1.005.656a9.234 9.234 0 01-2.719 1.14c1.752 1.14 4.726 2.66 7.51 2.079a15.42 15.42 0 006.992-3.986z" class="cls-8" transform="translate(-82.948 -162.594)"/></g></g></g></g></g></svg>