<svg xmlns="http://www.w3.org/2000/svg" width="113.002" height="113" viewBox="0 0 113.002 113"><defs><clipPath id="clip-path"><path id="SVGID" fill="none" d="M298.13 272.837a56.5 56.5 0 10-56.5-56.5 56.5 56.5 0 0056.5 56.5" transform="translate(-241.629 -159.837)"/></clipPath><style>.cls-4{fill:#211613}.cls-5{fill:#e62e24}.cls-7{fill:#fff}.cls-8{fill:#221714}</style></defs><g id="profile_03"><g id="그룹_1691"><path id="패스_968" fill="#41bddf" d="M298.13 272.837a56.5 56.5 0 10-56.5-56.5 56.5 56.5 0 0056.5 56.5" transform="translate(-241.629 -159.837)"/></g><g id="그룹_1739"><g id="그룹_1738" clip-path="url(#clip-path)"><g id="그룹_1737" transform="translate(16.545 12.463)"><path id="패스_1039" d="M268.665 233.607s1.82 3.506 2.023 11.49c.127 4.937.87 7.745 1.833 8.715s3.348 3.125 1.1 4.259c-1.155.589-3.437-3.124-3.815-4.353-.923-2.994-.948-7.234-1.448-11.514-.661-5.628-.011-7.27-2.533-9.1s2.84.503 2.84.503z" class="cls-4" transform="translate(-244.342 -129.627)"/><path id="패스_1040" d="M283.269 233.556s-2.2 3.284-3.29 11.2c-.673 4.89-1.721 7.6-2.79 8.455s-3.675 2.732-1.564 4.115c1.081.708 3.761-2.727 4.274-3.9 1.25-2.873 1.747-7.088 2.72-11.286 1.28-5.519.821-7.223 3.53-8.76s-2.88.176-2.88.176z" class="cls-4" transform="translate(-238.652 -129.431)"/><g id="그룹_1729" transform="translate(0 11.448)"><path id="패스_1041" d="M294.548 185.25a8.316 8.316 0 004.18-.689 36.761 36.761 0 00-6.176-5.272 5.115 5.115 0 00-.9-.237 5.7 5.7 0 00-2.568.23l-2.976.993-.141.326.075 1.644a14.68 14.68 0 002.044 7.175 7.765 7.765 0 003.923 2.69 9.376 9.376 0 01-.227-.786c-.07-.3-.156-.683-.246-1.113-.186-.842-.414-1.9-.684-2.919l-.821-3.106 3.113.786a12.048 12.048 0 001.404.278z" class="cls-5" transform="translate(-232.1 -172.479)"/><path id="패스_1042" d="M278.769 174.939a7.8 7.8 0 001.812 2.7 12.507 12.507 0 001.917 1.417l3.127 1.914-3.372 1.442c-1.175.5-2.454 1.177-3.478 1.72-.434.226-.808.424-1.1.573-.254.124-.5.238-.746.338a7.653 7.653 0 004.593 1.253 14.613 14.613 0 006.794-3.068l1.058-.821-.345-3.059a5.213 5.213 0 00-1.083-2.673c-.448-.162-.878-.333-1.342-.484a38.74 38.74 0 00-7.835-1.252z" class="cls-5" transform="translate(-237.417 -174.868)"/><path id="패스_1043" d="M321.186 189.963c9.4 12.511 8.495 28.011 8.331 32-.235 5.774.846 34.347-13.346 49.021-22.409 23.17-48.017 11.96-57.86-1.839-14.806-20.758 1.283-42.3 1.283-42.3-1.636-1.277-7.369-18.925-.457-32.646 7.81-15.481 20.748-19.038 30.226-19.3-.001-.005 21.086 1.878 31.823 15.064z" class="cls-5" transform="translate(-252.047 -174.894)"/></g><g id="그룹_1730" transform="translate(32.862)"><path id="패스_1044" fill="#e73a18" d="M300.626 195.219c-.211-.881-.529-2.514-.943-4.078a13.64 13.64 0 001.634.324c5.744.727 11.328-4.988 11.328-4.988a10.207 10.207 0 01-5.344-1.116c-1.769-.924-6.119-3.56-8.409-3.846a7.544 7.544 0 00-3.4.31c2.223-3.688 4.116-7.651 4.116-7.651-1.386-1.652-4.683-.665-4.683-.665-.041 1.949-1.261 5.131-2.328 7.572a7.332 7.332 0 00-2.441-4.683c-1.693-1.55-6.511-3.176-8.363-3.926a10.271 10.271 0 01-4.307-3.362s-.765 7.952 3.508 11.871a14.217 14.217 0 002.207 1.636c-1.756.748-3.7 1.849-4.688 2.342a8.536 8.536 0 01-4.459.856s4.567 4.834 9.362 4.308a16.386 16.386 0 007.742-3.452 16.459 16.459 0 002.363 8.142c2.7 4.007 9.338 4.37 9.338 4.37a8.564 8.564 0 01-2.233-3.964z" transform="translate(-271.968 -166.848)"/><path id="패스_1045" d="M305.775 200.93l-2.188-.119c-.287-.016-7.069-.434-9.954-4.72a16.21 16.21 0 01-2.384-7.116 15.914 15.914 0 01-6.976 2.773c-5.128.545-9.829-4.343-10.026-4.553l-1.507-1.6 2.182.264a7.843 7.843 0 004.007-.778c.284-.141.645-.334 1.058-.551.672-.354 1.505-.8 2.363-1.212a13.529 13.529 0 01-1.123-.921c-4.51-4.139-3.794-12.19-3.761-12.53l.211-2.185 1.237 1.815a9.552 9.552 0 003.948 3.07c.338.138.777.3 1.278.5 2.322.881 5.83 2.215 7.323 3.583a8.479 8.479 0 012.061 2.817 17.245 17.245 0 001.377-5.139l.013-.578.554-.165c.156-.046 3.818-1.112 5.519.916l.327.391-.219.461c-.017.035-1.437 3-3.246 6.173a8.828 8.828 0 011.917.04c2 .249 5.269 2.057 7.432 3.252.486.268.91.5 1.243.677a9.5 9.5 0 004.89 1.032l2.195-.235-1.54 1.579c-.24.245-5.927 5.981-12 5.222a12.809 12.809 0 01-.456-.067c.146.623.278 1.223.392 1.747.092.43.175.808.245 1.1a7.859 7.859 0 002 3.564zm-13.121-14.985l.068 1.526a15.7 15.7 0 002.228 7.734c1.59 2.36 4.782 3.351 6.832 3.754a9.156 9.156 0 01-1.156-2.717c-.073-.3-.157-.691-.254-1.132-.184-.85-.413-1.9-.684-2.927l-.345-1.3 1.305.33a12.407 12.407 0 001.537.3c3.608.449 7.246-1.91 9.2-3.468a10.889 10.889 0 01-3.685-1.145c-.338-.176-.775-.418-1.274-.694-1.931-1.067-5.161-2.854-6.864-3.067a6.744 6.744 0 00-3.052.275l-2.044.683 1.112-1.845c1.7-2.824 3.225-5.843 3.818-7.045a4.635 4.635 0 00-2.952-.227 27.886 27.886 0 01-2.354 7.256l-1.186 2.711-.33-2.941a6.546 6.546 0 00-2.187-4.186c-1.267-1.161-4.739-2.481-6.814-3.27-.513-.2-.962-.367-1.31-.507a10.943 10.943 0 01-3.257-2.08c.07 2.5.607 6.8 3.294 9.268a13.291 13.291 0 002.085 1.545l1.312.8-1.417.6c-1.215.518-2.511 1.2-3.553 1.755-.426.226-.8.422-1.091.567a9.178 9.178 0 01-2.813.872c1.633 1.305 4.447 3.106 7.275 2.793a15.734 15.734 0 007.343-3.292z" class="cls-7" transform="translate(-272.74 -167.685)"/></g><g id="그룹_1736" transform="translate(20.581 39.306)"><g id="그룹_1731" transform="translate(4.823)"><path id="패스_1046" d="M275.965 198.649a4.213 4.213 0 11-1.709-5.7 4.212 4.212 0 011.709 5.7z" class="cls-7" transform="translate(-268.044 -192.436)"/><path id="패스_1047" d="M273.882 197.243a2.547 2.547 0 11-1.031-3.456 2.541 2.541 0 011.031 3.456z" class="cls-8" transform="translate(-267.428 -191.82)"/><path id="패스_1048" d="M286.96 199.514a4.214 4.214 0 11-1.7-5.708 4.21 4.21 0 011.7 5.708z" class="cls-7" transform="translate(-261.577 -191.927)"/><path id="패스_1049" d="M284.856 198.09a2.528 2.528 0 11-1.024-3.429 2.532 2.532 0 011.024 3.429z" class="cls-8" transform="translate(-260.953 -191.304)"/></g><g id="그룹_1733" transform="translate(0 8.083)"><g id="그룹_1732"><path id="패스_1050" d="M288 208.4a41.574 41.574 0 01-6.61-.157c-8.958-.927-13.543-3.316-14.037-3.586a3.533 3.533 0 013.364-6.214c.11.057 3.919 2 11.4 2.771a30.287 30.287 0 0012.962-1.253 3.533 3.533 0 012.66 6.546A32.85 32.85 0 01288 208.4z" class="cls-7" transform="translate(-264.712 -197.233)"/><path id="패스_1051" d="M285.967 209.551a41.969 41.969 0 01-4.367-.226c-9.125-.945-13.829-3.4-14.336-3.678a4.327 4.327 0 014.121-7.61c.03.014 3.749 1.918 11.109 2.681a29.782 29.782 0 0012.6-1.205 4.328 4.328 0 013.243 8.025 34.006 34.006 0 01-10 1.949q-1.185.064-2.37.064zm-16.624-10.44a2.744 2.744 0 00-2.411 1.424 2.739 2.739 0 001.094 3.718c.477.262 4.92 2.581 13.737 3.492a40.868 40.868 0 006.484.156 32.319 32.319 0 009.492-1.837 2.74 2.74 0 00-2.068-5.074 31.087 31.087 0 01-13.343 1.309c-7.724-.8-11.652-2.84-11.691-2.86a2.733 2.733 0 00-1.294-.328z" class="cls-8" transform="translate(-265.007 -197.525)"/></g><path id="사각형_1031" d="M0 0h6.824v1.588H0z" class="cls-8" transform="rotate(-69.83 7.95 1.132)"/><path id="사각형_1032" d="M0 0h6.673v1.588H0z" class="cls-8" transform="rotate(-78.63 11.191 -1.462)"/><path id="사각형_1033" d="M0 0h7.314v1.587H0z" class="cls-8" transform="rotate(-86.79 14.695 -3.481)"/><path id="사각형_1034" d="M0 0h1.589v6.42H0z" class="cls-8" transform="rotate(-7.286 45.817 -182.752)"/><path id="사각형_1035" d="M0 0h1.588v7.099H0z" class="cls-8" transform="rotate(-13.119 26.896 -123.023)"/></g><g id="그룹_1734" transform="translate(.459 12.991)"><path id="패스_1052" d="M266.046 207.812s3.8-1.669 5.088-3.645 3.219-3.4 4.909-2.557 3.5 3.859-1.812 10.045" class="cls-5" transform="translate(-264.855 -200.176)"/><path id="패스_1053" d="M274.672 213.286a1.191 1.191 0 01-.9-1.968c3.222-3.748 3.383-5.885 3.192-6.824a1.9 1.9 0 00-1.005-1.378c-1.032-.515-2.474.753-3.384 2.144-1.439 2.207-5.184 3.9-5.6 4.081a1.191 1.191 0 11-.959-2.18c.967-.426 3.676-1.834 4.571-3.2 1.853-2.833 4.38-4 6.436-2.973a4.294 4.294 0 012.28 3.036c.492 2.43-.759 5.407-3.719 8.85a1.186 1.186 0 01-.912.412z" class="cls-4" transform="translate(-265.296 -200.616)"/></g><g id="그룹_1735" transform="translate(19.099 13.303)"><path id="패스_1054" d="M289.248 210.913s-3.58-2.887-4.545-5.215-2.689-4.35-4.559-4.115-4.25 2.52.083 10.251" class="cls-5" transform="translate(-276.592 -200.37)"/><path id="패스_1055" d="M280.67 213.467a1.193 1.193 0 01-1.04-.608c-2.488-4.442-3.194-7.8-2.091-9.978a3.715 3.715 0 012.9-2.038c2.66-.349 4.744 2.28 5.806 4.839.7 1.675 3.263 3.994 4.194 4.747a1.191 1.191 0 01-1.5 1.853c-.391-.316-3.846-3.151-4.9-5.685-.883-2.13-2.234-3.532-3.311-3.391a1.343 1.343 0 00-1.07.75c-.327.646-.781 2.695 2.045 7.739a1.19 1.19 0 01-1.039 1.772z" class="cls-4" transform="translate(-277.033 -200.812)"/></g></g></g></g></g></g></svg>