<svg xmlns="http://www.w3.org/2000/svg" width="113.002" height="113" viewBox="0 0 113.002 113"><defs><clipPath id="clip-path"><path id="SVGID" fill="none" d="M482.226 272.837a56.5 56.5 0 10-56.5-56.5 56.5 56.5 0 0056.5 56.5" transform="translate(-425.725 -159.837)"/></clipPath><style>.cls-4{fill:#e62e24}.cls-6{fill:#fff}.cls-7{fill:#221714}.cls-8{fill:#211613}</style></defs><g id="profile_05"><g id="그룹_1693"><path id="패스_970" fill="#525fa9" d="M482.226 272.837a56.5 56.5 0 10-56.5-56.5 56.5 56.5 0 0056.5 56.5" transform="translate(-425.725 -159.837)"/></g><g id="그룹_1751"><g id="그룹_1750" clip-path="url(#clip-path)"><g id="그룹_1749" transform="translate(15.453 9.521)"><g id="그룹_1740" transform="translate(0 11.256)"><path id="패스_1056" d="M475.365 182.219a8.3 8.3 0 004.124-.974 37.209 37.209 0 00-6.521-4.842 4.847 4.847 0 00-.915-.17 5.635 5.635 0 00-2.546.4l-2.9 1.191-.116.335.184 1.636a14.71 14.71 0 002.525 7.018 7.751 7.751 0 004.094 2.417c-.1-.245-.192-.5-.275-.769-.092-.3-.2-.667-.324-1.094-.241-.826-.54-1.863-.88-2.865l-1.031-3.043 3.16.573a11.975 11.975 0 001.421.187z" class="cls-4" transform="translate(-417.206 -170.978)"/><path id="패스_1057" d="M458.709 172.92a7.773 7.773 0 001.993 2.565 12.291 12.291 0 002.007 1.286l3.251 1.694-3.267 1.669c-1.139.58-2.368 1.34-3.352 1.95-.418.256-.78.481-1.064.648a11.4 11.4 0 01-.723.389 7.68 7.68 0 004.667.94 14.607 14.607 0 006.57-3.524l1-.891-.551-3.029a5.228 5.228 0 00-1.263-2.592c-.457-.132-.9-.276-1.372-.394a38.617 38.617 0 00-7.896-.711z" class="cls-4" transform="translate(-422.46 -172.92)"/><path id="패스_1058" d="M500.447 185.925c10.222 11.845 10.372 27.372 10.478 31.358.157 5.779 3.171 34.212-9.994 49.813-20.785 24.638-47.095 15.187-57.849 2.085C426.9 249.478 441.5 226.9 441.5 226.9c-1.72-1.166-8.636-18.384-2.671-32.543 6.743-15.975 19.411-20.4 28.848-21.306-.005-.004 21.163.449 32.77 12.874z" class="cls-4" transform="translate(-435.456 -172.845)"/></g><g id="그룹_1741" transform="translate(28.213)"><path id="패스_1059" fill="#e73a18" d="M481.727 191.712c-.27-.864-.7-2.474-1.218-4.005a13.925 13.925 0 001.652.211c5.781.337 10.964-5.744 10.964-5.744a10.193 10.193 0 01-5.407-.751c-1.828-.8-6.348-3.14-8.65-3.268a7.569 7.569 0 00-3.375.54c1.969-3.83 3.589-7.913 3.589-7.913-1.494-1.553-4.715-.346-4.715-.346.089 1.949-.912 5.2-1.814 7.713a7.325 7.325 0 00-2.753-4.507c-1.8-1.432-6.714-2.727-8.611-3.351a10.265 10.265 0 01-4.526-3.062s-.224 7.983 4.3 11.606a14.454 14.454 0 002.312 1.483c-1.7.866-3.564 2.095-4.515 2.654a8.531 8.531 0 01-4.393 1.156s4.885 4.515 9.633 3.665a16.365 16.365 0 007.488-3.969 16.467 16.467 0 002.911 7.961c2.965 3.815 9.614 3.727 9.614 3.727a8.554 8.554 0 01-2.486-3.8z" transform="translate(-452.424 -165.01)"/><path id="패스_1060" d="M484.964 197.128c-.764 0-7.143-.119-10.186-4.034a16.238 16.238 0 01-2.862-6.938 15.916 15.916 0 01-6.772 3.24c-5.074.908-10.1-3.668-10.31-3.864l-1.613-1.491 2.2.116a7.844 7.844 0 003.943-1.048c.275-.16.621-.375 1.018-.621.645-.4 1.448-.9 2.277-1.371a13.026 13.026 0 01-1.183-.842c-4.782-3.824-4.61-11.906-4.6-12.249l.063-2.195 1.358 1.729a9.564 9.564 0 004.146 2.8c.348.114.8.251 1.313.408 2.374.723 5.963 1.815 7.545 3.078a8.466 8.466 0 012.246 2.671 17.381 17.381 0 001.029-5.223l-.027-.576.542-.2c.151-.056 3.732-1.367 5.565.538l.354.368-.187.475c-.014.035-1.231 3.094-2.822 6.379a8.716 8.716 0 011.917-.091c2.012.113 5.392 1.693 7.629 2.738.5.237.948.445 1.293.6a9.478 9.478 0 004.948.7l2.176-.383-1.431 1.68c-.222.26-5.485 6.394-11.615 6.022a11.51 11.51 0 01-.459-.037c.191.618.362 1.213.513 1.731.121.418.227.785.316 1.07a7.83 7.83 0 002.236 3.418l1.7 1.383-2.193.03zm-11.852-14.089l.172 1.517a15.74 15.74 0 002.749 7.566c1.752 2.253 5 3.022 7.073 3.284a9.142 9.142 0 01-1.339-2.633c-.091-.292-.2-.67-.326-1.1a64.871 64.871 0 00-.885-2.886l-.434-1.275 1.326.238a13.309 13.309 0 001.556.2c3.656.208 7.1-2.4 8.941-4.085a10.839 10.839 0 01-3.751-.893 59.995 59.995 0 01-1.326-.608c-2-.934-5.339-2.5-7.048-2.593a6.705 6.705 0 00-3.028.483l-1.993.819.985-1.917c1.507-2.932 2.822-6.047 3.332-7.289a4.626 4.626 0 00-2.959-.024 27.967 27.967 0 01-1.858 7.4l-1 2.79-.527-2.917a6.538 6.538 0 00-2.465-4.027c-1.342-1.072-4.893-2.152-7.015-2.8-.529-.162-.991-.3-1.347-.419a10.908 10.908 0 01-3.391-1.855c.238 2.487 1.066 6.746 3.913 9.023a13.4 13.4 0 002.184 1.4l1.363.713-1.369.7c-1.178.6-2.427 1.372-3.429 1.991-.408.254-.767.476-1.047.64a9.187 9.187 0 01-2.747 1.061c1.717 1.193 4.65 2.792 7.447 2.295a15.74 15.74 0 007.1-3.783z" class="cls-6" transform="translate(-453.221 -165.832)"/></g><g id="그룹_1748" transform="translate(16.62 34.302)"><g id="그룹_1743" transform="translate(0 10.918)"><g id="그룹_1742"><path id="패스_1061" d="M469.487 204.3a41.408 41.408 0 01-6.592.494c-9.009-.054-13.805-1.979-14.323-2.2a3.535 3.535 0 012.741-6.517c.114.049 4.1 1.6 11.62 1.647a30.261 30.261 0 0012.778-2.516 3.533 3.533 0 013.289 6.261 32.739 32.739 0 01-9.513 2.831z" class="cls-6" transform="translate(-445.627 -194.013)"/><path id="패스_1062" d="M463.377 205.886h-.194c-8.917-.052-13.746-1.89-14.625-2.258a4.329 4.329 0 013.352-7.982c.037.014 3.892 1.544 11.32 1.585a29.211 29.211 0 0012.417-2.43 4.326 4.326 0 014.011 7.666 33.009 33.009 0 01-9.756 2.916 42.341 42.341 0 01-6.525.503zm-13.124-8.986a2.742 2.742 0 00-1.075 5.264c.5.211 5.214 2.08 14.015 2.133a42.5 42.5 0 006.465-.484 31.913 31.913 0 009.257-2.751 2.738 2.738 0 10-2.543-4.85 31.975 31.975 0 01-13.151 2.606c-7.864-.044-11.884-1.691-11.923-1.709a2.729 2.729 0 00-1.045-.209z" class="cls-7" transform="translate(-445.921 -194.307)"/></g><path id="사각형_1036" d="M0 0h6.825v1.588H0z" class="cls-7" transform="rotate(-75.4 8.22 1.682)"/><path id="사각형_1037" d="M0 0h6.673v1.588H0z" class="cls-7" transform="rotate(-84.228 11.09 -.946)"/><path id="사각형_1038" d="M0 0h1.588v7.316H0z" class="cls-7" transform="rotate(-2.381 99.68 -422.944)"/><path id="사각형_1039" d="M0 0h1.588v6.416H0z" class="cls-7" transform="rotate(-12.891 27.071 -102.066)"/><path id="사각형_1040" d="M0 0h1.589v7.101H0z" class="cls-7" transform="rotate(-18.712 18.841 -85.315)"/></g><g id="그룹_1744" transform="translate(1.273 16.2)"><path id="패스_1063" d="M447.473 205.687s3.618-2.034 4.7-4.126 2.873-3.7 4.639-3.025 3.864 3.5-.823 10.175" class="cls-4" transform="translate(-446.281 -197.193)"/><path id="패스_1064" d="M456.433 210.342a1.173 1.173 0 01-.683-.218 1.19 1.19 0 01-.291-1.658c2.839-4.042 2.792-6.184 2.511-7.1a1.9 1.9 0 00-1.137-1.277c-1.07-.4-2.39.994-3.159 2.465-1.215 2.338-4.775 4.388-5.177 4.613a1.191 1.191 0 01-1.169-2.076c.923-.521 3.479-2.187 4.234-3.638 1.566-3 3.964-4.407 6.119-3.591a4.3 4.3 0 012.566 2.806c.726 2.368-.23 5.453-2.838 9.168a1.2 1.2 0 01-.976.506z" class="cls-8" transform="translate(-446.723 -197.633)"/></g><g id="그룹_1745" transform="translate(20.676 15.603)"><path id="패스_1065" d="M470.833 205.8s-3.491-2.241-4.456-4.391-2.655-3.857-4.455-3.29-4.061 3.27.23 10.208" class="cls-4" transform="translate(-458.498 -196.817)"/><path id="패스_1066" d="M462.6 209.954a1.191 1.191 0 01-1.015-.565c-2.387-3.861-3.162-7-2.3-9.317a4.306 4.306 0 012.715-2.653c2.2-.689 4.51.854 5.9 3.937.67 1.494 3.125 3.306 4.015 3.878a1.191 1.191 0 01-1.288 2c-.388-.248-3.821-2.5-4.9-4.9-.683-1.513-1.917-2.984-3.011-2.643a1.9 1.9 0 00-1.209 1.207c-.332.9-.5 3.036 2.095 7.237a1.191 1.191 0 01-1.012 1.818z" class="cls-8" transform="translate(-458.941 -197.257)"/></g><g id="그룹_1746" transform="translate(22.909 .92)"><path id="패스_1067" d="M470.024 190.593c.073.243-2.007 1.089-4.65 1.9s-4.844 1.267-4.917 1.026 2.012-1.086 4.65-1.895 4.846-1.269 4.917-1.031z" class="cls-7" transform="translate(-460.282 -186.529)"/><path id="패스_1068" d="M467.508 188.03c.2.2-1.243 1.933-3.214 3.867s-3.734 3.34-3.929 3.136 1.24-1.933 3.214-3.869 3.73-3.336 3.929-3.134z" class="cls-7" transform="translate(-460.346 -188.011)"/><path id="패스_1069" d="M470.281 193.784c-.032.241-2.276.151-5.014-.208s-4.934-.845-4.9-1.088 2.276-.149 5.015.206 4.933.849 4.899 1.09z" class="cls-7" transform="translate(-460.336 -185.457)"/></g><g id="그룹_1747" transform="translate(3.305)"><path id="패스_1070" d="M448.38 189.843c-.1.235 1.9 1.269 4.455 2.317s4.7 1.71 4.8 1.478-1.9-1.269-4.456-2.317-4.707-1.707-4.799-1.478z" class="cls-7" transform="translate(-447.782 -186.041)"/><path id="패스_1071" d="M450.241 187.446c-.213.181 1.059 2.041 2.843 4.145s3.408 3.668 3.622 3.486-1.056-2.038-2.841-4.146-3.408-3.667-3.624-3.485z" class="cls-7" transform="translate(-446.699 -187.432)"/><path id="패스_1072" d="M448 192.732c.011.248 2.255.365 5.01.259s4.993-.384 4.987-.632-2.253-.359-5.015-.256-4.988.386-4.982.629z" class="cls-7" transform="translate(-448.002 -184.707)"/></g></g></g></g></g></g></svg>