<svg xmlns="http://www.w3.org/2000/svg" width="113.002" height="113" viewBox="0 0 113.002 113"><defs><clipPath id="clip-path"><path id="SVGID" fill="none" d="M758.264 272.837a56.5 56.5 0 10-56.5-56.5 56.5 56.5 0 0056.5 56.5" transform="translate(-701.763 -159.837)"/></clipPath><style>.cls-4{fill:#e62e24}.cls-6{fill:#fff}.cls-7{fill:#221714}.cls-8{fill:#e61f19}</style></defs><g id="profile_08"><g id="그룹_1696"><path id="패스_973" fill="#6bb72d" d="M758.264 272.837a56.5 56.5 0 10-56.5-56.5 56.5 56.5 0 0056.5 56.5" transform="translate(-701.763 -159.837)"/></g><g id="그룹_1786"><g id="그룹_1785" clip-path="url(#clip-path)"><g id="그룹_1784" transform="translate(20.155 11.109)"><g id="그룹_1779"><g id="그룹_1777" transform="translate(0 11.256)"><path id="패스_1106" d="M754.364 183.219a8.3 8.3 0 004.124-.974 37.208 37.208 0 00-6.521-4.842 4.847 4.847 0 00-.915-.17 5.636 5.636 0 00-2.546.4l-2.9 1.191-.116.335.184 1.636a14.708 14.708 0 002.525 7.018 7.751 7.751 0 004.094 2.417c-.1-.245-.192-.5-.275-.769-.092-.3-.2-.667-.324-1.094-.241-.826-.54-1.863-.88-2.865l-1.031-3.043 3.16.573a11.971 11.971 0 001.421.187z" class="cls-4" transform="translate(-696.205 -171.978)"/><path id="패스_1107" d="M737.708 173.92a7.774 7.774 0 001.993 2.565 12.3 12.3 0 002.007 1.286l3.251 1.694-3.267 1.669c-1.139.58-2.368 1.34-3.353 1.95-.418.256-.78.481-1.064.648a11.4 11.4 0 01-.723.389 7.679 7.679 0 004.667.94 14.607 14.607 0 006.57-3.524l1-.891-.551-3.029a5.228 5.228 0 00-1.263-2.592c-.457-.132-.9-.276-1.372-.394a38.619 38.619 0 00-7.895-.711z" class="cls-4" transform="translate(-701.459 -173.92)"/><path id="패스_1108" d="M779.446 186.925c10.222 11.846 10.372 27.372 10.478 31.358.157 5.779 3.173 34.212-9.994 49.813-20.785 24.638-47.095 15.187-57.849 2.085-16.179-19.7-1.586-42.286-1.586-42.286-1.72-1.166-8.636-18.384-2.671-32.543 6.743-15.975 19.411-20.4 28.848-21.306-.001.001 21.167.454 32.774 12.879z" class="cls-4" transform="translate(-714.455 -173.845)"/></g><g id="그룹_1778" transform="translate(28.213)"><path id="패스_1109" fill="#e73a18" d="M760.727 192.712c-.27-.864-.7-2.474-1.218-4.005a13.931 13.931 0 001.652.211c5.781.337 10.966-5.744 10.966-5.744a10.2 10.2 0 01-5.409-.751c-1.828-.8-6.348-3.14-8.65-3.268a7.568 7.568 0 00-3.375.54c1.969-3.83 3.589-7.913 3.589-7.913-1.494-1.553-4.715-.346-4.715-.346.089 1.949-.912 5.2-1.814 7.713a7.325 7.325 0 00-2.753-4.507c-1.8-1.432-6.714-2.727-8.611-3.351a10.265 10.265 0 01-4.526-3.062s-.224 7.983 4.3 11.606a14.456 14.456 0 002.312 1.483c-1.7.866-3.564 2.095-4.515 2.654a8.531 8.531 0 01-4.393 1.156s4.885 4.515 9.633 3.665a16.365 16.365 0 007.488-3.969 16.466 16.466 0 002.911 7.961c2.965 3.815 9.614 3.727 9.614 3.727a8.553 8.553 0 01-2.486-3.8z" transform="translate(-731.423 -166.01)"/><path id="패스_1110" d="M763.963 198.128c-.764 0-7.143-.119-10.184-4.034a16.223 16.223 0 01-2.863-6.938 15.925 15.925 0 01-6.771 3.24c-5.077.913-10.1-3.668-10.31-3.864l-1.614-1.491 2.195.116a7.811 7.811 0 003.945-1.048c.275-.16.621-.375 1.018-.621.645-.4 1.448-.9 2.277-1.371a13.024 13.024 0 01-1.183-.842c-4.783-3.824-4.61-11.906-4.6-12.249l.062-2.195 1.358 1.729a9.564 9.564 0 004.146 2.8c.348.114.8.251 1.313.408 2.376.723 5.963 1.815 7.545 3.078a8.445 8.445 0 012.246 2.671 17.331 17.331 0 001.029-5.223l-.027-.576.54-.2c.154-.057 3.732-1.367 5.566.538l.354.368-.187.475c-.014.035-1.231 3.094-2.822 6.379a8.7 8.7 0 011.917-.091c2.012.113 5.393 1.693 7.629 2.738.505.237.948.445 1.293.6a9.482 9.482 0 004.95.7l2.174-.383-1.431 1.68c-.222.26-5.482 6.382-11.615 6.022-.154-.01-.306-.021-.459-.036.191.618.362 1.213.513 1.731.121.418.227.785.316 1.07a7.831 7.831 0 002.236 3.418l1.706 1.383-2.193.03zm-11.852-14.089l.172 1.517a15.738 15.738 0 002.749 7.566c1.752 2.253 5 3.022 7.073 3.284a9.182 9.182 0 01-1.34-2.633c-.09-.292-.2-.67-.325-1.1a64.871 64.871 0 00-.885-2.886l-.434-1.275 1.324.238a13.328 13.328 0 001.559.2c3.611.206 7.1-2.4 8.939-4.085a10.846 10.846 0 01-3.753-.893 65.067 65.067 0 01-1.324-.608c-2-.934-5.338-2.5-7.048-2.593a6.771 6.771 0 00-3.029.483l-1.993.819.986-1.917c1.505-2.932 2.82-6.047 3.33-7.289a4.631 4.631 0 00-2.96-.024 27.891 27.891 0 01-1.857 7.4l-1 2.79-.527-2.917a6.538 6.538 0 00-2.465-4.027c-1.342-1.072-4.894-2.152-7.015-2.8-.529-.162-.991-.3-1.347-.419a10.907 10.907 0 01-3.391-1.855c.238 2.487 1.066 6.746 3.913 9.023a13.346 13.346 0 002.185 1.4l1.359.713-1.369.7c-1.177.6-2.425 1.372-3.427 1.991-.41.254-.767.476-1.047.64a9.178 9.178 0 01-2.749 1.061c1.718 1.191 4.644 2.8 7.448 2.295a15.749 15.749 0 007.1-3.783z" class="cls-6" transform="translate(-732.22 -166.832)"/></g></g><g id="그룹_1783" transform="translate(13.029 39.894)"><g id="그룹_1780" transform="translate(8.478)"><path id="패스_1111" d="M737.527 199.132a4.95 4.95 0 11-2.7-6.459 4.949 4.949 0 012.7 6.459z" class="cls-6" transform="translate(-727.998 -191.75)"/><path id="패스_1112" d="M734.992 197.665a2.994 2.994 0 11-1.632-3.911 2.99 2.99 0 011.632 3.911z" class="cls-7" transform="translate(-727.273 -191.027)"/><path id="패스_1113" d="M750.483 198.783a4.95 4.95 0 11-2.695-6.457 4.947 4.947 0 012.695 6.457z" class="cls-6" transform="translate(-720.378 -191.953)"/><path id="패스_1114" d="M747.921 197.3a2.971 2.971 0 11-1.62-3.877 2.976 2.976 0 011.62 3.877z" class="cls-7" transform="translate(-719.645 -191.22)"/></g><path id="패스_1115" d="M743.315 203.895c.167 3.446-1.505 6.314-3.735 6.419s-4.175-2.59-4.342-6.03 1.5-6.308 3.737-6.424 4.172 2.601 4.34 6.035z" class="cls-7" transform="translate(-715.268 -188.481)"/><g id="그룹_1781" transform="translate(31.725 13.259)"><path id="패스_1116" d="M757.9 204.41s-4.872-.17-7.138-1.766-4.994-2.309-6.473-.656-2.146 5.738 6.349 10.176" class="cls-8" transform="translate(-742.195 -199.865)"/><path id="패스_1117" d="M751.072 213.793a1.187 1.187 0 01-.55-.137c-4.669-2.439-7.294-5.095-7.8-7.893a4.838 4.838 0 011.118-4.132c1.726-1.931 4.883-1.744 8.044.475 1.621 1.143 5.239 1.507 6.5 1.552a1.191 1.191 0 01-.084 2.381c-.535-.019-5.3-.233-7.781-1.984-1.726-1.212-3.908-1.944-4.9-.835a2.427 2.427 0 00-.55 2.118c.208 1.147 1.337 3.478 6.562 6.208a1.192 1.192 0 01-.554 2.247z" class="cls-7" transform="translate(-742.636 -200.302)"/></g><g id="그룹_1782" transform="translate(0 13.894)"><path id="패스_1118" d="M723.409 204.529s4.877-.051 7.183-1.588 5.049-2.187 6.487-.5 2 5.792-6.6 10.016" class="cls-8" transform="translate(-722.218 -200.265)"/><path id="패스_1119" d="M730.922 214.088a1.192 1.192 0 01-.527-2.261c5.291-2.6 6.478-4.9 6.714-6.044a2.459 2.459 0 00-.5-2.128c-.964-1.132-3.167-.456-4.92.715-2.527 1.685-7.3 1.782-7.831 1.788h-.013a1.191 1.191 0 01-.013-2.382c1.259-.014 4.89-.291 6.535-1.388 3.213-2.142 6.376-2.25 8.055-.278a4.846 4.846 0 011.015 4.158c-.578 2.786-3.267 5.376-8 7.7a1.189 1.189 0 01-.515.12z" class="cls-7" transform="translate(-722.659 -200.702)"/></g></g></g></g></g></g></svg>