<svg xmlns="http://www.w3.org/2000/svg" width="113.002" height="113" viewBox="0 0 113.002 113"><defs><clipPath id="clip-path"><path id="SVGID" fill="none" d="M206.081 272.837a56.5 56.5 0 10-56.5-56.5 56.5 56.5 0 0056.5 56.5" transform="translate(-149.58 -159.837)"/></clipPath><style>.cls-2{fill:#d6e169}.cls-4{fill:#211613}.cls-5{fill:#e62e24}.cls-7{fill:#fff}.cls-8{fill:#221714}</style></defs><g id="profile_02" transform="translate(-193.18 -711)"><g id="그룹_1690" transform="translate(193.18 711)"><path id="패스_967" d="M206.081 272.837a56.5 56.5 0 10-56.5-56.5 56.5 56.5 0 0056.5 56.5" class="cls-2" transform="translate(-149.58 -159.837)"/></g><g id="그룹_1717" transform="translate(193.18 711)"><g id="그룹_1716" clip-path="url(#clip-path)"><g id="그룹_1715" transform="translate(6.563 8.418)"><path id="패스_1004" d="M175.793 231.06s1.82 3.508 2.023 11.491c.127 4.936.867 7.745 1.831 8.714s3.348 3.125 1.1 4.261c-1.153.588-3.435-3.125-3.813-4.355-.923-2.992-.948-7.232-1.45-11.514-.659-5.628-.01-7.27-2.533-9.1s2.842.503 2.842.503z" class="cls-4" transform="translate(-142.796 -127.08)"/><path id="패스_1005" d="M190.4 231.01s-2.2 3.284-3.29 11.2c-.672 4.89-1.72 7.6-2.79 8.455s-3.673 2.733-1.564 4.115c1.083.708 3.761-2.727 4.274-3.9 1.251-2.873 1.748-7.088 2.72-11.286 1.282-5.519.821-7.221 3.532-8.76s-2.882.176-2.882.176z" class="cls-4" transform="translate(-137.106 -126.884)"/><g id="그룹_1709" transform="translate(8.675 11.448)"><path id="패스_1006" d="M201.676 182.7a8.319 8.319 0 004.18-.689 36.885 36.885 0 00-6.176-5.272 5.123 5.123 0 00-.9-.237 5.7 5.7 0 00-2.569.23l-2.976.993-.14.326.073 1.644a14.7 14.7 0 002.045 7.175 7.753 7.753 0 003.919 2.69 10.202 10.202 0 01-.224-.786c-.071-.3-.156-.683-.248-1.113-.186-.842-.413-1.9-.684-2.919l-.821-3.106 3.113.786a11.819 11.819 0 001.408.278z" class="cls-5" transform="translate(-139.228 -169.932)"/><path id="패스_1007" d="M185.9 172.392a7.784 7.784 0 001.814 2.7 12.387 12.387 0 001.915 1.417l3.129 1.915-3.372 1.442c-1.177.5-2.455 1.175-3.478 1.718-.434.226-.808.424-1.107.573-.251.124-.5.238-.745.338a7.656 7.656 0 004.593 1.253 14.6 14.6 0 006.794-3.068l1.059-.821-.345-3.059a5.24 5.24 0 00-1.083-2.673c-.448-.162-.88-.333-1.344-.484a38.711 38.711 0 00-7.83-1.251z" class="cls-5" transform="translate(-144.545 -172.321)"/><path id="패스_1008" d="M228.314 187.416c9.4 12.511 8.495 28.012 8.329 32-.235 5.774.846 34.347-13.345 49.023-22.411 23.169-48.017 11.958-57.86-1.841-14.806-20.758 1.283-42.3 1.283-42.3-1.639-1.278-7.37-18.927-.459-32.648 7.81-15.481 20.748-19.038 30.226-19.3.001-.003 21.087 1.88 31.826 15.066z" class="cls-5" transform="translate(-159.175 -172.347)"/></g><g id="그룹_1710" transform="translate(41.537)"><path id="패스_1009" fill="#e73a18" d="M207.754 192.672c-.211-.881-.529-2.514-.943-4.077a13.334 13.334 0 001.634.322c5.744.727 11.328-4.988 11.328-4.988a10.189 10.189 0 01-5.344-1.116c-1.771-.924-6.12-3.561-8.409-3.846a7.551 7.551 0 00-3.4.31c2.225-3.687 4.116-7.651 4.116-7.651-1.386-1.652-4.682-.665-4.682-.665-.041 1.95-1.261 5.133-2.331 7.574a7.326 7.326 0 00-2.438-4.685c-1.693-1.55-6.511-3.176-8.363-3.926a10.274 10.274 0 01-4.307-3.36s-.767 7.95 3.507 11.869a14.1 14.1 0 002.206 1.636c-1.755.748-3.7 1.849-4.685 2.342a8.536 8.536 0 01-4.459.856s4.567 4.834 9.36 4.308a16.355 16.355 0 007.742-3.452 16.476 16.476 0 002.363 8.142c2.7 4.008 9.34 4.37 9.34 4.37a8.565 8.565 0 01-2.235-3.963z" transform="translate(-179.096 -164.301)"/><path id="패스_1010" d="M212.9 198.383l-2.188-.119c-.287-.016-7.069-.434-9.954-4.72a16.221 16.221 0 01-2.385-7.116 15.891 15.891 0 01-6.973 2.772c-5.133.548-9.825-4.343-10.024-4.553l-1.507-1.6 2.182.264a7.821 7.821 0 004.007-.778c.284-.141.646-.333 1.061-.553.669-.354 1.5-.794 2.358-1.21a13.785 13.785 0 01-1.123-.921c-4.51-4.139-3.792-12.19-3.759-12.53l.211-2.185 1.237 1.815a9.552 9.552 0 003.948 3.07c.338.138.777.3 1.278.5 2.322.883 5.83 2.215 7.323 3.583a8.5 8.5 0 012.06 2.819 17.2 17.2 0 001.378-5.141l.013-.576.554-.167c.156-.048 3.815-1.113 5.517.916l.329.391-.219.461c-.017.035-1.437 3-3.248 6.174a8.841 8.841 0 011.918.038c2 .249 5.264 2.055 7.424 3.249.489.27.916.507 1.251.681a9.525 9.525 0 004.89 1.031l2.195-.235-1.54 1.58c-.24.245-5.927 5.984-12 5.22a12.809 12.809 0 01-.456-.067c.146.623.278 1.223.392 1.747.092.43.175.808.245 1.1a7.86 7.86 0 002 3.564zM199.779 183.4l.07 1.525a15.731 15.731 0 002.228 7.736c1.59 2.361 4.783 3.351 6.834 3.756a9.186 9.186 0 01-1.156-2.719c-.073-.3-.157-.689-.254-1.132a68.32 68.32 0 00-.684-2.927l-.345-1.3 1.305.329a12.717 12.717 0 001.537.3c3.615.453 7.246-1.912 9.2-3.47a10.89 10.89 0 01-3.684-1.145c-.34-.178-.778-.419-1.28-.7-1.93-1.067-5.158-2.852-6.857-3.063a6.77 6.77 0 00-3.054.275l-2.045.684 1.113-1.847c1.7-2.822 3.227-5.843 3.819-7.045a4.624 4.624 0 00-2.952-.227 27.787 27.787 0 01-2.355 7.256l-1.186 2.708-.33-2.938a6.548 6.548 0 00-2.185-4.186c-1.267-1.161-4.739-2.481-6.814-3.27-.513-.2-.964-.367-1.31-.507a10.974 10.974 0 01-3.257-2.079c.068 2.495.605 6.8 3.292 9.266a13.215 13.215 0 002.085 1.545l1.312.8-1.417.6c-1.213.518-2.509 1.2-3.549 1.753-.427.225-.8.424-1.093.569a9.178 9.178 0 01-2.813.872c1.633 1.305 4.461 3.1 7.272 2.793a15.7 15.7 0 007.343-3.292z" class="cls-7" transform="translate(-179.868 -165.138)"/></g><g id="그룹_1712" transform="translate(32.378 35.784)"><g id="그룹_1711"><path id="패스_1011" d="M181.938 194.065a4.221 4.221 0 11-1.445-5.79 4.222 4.222 0 011.445 5.79z" class="cls-7" transform="translate(-174.101 -187.671)"/><path id="패스_1012" d="M179.89 192.586a2.552 2.552 0 11-.873-3.5 2.545 2.545 0 01.873 3.5z" class="cls-4" transform="translate(-173.483 -187.055)"/><path id="패스_1013" d="M194.767 196.367a4.22 4.22 0 11-1.442-5.792 4.218 4.218 0 011.442 5.792z" class="cls-7" transform="translate(-166.556 -186.317)"/><path id="패스_1014" d="M192.7 194.874a2.531 2.531 0 11-.865-3.48 2.53 2.53 0 01.865 3.48z" class="cls-4" transform="translate(-165.931 -185.691)"/></g></g><g id="그룹_1713" transform="translate(83.068 63.059)"><path id="패스_1015" d="M206.769 205.6s4.329 3.641 7.518 4.029 6.093 1.895 6.081 4.466-2.616 6.606-13.373 3.827" class="cls-5" transform="translate(-205.579 -204.405)"/><path id="패스_1016" d="M213.842 220.5a27.277 27.277 0 01-6.7-.983 1.192 1.192 0 01.6-2.307c6.7 1.731 9.535.569 10.635-.278a3.048 3.048 0 001.248-2.4c.008-1.837-2.522-2.971-5.034-3.279-3.5-.426-7.952-4.142-8.139-4.3a1.191 1.191 0 111.533-1.823c1.131.951 4.574 3.476 6.894 3.759 4.345.534 7.143 2.754 7.129 5.655a5.423 5.423 0 01-2.176 4.274 9.592 9.592 0 01-5.99 1.682z" class="cls-4" transform="translate(-206.02 -204.846)"/></g><g id="그룹_1714" transform="translate(0 61.451)"><path id="패스_1017" d="M171.139 206.418s-5.612.694-8.5-.715-6.143-1.731-7.534.432-1.405 6.962 9.133 10.492" class="cls-5" transform="translate(-153.272 -203.395)"/><path id="패스_1018" d="M164.681 218.257a1.163 1.163 0 01-.378-.062c-5.735-1.92-9.185-4.44-10.259-7.493a5.435 5.435 0 01.5-4.774c1.572-2.442 5.128-2.779 9.058-.858 2.107 1.027 6.365.783 7.829.6a1.191 1.191 0 01.292 2.363c-.243.03-6 .721-9.166-.826-2.274-1.113-5.017-1.54-6.009 0a3.06 3.06 0 00-.259 2.7c.459 1.305 2.209 3.827 8.768 6.024a1.191 1.191 0 01-.378 2.32z" class="cls-4" transform="translate(-153.713 -203.833)"/></g><path id="패스_1019" d="M193.645 199.922a8.639 8.639 0 01-17.1-2.368c.624-4.513 4.409-3.664 9.127-3.009s8.596.865 7.973 5.377z" class="cls-4" transform="translate(-140.328 -148.154)"/><path id="패스_1020" d="M209.961 186.394s2.117-1.428 5.566-3.977l1.9-1.693s3.6 3.016 3.865 4.655c0 0-7.478 5.676-8.6 6.171-2.169.959-3.233-2.489-1.694-3.36 1.79-1.012 2.868 1.582 1.7 2.666 0 0 1.626-1.062 5.085-3.622l-2.568-3.873a46.051 46.051 0 01-5.261 3.726c-2.173.961-3.235-2.489-1.694-3.357 1.792-1.014 2.87 1.577 1.701 2.664z" class="cls-8" transform="translate(-122.06 -155.972)"/></g></g></g><g id="그룹_1787" transform="translate(229.695 783.495)"><path id="패스_1120" d="M184.421 212.869c1.621-.53-10.808-6.883-10.808-6.883l-.54 12.7 11.348-4.234 12.97 5.293.54-11.117z" class="cls-2" transform="translate(-172.28 -205.192)"/><path id="패스_1121" d="M197.685 220.838a.789.789 0 01-.3-.059L184.7 215.6l-11.056 4.126a.793.793 0 01-1.07-.778l.54-12.7a.793.793 0 011.155-.673c7.564 3.867 10.121 5.665 10.972 6.592l12.746-4a.8.8 0 011.031.8l-.54 11.117a.794.794 0 01-.792.754zm-12.957-6.881a.787.787 0 01.287.059l11.93 4.869.43-8.858-12.424 3.894a.741.741 0 01-.223.036zm-10.081-6.4l-.435 10.265 10.226-3.815a.521.521 0 10-.478-.6.766.766 0 01-.027-.372c-1.02-.943-5.245-3.371-9.286-5.478z" class="cls-8" transform="translate(-172.573 -205.486)"/></g></g></svg>