<svg xmlns="http://www.w3.org/2000/svg" width="113.003" height="113" viewBox="0 0 113.003 113"><defs><clipPath id="clip-path"><path id="SVGID" fill="none" d="M574.274 272.837a56.5 56.5 0 10-56.5-56.5 56.5 56.5 0 0056.5 56.5" transform="translate(-517.773 -159.837)"/></clipPath><style>.cls-4{fill:#e62e24}.cls-6{fill:#fff}.cls-9{fill:#221714}.cls-10{fill:#e61f19}</style></defs><g id="profile_06"><g id="그룹_1694"><path id="패스_971" fill="#dc5d9c" d="M574.274 272.837a56.5 56.5 0 10-56.5-56.5 56.5 56.5 0 0056.5 56.5" transform="translate(-517.773 -159.837)"/></g><g id="그룹_1767"><g id="그룹_1766" clip-path="url(#clip-path)"><g id="그룹_1765" transform="translate(19.611 11.109)"><g id="그룹_1752" transform="translate(0 11.256)"><path id="패스_1073" d="M570.031 183.219a8.3 8.3 0 004.124-.974 37.212 37.212 0 00-6.521-4.842 4.849 4.849 0 00-.915-.17 5.636 5.636 0 00-2.546.4l-2.9 1.191-.116.335.184 1.636a14.71 14.71 0 002.525 7.018 7.751 7.751 0 004.094 2.417c-.1-.245-.192-.5-.275-.769-.092-.3-.2-.667-.324-1.094-.241-.826-.54-1.863-.88-2.865l-1.031-3.043 3.16.573a11.977 11.977 0 001.421.187z" class="cls-4" transform="translate(-511.872 -171.978)"/><path id="패스_1074" d="M553.375 173.92a7.773 7.773 0 001.993 2.565 12.288 12.288 0 002.007 1.286l3.251 1.694-3.267 1.669c-1.139.58-2.368 1.34-3.353 1.95-.418.256-.78.481-1.064.648a11.4 11.4 0 01-.723.389 7.68 7.68 0 004.667.94 14.607 14.607 0 006.57-3.524l1-.891-.551-3.029a5.228 5.228 0 00-1.263-2.592c-.457-.132-.9-.276-1.372-.394a38.619 38.619 0 00-7.895-.711z" class="cls-4" transform="translate(-517.126 -173.92)"/><path id="패스_1075" d="M595.113 186.925c10.222 11.846 10.372 27.372 10.478 31.358.157 5.779 3.173 34.212-9.994 49.813-20.785 24.638-47.095 15.187-57.849 2.085-16.179-19.7-1.587-42.286-1.587-42.286-1.72-1.166-8.636-18.384-2.671-32.543 6.743-15.975 19.411-20.4 28.848-21.306 0 .001 21.168.454 32.775 12.879z" class="cls-4" transform="translate(-530.122 -173.845)"/></g><g id="그룹_1753" transform="translate(28.213)"><path id="패스_1076" fill="#e73a18" d="M576.393 192.712c-.27-.864-.7-2.474-1.218-4.005a13.934 13.934 0 001.652.211c5.781.337 10.966-5.744 10.966-5.744a10.2 10.2 0 01-5.409-.751c-1.828-.8-6.348-3.14-8.65-3.268a7.569 7.569 0 00-3.375.54c1.969-3.83 3.589-7.913 3.589-7.913-1.495-1.553-4.715-.346-4.715-.346.089 1.949-.912 5.2-1.814 7.713a7.324 7.324 0 00-2.749-4.507c-1.8-1.432-6.714-2.727-8.611-3.351a10.265 10.265 0 01-4.526-3.062s-.224 7.983 4.3 11.606a14.451 14.451 0 002.312 1.483c-1.7.866-3.564 2.095-4.515 2.654a8.53 8.53 0 01-4.393 1.156s4.885 4.515 9.633 3.665a16.365 16.365 0 007.488-3.969 16.465 16.465 0 002.911 7.961c2.965 3.815 9.614 3.727 9.614 3.727a8.554 8.554 0 01-2.49-3.8z" transform="translate(-547.09 -166.01)"/><path id="패스_1077" d="M579.63 198.128c-.764 0-7.143-.119-10.184-4.034a16.223 16.223 0 01-2.863-6.938 15.925 15.925 0 01-6.772 3.24c-5.083.913-10.1-3.668-10.31-3.864l-1.613-1.491 2.195.116a7.811 7.811 0 003.945-1.048c.275-.16.621-.375 1.018-.621.645-.4 1.448-.9 2.277-1.371a13.015 13.015 0 01-1.183-.842c-4.783-3.824-4.61-11.906-4.6-12.249l.062-2.195 1.358 1.729a9.563 9.563 0 004.146 2.8c.348.114.8.251 1.313.408 2.376.723 5.963 1.815 7.545 3.078a8.443 8.443 0 012.246 2.671 17.328 17.328 0 001.029-5.223l-.027-.576.54-.2c.154-.057 3.732-1.367 5.566.538l.354.368-.187.475c-.014.035-1.231 3.094-2.822 6.379a8.7 8.7 0 011.917-.091c2.012.113 5.393 1.693 7.629 2.738.505.237.948.445 1.293.6a9.482 9.482 0 004.95.7l2.174-.383-1.431 1.68c-.222.26-5.511 6.382-11.615 6.022-.154-.01-.306-.021-.459-.036.191.618.362 1.213.513 1.731.121.419.227.786.316 1.072a7.831 7.831 0 002.236 3.416l1.706 1.383-2.193.03zm-11.852-14.089l.172 1.517a15.741 15.741 0 002.749 7.566c1.752 2.253 5 3.022 7.073 3.284a9.18 9.18 0 01-1.34-2.633c-.091-.292-.2-.67-.326-1.1a64.871 64.871 0 00-.885-2.886l-.434-1.275 1.324.238a13.327 13.327 0 001.56.2c3.6.206 7.1-2.4 8.939-4.085a10.846 10.846 0 01-3.753-.893 67.413 67.413 0 01-1.325-.608c-2-.934-5.337-2.5-7.048-2.593a6.778 6.778 0 00-3.028.483l-1.993.819.986-1.917c1.506-2.932 2.82-6.047 3.33-7.289a4.631 4.631 0 00-2.96-.024 27.887 27.887 0 01-1.856 7.4l-1 2.79-.527-2.917a6.538 6.538 0 00-2.465-4.027c-1.342-1.072-4.894-2.152-7.015-2.8-.529-.162-.991-.3-1.347-.419a10.907 10.907 0 01-3.391-1.855c.238 2.487 1.066 6.746 3.913 9.023a13.34 13.34 0 002.185 1.4l1.359.713-1.369.7c-1.177.6-2.425 1.372-3.427 1.991-.41.254-.767.476-1.047.64a9.178 9.178 0 01-2.749 1.061c1.718 1.191 4.639 2.8 7.448 2.295a15.748 15.748 0 007.1-3.783z" class="cls-6" transform="translate(-547.887 -166.832)"/></g><g id="그룹_1758" transform="translate(15.826 44.234)"><g id="그룹_1754" transform="translate(7.029 12.343)"><path id="패스_1078" fill="#422023" d="M554.883 212.836a10.278 10.278 0 0010.167-10.378l-20.537.211a10.268 10.268 0 0010.37 10.167z" transform="translate(-544.513 -202.458)"/><path id="패스_1079" fill="#db585d" d="M560.051 208.074a11.319 11.319 0 00-4.216-1.7 9.939 9.939 0 00-8.734 2.219 10.225 10.225 0 0012.951-.518z" transform="translate(-542.992 -200.276)"/></g><g id="그룹_1755" transform="translate(1.688)"><path id="패스_1080" d="M550.55 201.732a4.887 4.887 0 11-2.635-6.386 4.886 4.886 0 012.635 6.386z" class="cls-6" transform="translate(-541.15 -194.52)"/><path id="패스_1081" d="M548.051 200.278a2.956 2.956 0 11-1.594-3.87 2.954 2.954 0 011.594 3.87z" class="cls-9" transform="translate(-540.435 -193.806)"/><path id="패스_1082" d="M563.344 201.453a4.887 4.887 0 11-2.63-6.39 4.888 4.888 0 012.63 6.39z" class="cls-6" transform="translate(-533.625 -194.686)"/><path id="패스_1083" d="M560.817 199.978a2.932 2.932 0 11-1.58-3.837 2.936 2.936 0 011.58 3.837z" class="cls-9" transform="translate(-532.901 -193.962)"/></g><g id="그룹_1756" transform="translate(0 14.713)"><path id="패스_1084" d="M540.837 210.331s4.674-1.155 6.538-3.156 4.358-3.248 6.122-1.952 3.238 5.109-4.065 11.125" class="cls-10" transform="translate(-539.646 -203.513)"/><path id="패스_1085" d="M549.873 217.977a1.191 1.191 0 01-.758-2.111c4.488-3.7 5.1-6.173 5.072-7.321a2.38 2.38 0 00-.954-1.923c-1.17-.864-3.13.283-4.547 1.8-2.046 2.2-6.61 3.373-7.123 3.5a1.191 1.191 0 01-.572-2.312c1.205-.3 4.626-1.386 5.952-2.811 2.609-2.8 5.627-3.619 7.7-2.1a4.8 4.8 0 011.923 3.778c.079 2.811-1.92 5.916-5.938 9.225a1.189 1.189 0 01-.755.275z" class="cls-9" transform="translate(-540.087 -203.95)"/></g><g id="그룹_1757" transform="translate(17.093 15.601)"><path id="패스_1086" d="M565.557 211.552s-4.6-1.437-6.336-3.546-4.154-3.5-5.993-2.315-3.541 4.906 3.389 11.35" class="cls-10" transform="translate(-550.409 -204.071)"/><path id="패스_1087" d="M557.058 218.67a1.193 1.193 0 01-.812-.319c-3.811-3.546-5.62-6.764-5.374-9.565a4.8 4.8 0 012.15-3.657c2.157-1.393 5.122-.389 7.558 2.557 1.24 1.5 4.588 2.8 5.773 3.168a1.191 1.191 0 01-.71 2.274c-.5-.159-4.99-1.609-6.9-3.926-1.324-1.6-3.209-2.862-4.429-2.072a2.4 2.4 0 00-1.07 1.864c-.1 1.145.367 3.654 4.623 7.612a1.192 1.192 0 01-.81 2.064z" class="cls-9" transform="translate(-550.85 -204.509)"/></g></g><g id="그룹_1761" transform="translate(17.314 39.687)"><g id="그룹_1759" transform="translate(0 1.187)"><path id="선_5" d="M1.39 2.779L0 0" class="cls-10" transform="translate(.794 .794)"/><path id="패스_1088" d="M543.207 196.937a.8.8 0 01-.71-.438l-1.39-2.779a.794.794 0 011.421-.71l1.39 2.779a.8.8 0 01-.356 1.066.81.81 0 01-.355.082z" class="cls-9" transform="translate(-541.024 -192.57)"/></g><g id="그룹_1760" transform="translate(6.431)"><path id="선_6" d="M0 3.801L.636 0" class="cls-10" transform="translate(.794 .795)"/><path id="패스_1089" d="M545.87 197.213a.739.739 0 01-.132-.011.794.794 0 01-.653-.915l.635-3.8a.795.795 0 111.567.262l-.637 3.8a.794.794 0 01-.78.664z" class="cls-9" transform="translate(-545.074 -191.823)"/></g></g><g id="그룹_1764" transform="translate(41.71 39.084)"><g id="그룹_1762" transform="translate(4.389 3.378)"><path id="선_7" d="M0 2.184L2.184 0" class="cls-10" transform="translate(.793 .795)"/><path id="패스_1090" d="M559.943 197.342a.793.793 0 01-.561-1.355l2.184-2.184a.794.794 0 011.123 1.123l-2.189 2.184a.8.8 0 01-.557.232z" class="cls-9" transform="translate(-559.15 -193.57)"/></g><g id="그룹_1763"><path id="선_8" d="M.003 3.378L0 0" class="cls-10" transform="translate(.794 .795)"/><path id="패스_1091" d="M557.183 196.409a.792.792 0 01-.794-.792v-3.378a.8.8 0 01.794-.8.794.794 0 01.794.794v3.378a.794.794 0 01-.794.794z" class="cls-9" transform="translate(-556.386 -191.443)"/></g></g></g></g></g></g></svg>