<svg xmlns="http://www.w3.org/2000/svg" width="113.002" height="113" viewBox="0 0 113.002 113"><defs><clipPath id="clip-path"><path id="SVGID" fill="none" d="M666.322 272.837a56.5 56.5 0 10-56.5-56.5 56.5 56.5 0 0056.5 56.5" transform="translate(-609.821 -159.837)"/></clipPath><style>.cls-2{fill:#221714}.cls-4{fill:#e62e24}.cls-6{fill:#fff}</style></defs><g id="profile_07"><g id="그룹_1695"><path id="패스_972" d="M666.322 272.837a56.5 56.5 0 10-56.5-56.5 56.5 56.5 0 0056.5 56.5" class="cls-2" transform="translate(-609.821 -159.837)"/></g><g id="그룹_1776"><g id="그룹_1775" clip-path="url(#clip-path)"><g id="그룹_1774" transform="translate(18.475 11.109)"><g id="그룹_1770"><g id="그룹_1768" transform="translate(0 11.256)"><path id="패스_1092" d="M661.365 183.219a8.3 8.3 0 004.124-.974 37.213 37.213 0 00-6.521-4.842 4.848 4.848 0 00-.915-.17 5.636 5.636 0 00-2.546.4l-2.9 1.191-.116.335.184 1.636a14.709 14.709 0 002.525 7.018 7.752 7.752 0 004.094 2.417c-.1-.245-.192-.5-.275-.769-.092-.3-.2-.667-.324-1.094-.241-.826-.54-1.863-.88-2.865l-1.031-3.043 3.16.573a11.973 11.973 0 001.421.187z" class="cls-4" transform="translate(-603.205 -171.978)"/><path id="패스_1093" d="M644.708 173.92a7.773 7.773 0 001.993 2.565 12.3 12.3 0 002.007 1.286l3.251 1.694-3.267 1.669c-1.139.58-2.368 1.34-3.353 1.95-.418.256-.78.481-1.064.648a11.4 11.4 0 01-.723.389 7.679 7.679 0 004.667.94 14.607 14.607 0 006.57-3.524l1-.891-.551-3.029a5.228 5.228 0 00-1.263-2.592c-.457-.132-.9-.276-1.372-.394a38.619 38.619 0 00-7.895-.711z" class="cls-4" transform="translate(-608.459 -173.92)"/><path id="패스_1094" d="M686.446 186.925c10.222 11.846 10.372 27.372 10.478 31.358.157 5.779 3.173 34.212-9.994 49.813-20.785 24.638-47.095 15.187-57.849 2.085-16.18-19.7-1.587-42.286-1.587-42.286-1.72-1.166-8.636-18.384-2.671-32.543 6.743-15.975 19.411-20.4 28.848-21.306 0 .001 21.168.454 32.775 12.879z" class="cls-4" transform="translate(-621.455 -173.845)"/></g><g id="그룹_1769" transform="translate(28.213)"><path id="패스_1095" fill="#e73a18" d="M667.727 192.712c-.27-.864-.7-2.474-1.218-4.005a13.932 13.932 0 001.651.211c5.781.337 10.966-5.744 10.966-5.744a10.2 10.2 0 01-5.409-.751c-1.828-.8-6.347-3.14-8.65-3.268a7.568 7.568 0 00-3.375.54c1.969-3.83 3.589-7.913 3.589-7.913-1.494-1.553-4.715-.346-4.715-.346.089 1.949-.912 5.2-1.814 7.713a7.325 7.325 0 00-2.752-4.507c-1.8-1.432-6.714-2.727-8.611-3.351a10.265 10.265 0 01-4.526-3.062s-.224 7.983 4.3 11.606a14.456 14.456 0 002.312 1.483c-1.7.866-3.564 2.095-4.515 2.654a8.53 8.53 0 01-4.393 1.156s4.885 4.515 9.633 3.665a16.365 16.365 0 007.488-3.969 16.466 16.466 0 002.911 7.961c2.965 3.815 9.614 3.727 9.614 3.727a8.553 8.553 0 01-2.486-3.8z" transform="translate(-638.423 -166.01)"/><path id="패스_1096" d="M670.963 198.128c-.764 0-7.143-.119-10.184-4.034a16.223 16.223 0 01-2.863-6.938 15.925 15.925 0 01-6.772 3.24c-5.083.913-10.1-3.668-10.31-3.864l-1.614-1.491 2.195.116a7.814 7.814 0 003.945-1.048c.275-.16.621-.375 1.018-.621.645-.4 1.448-.9 2.277-1.371a13.032 13.032 0 01-1.183-.842c-4.783-3.824-4.61-11.906-4.6-12.249l.062-2.195 1.358 1.729a9.564 9.564 0 004.146 2.8c.348.114.8.251 1.313.408 2.376.723 5.963 1.815 7.545 3.078a8.445 8.445 0 012.246 2.671 17.331 17.331 0 001.029-5.223l-.027-.576.54-.2c.152-.057 3.732-1.367 5.566.538l.354.368-.187.475c-.014.035-1.231 3.094-2.822 6.379a8.7 8.7 0 011.917-.091c2.012.113 5.393 1.693 7.629 2.738.505.237.948.445 1.293.6a9.483 9.483 0 004.95.7l2.174-.383-1.431 1.68c-.222.26-5.493 6.382-11.615 6.022-.154-.01-.306-.021-.459-.036.191.618.362 1.213.513 1.731.121.418.227.785.316 1.07a7.829 7.829 0 002.236 3.418l1.706 1.383-2.193.03zm-11.852-14.089l.172 1.517a15.741 15.741 0 002.749 7.566c1.752 2.253 5 3.022 7.073 3.284a9.182 9.182 0 01-1.34-2.633c-.09-.292-.2-.67-.326-1.1a64.871 64.871 0 00-.885-2.886l-.434-1.275 1.324.238a13.328 13.328 0 001.559.2c3.6.206 7.1-2.4 8.939-4.085a10.846 10.846 0 01-3.753-.893 65.067 65.067 0 01-1.324-.608c-2-.934-5.338-2.5-7.048-2.593a6.775 6.775 0 00-3.028.483l-1.993.819.986-1.917c1.505-2.932 2.82-6.047 3.33-7.289a4.631 4.631 0 00-2.96-.024 27.891 27.891 0 01-1.857 7.4l-1 2.79-.527-2.917a6.538 6.538 0 00-2.465-4.027c-1.342-1.072-4.894-2.152-7.015-2.8-.529-.162-.991-.3-1.347-.419a10.907 10.907 0 01-3.391-1.855c.238 2.487 1.066 6.746 3.913 9.023a13.346 13.346 0 002.185 1.4l1.359.713-1.369.7c-1.177.6-2.425 1.372-3.427 1.991-.41.254-.767.476-1.047.64a9.178 9.178 0 01-2.749 1.061c1.718 1.191 4.642 2.8 7.448 2.295a15.747 15.747 0 007.1-3.783z" class="cls-6" transform="translate(-639.22 -166.832)"/></g></g><g id="그룹_1773" transform="translate(17.908 37.665)"><path id="패스_1097" fill="#612d2f" d="M656.509 204.059a8.636 8.636 0 11-8.63-8.306 8.473 8.473 0 018.63 8.306z" transform="translate(-628.898 -187.489)"/><g id="그룹_1771" transform="translate(4.722)"><path id="패스_1098" d="M643.9 196.71a4.26 4.26 0 11-2.309-5.565 4.257 4.257 0 012.309 5.565z" class="cls-6" transform="translate(-635.704 -190.389)"/><path id="패스_1099" d="M641.725 195.446a2.577 2.577 0 11-1.4-3.368 2.578 2.578 0 011.4 3.368z" class="cls-2" transform="translate(-635.081 -189.766)"/><path id="패스_1100" d="M656.154 196.441a4.262 4.262 0 11-2.309-5.566 4.258 4.258 0 012.309 5.566z" class="cls-6" transform="translate(-628.5 -190.549)"/><path id="패스_1101" d="M653.949 195.158a2.557 2.557 0 11-1.386-3.341 2.558 2.558 0 011.386 3.341z" class="cls-2" transform="translate(-627.869 -189.918)"/></g><path id="패스_1102" d="M635.957 193.9a4.234 4.234 0 00-.176 1.215l8.5-.308a4.257 4.257 0 00-8.328-.907z" class="cls-6" transform="translate(-630.938 -190.371)"/><path id="패스_1103" fill="#db585d" d="M640.059 205.82a8.789 8.789 0 0014.829-.222c-.267-3.726-3.476-4.61-7.408-4.61-4.011-.001-7.27 1.001-7.421 4.832z" transform="translate(-628.422 -184.411)"/><g id="그룹_1772" transform="translate(0 17.987)"><path id="패스_1104" fill="#e61f19" d="M633.481 206.312s4.539-.394 6.575-1.99 4.548-2.4 6.008-.927 2.277 5.252-5.431 9.8" transform="translate(-632.29 -201.437)"/><path id="패스_1105" d="M641.075 214.826a1.191 1.191 0 01-.607-2.217c4.712-2.782 5.646-4.985 5.782-6.052a2.186 2.186 0 00-.591-1.883c-.946-.951-2.9-.171-4.428 1.024-2.25 1.764-6.706 2.2-7.207 2.239a1.191 1.191 0 11-.206-2.373c1.166-.1 4.507-.615 5.943-1.741 2.873-2.255 5.85-2.581 7.588-.829a4.588 4.588 0 011.264 3.865c-.34 2.662-2.674 5.287-6.935 7.8a1.176 1.176 0 01-.603.167z" class="cls-2" transform="translate(-632.731 -201.875)"/></g></g></g></g></g></g></svg>