<svg xmlns="http://www.w3.org/2000/svg" width="130" height="203" viewBox="0 0 130 203"><defs><style>.cls-1{fill:#e62e24}.cls-3{fill:#fff}.cls-6{fill:#221714}.cls-7{fill:#e61f19}</style></defs><g id="st_popup02" transform="translate(-561.379 -236)"><g id="그룹_1627" transform="translate(561.379 254.91)"><g id="그룹_1624" transform="translate(84.438 8.809)"><path id="패스_931" d="M607.622 256.465a14.448 14.448 0 007.063-1.635 63.565 63.565 0 00-11.169-8.135 8.457 8.457 0 00-1.567-.285 9.8 9.8 0 00-4.364.678l-4.974 2-.2.56.316 2.748c.324 2.772 1.317 7.988 4.326 11.79 1.684 2.124 4.416 3.354 7.015 4.061a16.217 16.217 0 01-.474-1.291c-.155-.5-.345-1.121-.552-1.838-.414-1.387-.928-3.13-1.51-4.813l-1.763-5.109 5.412.96a20.467 20.467 0 002.441.309z" class="cls-1" transform="translate(-592.412 -246.39)"/></g><g id="그룹_1625" transform="translate(60.127)"><path id="패스_932" d="M585.458 243.088a13.034 13.034 0 003.415 4.309 21.073 21.073 0 003.436 2.161l5.57 2.847-5.594 2.8c-1.951.974-4.06 2.252-5.747 3.279-.713.427-1.333.806-1.823 1.086-.414.24-.824.456-1.238.654 2.405 1.166 5.246 2.073 8 1.579 4.851-.851 9.131-4.077 11.256-5.92l1.714-1.5-.941-5.088a8.738 8.738 0 00-2.163-4.354c-.784-.221-1.543-.464-2.351-.662a67.427 67.427 0 00-13.534-1.191z" class="cls-1" transform="translate(-583.477 -243.088)"/></g><g id="그룹_1626" transform="translate(0 .339)"><path id="패스_933" d="M672.733 264.85c17.514 19.9 17.77 45.988 17.952 52.682.269 9.709 5.434 57.476-17.123 83.689-35.614 41.388-80.689 25.511-99.118 3.5-27.718-33.1-2.718-71.04-2.718-71.04-2.947-1.958-14.794-30.884-4.574-54.672 11.553-26.837 33.255-34.273 49.426-35.793 0-.001 36.267.757 56.155 21.634z" class="cls-1" transform="translate(-561.379 -243.215)"/></g></g><g id="그룹_1628" transform="translate(609.716 236)"><path id="패스_934" fill="#e73a18" d="M627.017 278.532c-.46-1.454-1.195-4.159-2.084-6.731a24.253 24.253 0 002.83.355c9.9.566 18.785-9.65 18.785-9.65a17.753 17.753 0 01-9.265-1.262c-3.132-1.347-10.876-5.272-14.821-5.491a13.193 13.193 0 00-5.782.907c3.374-6.435 6.147-13.294 6.147-13.294-2.558-2.609-8.076-.582-8.076-.582.15 3.274-1.565 8.746-3.107 12.961a12.25 12.25 0 00-4.71-7.572c-3.078-2.409-11.5-4.584-14.753-5.632a17.553 17.553 0 01-7.755-5.144s-.384 13.412 7.374 19.5a24.7 24.7 0 003.962 2.492c-2.911 1.454-6.106 3.519-7.738 4.458a14.847 14.847 0 01-7.523 1.942s8.369 7.585 16.5 6.158c5.632-.984 10.391-4.549 12.832-6.667.37 3.186 1.5 8.978 4.987 13.377 5.077 6.406 16.473 6.259 16.473 6.259a14.4 14.4 0 01-4.276-6.384z" transform="translate(-576.81 -233.67)"/><path id="패스_935" d="M633.532 288.578c-1.311 0-12.239-.2-17.449-6.777a26.921 26.921 0 01-4.906-11.654 27.543 27.543 0 01-11.6 5.44c-8.71 1.537-17.3-6.163-17.664-6.491l-2.767-2.5 3.763.192a13.649 13.649 0 006.759-1.761c.471-.27 1.064-.63 1.741-1.043 1.107-.67 2.481-1.5 3.9-2.3a23 23 0 01-2.027-1.414c-8.2-6.43-7.9-20-7.885-20.578l.106-3.69 2.329 2.905a16.353 16.353 0 007.1 4.7c.6.192 1.369.424 2.248.686 4.07 1.214 10.22 3.049 12.927 5.171a14.222 14.222 0 013.847 4.488c1.246-3.9 1.85-6.9 1.766-8.775l-.046-.968.925-.339c.261-.1 6.391-2.3 9.537.9l.607.619-.324.8c-.022.061-2.106 5.2-4.832 10.717a15.224 15.224 0 013.284-.152c3.447.189 9.24 2.844 13.071 4.6.865.395 1.622.742 2.215 1a16.5 16.5 0 008.478 1.169l3.728-.643-2.452 2.823c-.381.438-9.431 10.755-19.9 10.117a24.547 24.547 0 01-.786-.061c.326 1.038.62 2.038.879 2.908.207.7.389 1.321.541 1.8a13.167 13.167 0 003.829 5.741l2.925 2.321-3.758.053zm-20.306-23.668l.294 2.545c.343 2.959 1.412 8.548 4.71 12.71 3 3.786 8.568 5.077 12.119 5.517a15.284 15.284 0 01-2.3-4.423c-.158-.494-.343-1.126-.558-1.852-.414-1.4-.93-3.153-1.518-4.845l-.74-2.142 2.269.4a23.824 23.824 0 002.669.336c6.19.347 12.16-4.026 15.319-6.865a18.879 18.879 0 01-6.429-1.5c-.6-.259-1.38-.616-2.269-1.025-3.42-1.569-9.145-4.191-12.075-4.354a11.82 11.82 0 00-5.189.811l-3.417 1.377 1.69-3.22c2.582-4.925 4.835-10.162 5.709-12.243-1.437-.734-3.676-.406-5.072-.043-.128 2.839-1.2 7.009-3.181 12.427l-1.717 4.688-.9-4.9a10.965 10.965 0 00-4.223-6.766c-2.3-1.8-8.386-3.615-12.021-4.7-.9-.267-1.7-.5-2.3-.7a18.763 18.763 0 01-5.809-3.116c.405 4.178 1.826 11.333 6.7 15.159a22.986 22.986 0 003.744 2.353l2.329 1.2-2.345 1.171c-2.016 1.009-4.155 2.305-5.872 3.348-.7.424-1.314.8-1.793 1.073a15.844 15.844 0 01-4.71 1.782c2.941 2 7.956 4.709 12.758 3.853 5.281-.923 9.891-4.375 12.171-6.35z" class="cls-3" transform="translate(-579.144 -236)"/></g><g id="그룹_1639" transform="translate(588.496 310.312)"><g id="그룹_1631" transform="translate(12.04 20.736)"><g id="그룹_1629"><path id="패스_936" fill="#422023" d="M593.54 289.061a17.433 17.433 0 0017.419-17.435l-35.19.355a17.433 17.433 0 0017.771 17.08z" transform="translate(-575.77 -271.626)"/></g><g id="그룹_1630" transform="translate(7.042 9.897)"><path id="패스_937" fill="#db585d" d="M600.545 278.538a19.593 19.593 0 00-7.224-2.857c-5.937-1.1-11.586.494-14.962 3.727a17.784 17.784 0 0022.187-.87z" transform="translate(-578.358 -275.336)"/></g></g><g id="그룹_1636" transform="translate(2.89)"><g id="그룹_1632" transform="translate(0 .753)"><path id="패스_938" d="M588.514 275.5a8.433 8.433 0 01-10.949 4.418 8.146 8.146 0 01-4.511-10.733A8.425 8.425 0 01584 264.771a8.149 8.149 0 014.514 10.729z" class="cls-3" transform="translate(-572.407 -264.136)"/></g><g id="그룹_1633" transform="translate(3.309 3.991)"><path id="패스_939" d="M583.365 272.232a5.1 5.1 0 01-6.625 2.671 4.928 4.928 0 01-2.724-6.5 5.1 5.1 0 016.617-2.676 4.945 4.945 0 012.732 6.505z" class="cls-6" transform="translate(-573.624 -265.349)"/></g><g id="그룹_1634" transform="translate(34.813)"><path id="패스_940" d="M601.307 275.223a8.438 8.438 0 01-10.949 4.424 8.161 8.161 0 01-4.511-10.739 8.443 8.443 0 0110.954-4.421 8.16 8.16 0 014.506 10.736z" class="cls-3" transform="translate(-585.202 -263.854)"/></g><g id="그룹_1635" transform="translate(38.163 3.284)"><path id="패스_941" d="M596.1 271.908a5.067 5.067 0 01-6.571 2.655 4.886 4.886 0 01-2.7-6.443 5.061 5.061 0 016.568-2.657 4.9 4.9 0 012.703 6.445z" class="cls-6" transform="translate(-586.433 -265.084)"/></g></g><g id="그룹_1637" transform="translate(0 24.719)"><path id="패스_942" d="M572.095 283.333s8.008-1.937 11.2-5.3 7.466-5.456 10.489-3.279 5.545 8.583-6.965 18.689" class="cls-1" transform="translate(-570.054 -271.878)"/><path id="패스_943" d="M588.111 296.683a2.052 2.052 0 01-1.576-.728 1.975 1.975 0 01.278-2.817c7.686-6.208 8.742-10.37 8.69-12.3a3.979 3.979 0 00-1.635-3.234c-2.005-1.451-5.366.478-7.79 3.028-3.5 3.692-11.324 5.669-12.206 5.883a2.05 2.05 0 01-2.468-1.465 2 2 0 011.491-2.423c2.065-.5 7.926-2.329 10.2-4.722 4.473-4.7 9.643-6.078 13.194-3.527a8.013 8.013 0 013.3 6.347c.133 4.722-3.29 9.935-10.176 15.5a2.05 2.05 0 01-1.302.458z" class="cls-6" transform="translate(-571.345 -273.119)"/></g><g id="그룹_1638" transform="translate(29.285 26.207)"><path id="패스_944" d="M606.769 285s-7.872-2.412-10.854-5.958-7.118-5.885-10.269-3.89-6.068 8.241 5.8 19.068" class="cls-1" transform="translate(-580.817 -272.432)"/><path id="패스_945" d="M592.744 297.468a2.061 2.061 0 01-1.391-.536c-6.533-5.958-9.629-11.363-9.207-16.069a8.037 8.037 0 013.684-6.144c3.7-2.345 8.775-.654 12.949 4.3 2.125 2.524 7.861 4.7 9.891 5.323a1.994 1.994 0 011.339 2.505 2.049 2.049 0 01-2.555 1.313c-.868-.264-8.549-2.7-11.82-6.59-2.269-2.689-5.5-4.8-7.589-3.484a4.012 4.012 0 00-1.834 3.135c-.172 1.921.628 6.136 7.92 12.788a1.967 1.967 0 01.1 2.825 2.033 2.033 0 01-1.487.634z" class="cls-6" transform="translate(-582.108 -273.677)"/></g></g><g id="그룹_1642" transform="translate(591.046 302.675)"><g id="그룹_1640" transform="translate(0 1.994)"><path id="선_9" d="M2.381 4.669L0 0" class="cls-7" transform="translate(1.36 1.334)"/><path id="패스_946" d="M576.023 269.074a1.366 1.366 0 01-1.216-.736l-2.381-4.669a1.322 1.322 0 01.61-1.79 1.373 1.373 0 011.823.6l2.381 4.669a1.324 1.324 0 01-.607 1.79 1.382 1.382 0 01-.61.136z" class="cls-6" transform="translate(-572.282 -261.738)"/></g><g id="그룹_1641" transform="translate(11.019)"><path id="선_10" d="M0 6.386L1.089 0" class="cls-7" transform="translate(1.36 1.335)"/><path id="패스_947" d="M577.7 270.046a1.29 1.29 0 01-.226-.019 1.336 1.336 0 01-1.118-1.534l1.088-6.387a1.367 1.367 0 011.565-1.1 1.341 1.341 0 011.121 1.534l-1.091 6.387a1.353 1.353 0 01-1.339 1.119z" class="cls-6" transform="translate(-576.332 -260.991)"/></g></g><g id="그룹_1645" transform="translate(632.844 301.661)"><g id="그룹_1643" transform="translate(7.518 5.675)"><path id="선_11" d="M0 3.668L3.741 0" class="cls-7" transform="translate(1.361 1.335)"/><path id="패스_948" d="M591.767 269.074a1.369 1.369 0 01-.96-.389 1.312 1.312 0 010-1.886l3.741-3.668a1.375 1.375 0 011.924 0 1.317 1.317 0 010 1.886l-3.741 3.668a1.381 1.381 0 01-.964.389z" class="cls-6" transform="translate(-590.407 -262.738)"/></g><g id="그룹_1644"><path id="선_12" d="M.005 5.675L0 0" class="cls-7" transform="translate(1.359 1.335)"/><path id="패스_949" d="M589.007 268.954a1.346 1.346 0 01-1.36-1.334v-5.675a1.348 1.348 0 011.36-1.334 1.348 1.348 0 011.36 1.334v5.675a1.346 1.346 0 01-1.36 1.334z" class="cls-6" transform="translate(-587.644 -260.611)"/></g></g></g></svg>