<svg xmlns="http://www.w3.org/2000/svg" width="218" height="218" viewBox="0 0 218 218"><defs><style>.cls-1,.cls-6{fill:#221714}.cls-1,.cls-7{stroke:#221714}.cls-1{stroke-miterlimit:10;stroke-width:.6px}.cls-7{fill:#e61f19}.cls-5{fill:#fff}.cls-7{stroke-linecap:round;stroke-linejoin:round;stroke-width:1.5px}</style></defs><g id="st_popup02" transform="translate(2557 -3448)"><g id="그룹_9108" transform="rotate(13 -14913.137 -9791.238)"><path id="패스_32717" d="M195.321 384.689s-3.94.222-10.889 4.114c-4.3 2.4-7.087 3.192-8.4 2.853s-4.385-1.279-4.214 1.231c.082 1.282 4.423 1.353 5.669 1.057 3.036-.733 6.691-2.87 10.613-4.617 5.166-2.3 6.244-3.685 9.1-2.457s-1.879-2.181-1.879-2.181z" class="cls-1" transform="translate(9.531 106.64)"/><path id="패스_32718" d="M211.384 380.484s3.854-.825 11.586 1.078c4.783 1.172 7.677 1.2 8.862.523s3.887-2.4 4.39.059c.266 1.264-3.91 2.485-5.184 2.528-3.126.1-7.209-.991-11.464-1.629-5.588-.845-7-1.9-9.421.051s1.231-2.61 1.231-2.61z" class="cls-1" transform="translate(67.824 99.831)"/><path id="패스_32719" fill="#e61f19" d="M217.953 323.025s-47.4 3.552-52.066 50.712c-2.406 24.289 16.181 47.145 19.332 48.1 0 0-11.517 41.113 22.289 63.4 22.47 14.817 66.816 16.781 86.761-30.354 12.636-29.864-5.307-71.571-8.261-80.262s-17.422-54.163-68.055-51.596z" transform="translate(0 10.667)"/><g id="그룹_9106" transform="translate(210.302 393.927)"><path id="패스_32720" fill="#422023" d="M200.348 363.758a14.24 14.24 0 0010.455-17.21l-27.655 6.757a14.226 14.226 0 0017.2 10.453z" transform="translate(-183.149 -346.548)"/><path id="패스_32721" fill="#db585d" d="M203.641 351.694a15.635 15.635 0 00-6.229-.963c-4.888.212-9.038 2.518-11.091 5.741a14.178 14.178 0 0017.32-4.778z" transform="translate(-178.22 -340.075)"/></g><g id="그룹_9107" transform="translate(200.644 377.3)"><path id="패스_32722" d="M192.825 350.673a6.775 6.775 0 11-5.57-7.8 6.773 6.773 0 015.57 7.8z" class="cls-5" transform="translate(-179.367 -335.772)"/><path id="패스_32723" d="M188.554 348.6a4.1 4.1 0 11-3.371-4.714 4.093 4.093 0 013.371 4.714z" class="cls-6" transform="translate(-177.739 -334.146)"/><path id="패스_32724" d="M203.5 347.928a6.773 6.773 0 11-5.559-7.8 6.768 6.768 0 015.559 7.8z" class="cls-5" transform="translate(-162.769 -340.037)"/><path id="패스_32725" d="M199.185 345.831a4.062 4.062 0 11-3.343-4.678 4.068 4.068 0 013.343 4.678z" class="cls-6" transform="translate(-161.117 -338.388)"/></g><path id="패스_32726" d="M212.019 353.828s6.632-.687 9.579-3.077 6.6-3.626 8.772-1.507 3.468 7.636-7.71 14.49" class="cls-7" transform="translate(72.01 49.879)"/><path id="패스_32727" d="M186.825 361.495s-6.53 1.376-10.062.008-7.4-1.422-8.821 1.256-.955 8.328 11.786 11.425" class="cls-7" transform="translate(2.67 69.175)"/><path id="패스_32728" fill="#e73a18" stroke="#fff" stroke-miterlimit="10" d="M223.926 354.254c-.475-1.376-1.236-3.94-2.145-6.379a23.12 23.12 0 002.666.263c9.308.271 17.355-9.745 17.355-9.745a16.38 16.38 0 01-8.724-.955c-2.978-1.205-10.353-4.753-14.058-4.857a12.233 12.233 0 00-5.4 1.032c2.988-6.246 5.4-12.889 5.4-12.889-2.477-2.429-7.595-.337-7.595-.337.232 3.128-1.223 8.41-2.556 12.485a11.8 11.8 0 00-4.63-7.122c-2.95-2.219-10.917-4.071-13.995-4.982a16.542 16.542 0 01-7.419-4.712s.01 12.84 7.46 18.453a22.685 22.685 0 003.787 2.273c-2.7 1.474-5.628 3.532-7.138 4.479a13.773 13.773 0 01-7 2.066s8.06 7.023 15.649 5.44c5.258-1.1 9.622-4.633 11.857-6.727.432 3.036 1.655 8.547 5.049 12.664 4.936 5.994 15.621 5.544 15.621 5.544a13.773 13.773 0 01-4.184-5.994z" transform="translate(22.156)"/></g><path id="사각형_3235" fill="none" d="M0 0h218v218H0z" transform="translate(-2557 3448)"/></g></svg>