<svg xmlns="http://www.w3.org/2000/svg" width="130" height="205.812" viewBox="0 0 130 205.812"><defs><style>.cls-1,.cls-7{fill:#e62e24}.cls-3{fill:#fff}.cls-4{fill:#221714}.cls-6{stroke:#221714}.cls-6,.cls-7{stroke-linecap:round;stroke-linejoin:round}.cls-6{fill:#bed04d}.cls-7{stroke:#211613;stroke-width:1.5px}</style></defs><g id="st_popup01" transform="translate(-506.258 -267.118)"><g id="그룹_1580" transform="translate(506.258 285.397)"><path id="패스_828" d="M552.5 289.188a14.229 14.229 0 007.066-1.669 63.756 63.756 0 00-11.169-8.287 9.036 9.036 0 00-1.567-.291 9.715 9.715 0 00-4.364.69l-4.971 2.038-.2.573.321 2.8c.324 2.824 1.314 8.137 4.323 12.01 1.684 2.163 4.419 3.416 7.017 4.139a16.65 16.65 0 01-.476-1.318c-.158-.5-.346-1.142-.552-1.87-.416-1.416-.928-3.188-1.51-4.906l-1.76-5.2 5.412.978a20.714 20.714 0 002.43.313z" class="cls-1" transform="translate(-452.854 -269.948)"/><path id="패스_829" d="M530.335 275.621a13.254 13.254 0 003.415 4.392 21.144 21.144 0 003.437 2.2l5.572 2.9-5.6 2.854c-1.954.995-4.06 2.294-5.747 3.34-.713.435-1.331.824-1.82 1.106-.416.245-.83.465-1.238.666 2.4 1.19 5.246 2.114 8 1.609 4.851-.864 9.131-4.15 11.256-6.031l1.714-1.522-.942-5.183a8.94 8.94 0 00-2.163-4.435c-.786-.226-1.543-.473-2.351-.674a66.338 66.338 0 00-13.533-1.222z" class="cls-1" transform="translate(-468.227 -275.621)"/><path id="패스_830" d="M617.609 297.79c17.517 20.272 17.77 46.845 17.955 53.666.267 9.887 5.436 58.55-17.123 85.25-35.614 42.164-80.688 25.991-99.117 3.568-27.721-33.723-2.718-72.368-2.718-72.368-2.947-2-14.794-31.465-4.574-55.7 11.55-27.336 33.258-34.911 49.425-36.463.001.005 36.265.78 56.152 22.047z" class="cls-1" transform="translate(-506.258 -275.403)"/></g><path id="패스_831" fill="#e73a18" stroke="#fff" stroke-miterlimit="10" stroke-width="2" d="M604.804 311.834c-.462-1.481-1.194-4.237-2.087-6.854a23.416 23.416 0 002.83.359c9.907.576 18.788-9.83 18.788-9.83a17.461 17.461 0 01-9.267-1.286c-3.132-1.37-10.876-5.37-14.821-5.591a12.935 12.935 0 00-5.779.924c3.374-6.555 6.146-13.546 6.146-13.546-2.558-2.655-8.078-.59-8.078-.59.155 3.332-1.559 8.906-3.1 13.2a12.555 12.555 0 00-4.713-7.713c-3.08-2.452-11.5-4.669-14.755-5.735a17.606 17.606 0 01-7.752-5.243s-.384 13.663 7.376 19.865a24.322 24.322 0 003.962 2.536c-2.917 1.481-6.106 3.588-7.741 4.542a14.612 14.612 0 01-7.526 1.981s8.372 7.724 16.5 6.27c5.632-1 10.388-4.634 12.835-6.792.367 3.248 1.5 9.146 4.985 13.627 5.077 6.525 16.47 6.379 16.47 6.379a14.664 14.664 0 01-4.273-6.503z"/><g id="그룹_1582" transform="translate(538.202 332.753)"><g id="그룹_1581" transform="translate(6.893 1.038)"><path id="패스_832" d="M535.708 304.812a7.972 7.972 0 11-3.779-10.61 7.993 7.993 0 013.779 10.61z" class="cls-3" transform="translate(-520.531 -293.427)"/><path id="패스_833" d="M530.866 301.473a4.821 4.821 0 11-2.283-6.425 4.818 4.818 0 012.283 6.425z" class="cls-4" transform="translate(-518.538 -291.441)"/><path id="패스_834" d="M544.769 304.922a7.972 7.972 0 11-3.774-10.613 7.986 7.986 0 013.774 10.613z" class="cls-3" transform="translate(-504.93 -293.246)"/><path id="패스_835" d="M539.876 301.539a4.785 4.785 0 11-2.267-6.368 4.779 4.779 0 012.267 6.368z" class="cls-4" transform="translate(-502.913 -291.233)"/></g><path id="패스_836" fill="none" stroke="#221714" stroke-linecap="round" stroke-linejoin="round" d="M524.142 302.935s1.271-1.454 10.982-1.454 11.409 1.614 11.409 1.614" transform="translate(-507.425 -278.553)"/><path id="패스_837" d="M522.865 293.045s.446.924 5.23 2.022 5.823.432 5.823.432" class="cls-6" transform="translate(-509.622 -293.045)"/><path id="패스_838" d="M540.13 293.045s-.446.924-5.227 2.022-5.823.432-5.823.432" class="cls-6" transform="translate(-498.927 -293.045)"/><path id="패스_839" d="M548.746 308.219s-5.572-2.041-7.589-4.748-4.9-4.566-7.24-3.218-3.937 8.208 4.2 16.557" class="cls-7" transform="translate(-493.855 -281.435)"/><path id="패스_840" d="M518 309.471s5.295-2.68 6.982-5.6 4.334-5.1 6.816-4.039 4.873 7.683-2.226 16.929" class="cls-7" transform="translate(-517.998 -281.858)"/></g></g></svg>