<svg xmlns="http://www.w3.org/2000/svg" width="33" height="33" viewBox="0 0 33 33"><defs><style>.cls-2{fill:#999;stroke:#999;stroke-width:.2px}</style></defs><g id="tab_book" transform="translate(-289 -2986)"><path id="사각형_945" fill="none" d="M0 0h33v33H0z" transform="translate(289 2986)"/><g id="그룹_1549" transform="translate(293.714 2987.444)"><path id="패스_769" d="M3282.744 207.171h12.735a1.006 1.006 0 001.061-.939v-6.573a1.006 1.006 0 00-1.061-.939h-12.735a1.006 1.006 0 00-1.061.939v6.573a1.006 1.006 0 001.061.939zm1.061-6.574h10.613v4.7h-10.613z" class="cls-2" transform="translate(-3276.904 -193.671)"/><path id="패스_770" d="M3243.074 136.163v26.178h-20.5v-26.178h20.5m.961-1.956h-22.426a1 1 0 00-1 .995v28.1a1 1 0 001 .995h22.426a1 1 0 001-.995V135.2a1 1 0 00-1-.995z" class="cls-2" transform="translate(-3220.614 -134.207)"/><path id="패스_771" d="M3295.715 348.719h-13.207a.947.947 0 000 1.878h13.207a.947.947 0 000-1.878z" class="cls-2" transform="translate(-3276.904 -331.932)"/><path id="패스_772" d="M3295.715 423.719h-13.207a.947.947 0 000 1.878h13.207a.947.947 0 000-1.878z" class="cls-2" transform="translate(-3276.904 -401.063)"/></g></g></svg>