<svg xmlns="http://www.w3.org/2000/svg" width="26" height="26" viewBox="0 0 26 26"><path fill="#fff" d="M0 0h26v26H0z"/><path fill="#824b4b" d="M24.757 11.428L13.499 1.193a.729.729 0 00-.167-.114l-.012-.006a.729.729 0 00-.1-.038.713.713 0 00-.1-.023.735.735 0 00-.25 0 .771.771 0 00-.1.023.728.728 0 00-.1.038h-.009a.766.766 0 00-.17.115L1.245 11.428a.743.743 0 101 1.1l.8-.735v12.468a.742.742 0 00.741.741h18.422a.742.742 0 00.741-.741V11.793l.808.734a.743.743 0 101-1.1zm-9.427 12.09h-4.66v-6.425a2.33 2.33 0 014.66 0zm6.14 0h-4.657v-6.425a3.812 3.812 0 00-7.624 0v6.424H4.531V10.443l.092-.084 8.379-7.617 8.469 7.7z"/></svg>