<svg xmlns="http://www.w3.org/2000/svg" width="26" height="26" viewBox="0 0 26 26"><path data-name="Rectangle 403" fill="none" d="M0 0h26v26H0z"/><path data-name="Path 29" d="M21.484 4.515A12 12 0 1025 13a11.915 11.915 0 00-3.516-8.485zM13 7.768a3.734 3.734 0 11-3.732 3.734A3.736 3.736 0 0113 7.768zm0 8.99a5.96 5.96 0 015.885 4.9 10.454 10.454 0 01-11.77 0A5.96 5.96 0 0113 16.759zm5.033.416a7.5 7.5 0 00-2.07-1.331 5.256 5.256 0 10-5.926 0 7.524 7.524 0 00-4.232 4.763 10.476 10.476 0 1114.391 0 7.479 7.479 0 00-2.163-3.432z" fill="#824b4b"/></svg>