<svg xmlns="http://www.w3.org/2000/svg" width="26" height="26" viewBox="0 0 26 26"><defs><style>.cls-2{fill:#824b4b}</style></defs><g id="tab_book" transform="translate(-234 -3128)"><path id="사각형_404" fill="none" d="M0 0h26v26H0z" transform="translate(234 3128)"/><g id="그룹_820" transform="translate(237 3129)"><path id="패스_30" d="M2917.937 205.639h9.227a.769.769 0 00.769-.769v-5.383a.769.769 0 00-.769-.769h-9.227a.769.769 0 00-.769.769v5.383a.769.769 0 00.769.769zm.769-5.383h7.689v3.844h-7.689z" class="cls-2" transform="translate(-2911.344 -194.758)"/><path id="패스_31" d="M2932.4 384.719h-8.458a.769.769 0 000 1.538h8.458a.769.769 0 100-1.538z" class="cls-2" transform="translate(-2916.954 -369.12)"/><path id="패스_32" d="M2932.4 423.719h-8.458a.769.769 0 000 1.538h8.458a.769.769 0 100-1.538z" class="cls-2" transform="translate(-2916.954 -405.687)"/><path id="패스_33" d="M2839.918 134.719h-16.125a2.628 2.628 0 00-2.625 2.625v18.75a2.628 2.628 0 002.625 2.625h16.125a.75.75 0 00.75-.75v-22.5a.75.75 0 00-.75-.75zm-17.25 21.375v-18.75a1.126 1.126 0 011.125-1.125h.375v21h-.375a1.126 1.126 0 01-1.125-1.125zm16.5-3.432v4.557h-13.5v-21h13.5z" class="cls-2" transform="translate(-2821.168 -134.719)"/></g></g></svg>