<svg xmlns="http://www.w3.org/2000/svg" width="33" height="33" viewBox="0 0 33 33"><path fill="#fff" d="M0 0h33v33H0z"/><path fill="#999" stroke="#999" stroke-width=".2" d="M31.686 14.469L17.145 1.248a.942.942 0 00-.216-.148l-.015-.008a.935.935 0 00-.129-.049.915.915 0 00-.124-.03.948.948 0 00-.323 0 1 1 0 00-.124.03.947.947 0 00-.129.05l-.011.006a.987.987 0 00-.219.149L1.314 14.469a.957.957 0 101.288 1.417l1.043-.948v16.1a.958.958 0 00.957.957h23.8a.958.958 0 00.957-.957v-16.1l1.043.948a.957.957 0 101.288-1.417zM19.51 30.085h-6.019v-8.3a3.01 3.01 0 016.019 0zm7.93 0h-6.016v-8.3a4.924 4.924 0 00-9.848 0v8.3H5.559V13.193l.119-.109 10.823-9.838 10.939 9.947z"/></svg>