<svg xmlns="http://www.w3.org/2000/svg" width="17" height="17" viewBox="0 0 17 17"><defs><style>.cls-2{fill:#222}</style></defs><g id="tab_library" transform="translate(-498.709 -308.017)"><path id="사각형_3237" fill="none" d="M0 0h17v17H0z" transform="translate(498.709 308.017)"/><path id="패스_32729" d="M532.632 427.351h-1.144a.663.663 0 00-.662.662v5.853a.663.663 0 00.662.662h1.144a.663.663 0 00.662-.662v-5.853a.663.663 0 00-.662-.662zm-.221 6.295h-.7v-5.412h.7zm0 0" class="cls-2" transform="translate(-30.725 -114.354)"/><path id="패스_32730" d="M633.453 427.351h-1.144a.663.663 0 00-.662.662v5.853a.663.663 0 00.662.662h1.144a.663.663 0 00.662-.662v-5.853a.663.663 0 00-.662-.662zm-.221 6.295h-.7v-5.412h.7zm0 0" class="cls-2" transform="translate(-127.46 -114.354)"/><g id="그룹_9109" transform="translate(498.709 308.401)"><path id="패스_32731" d="M764.452 425.5l-1.515-5.654a.663.663 0 00-.811-.468l-1.1.3a.663.663 0 00-.468.811l1.515 5.654a.66.66 0 00.811.468l1.1-.3a.663.663 0 00.468-.811zm-1.588.2l-1.4-5.228.678-.182 1.4 5.227zm0 0" class="cls-2" transform="translate(-749.934 -415.071)"/><path id="패스_32732" d="M515.673 322.547l-.339-1.242-3.218-11.775a1.032 1.032 0 00-.492-.629 1.069 1.069 0 00-.8-.1l-2.817.74a1.075 1.075 0 00-.259.106 1.062 1.062 0 00-.879-.461h-2.919a1.072 1.072 0 01-1.268 0h-2.916a1.048 1.048 0 00-1.057 1.036V323.7a1.048 1.048 0 001.057 1.036h2.916a1.071 1.071 0 011.268 0h2.916a1.048 1.048 0 001.057-1.036v-10.453l2.551 9.334.339 1.242a1.032 1.032 0 00.493.629 1.069 1.069 0 00.8.1l2.817-.74a1.048 1.048 0 00.642-.483 1.013 1.013 0 00.106-.786zm-12.78 1.153a.21.21 0 01-.211.207h-2.916a.21.21 0 01-.211-.207v-.872h3.339zm0-1.7h-3.339v-10.081h3.339zm0-10.9h-3.339v-.872a.21.21 0 01.211-.207h2.916a.21.21 0 01.211.207zm4.184 12.6a.21.21 0 01-.211.207h-2.916a.21.21 0 01-.211-.207v-.872h3.339zm0-1.7h-3.339v-10.081h3.339zm0-10.9h-3.339v-.872a.21.21 0 01.211-.207h2.916a.21.21 0 01.211.207zm1-.5a.2.2 0 01.021-.157.209.209 0 01.128-.1l2.817-.74a.215.215 0 01.055-.007.211.211 0 01.2.154l.23.842-3.225.847zm3.109 11.375l-2.66-9.732 3.225-.847 2.66 9.732zm3.653.953a.211.211 0 01-.128.1l-2.817.74a.215.215 0 01-.16-.021.207.207 0 01-.1-.126l-.23-.842 3.225-.847.23.842a.2.2 0 01-.021.157zm0 0" class="cls-2" transform="translate(-498.709 -308.762)"/></g></g></svg>