<svg xmlns="http://www.w3.org/2000/svg" width="17" height="17" viewBox="0 0 17 17"><defs><style>.cls-2{fill:#222}</style></defs><g id="tab_book_s" transform="translate(0 .072)"><path id="사각형_945" fill="none" d="M0 0h17v17H0z" transform="translate(0 -.072)"/><g id="그룹_1549" transform="translate(2 .428)"><path id="패스_769" d="M3282.248 203.213h6.781a.535.535 0 00.565-.5v-3.5a.535.535 0 00-.565-.5h-6.781a.535.535 0 00-.565.5v3.5a.535.535 0 00.565.5zm.565-3.5h5.651v2.5h-5.651z" class="cls-2" transform="translate(-3279.138 -196.035)"/><path id="패스_770" d="M3232.573 135.247v13.919h-10.917v-13.919h10.917m.512-1.04h-11.94a.53.53 0 00-.53.529v14.942a.53.53 0 00.53.529h11.94a.529.529 0 00.53-.529v-14.942a.529.529 0 00-.53-.529z" class="cls-2" transform="translate(-3220.614 -134.207)"/><path id="패스_771" d="M3289.154 348.719h-7.031a.5.5 0 000 1h7.031a.5.5 0 000-1z" class="cls-2" transform="translate(-3279.138 -339.792)"/><path id="패스_772" d="M3289.154 423.719h-7.031a.5.5 0 000 1h7.031a.5.5 0 000-1z" class="cls-2" transform="translate(-3279.138 -411.672)"/></g></g></svg>