<svg xmlns="http://www.w3.org/2000/svg" width="33" height="33" viewBox="0 0 33 33"><path fill="none" d="M0 0h33v33H0z"/><path fill="#999" stroke="#999" stroke-width=".2" d="M27.499 5.5a15.555 15.555 0 104.558 11 15.447 15.447 0 00-4.558-11zm-11 4.218a4.84 4.84 0 11-4.839 4.84 4.843 4.843 0 014.84-4.841zm0 11.656a7.727 7.727 0 017.629 6.358 13.552 13.552 0 01-15.258 0 7.726 7.726 0 017.63-6.36zm6.525.539a9.719 9.719 0 00-2.684-1.726 6.814 6.814 0 10-7.682 0 9.753 9.753 0 00-5.487 6.175 13.582 13.582 0 1118.656 0 9.7 9.7 0 00-2.802-4.45z"/></svg>