<svg xmlns="http://www.w3.org/2000/svg" width="17" height="17" viewBox="0 0 17 17"><defs><style>.cls-2{fill:#222;stroke:#222;stroke-width:.3px}</style></defs><g id="tab_crown_s" transform="translate(-48 -293)"><path id="사각형_999" fill="none" d="M0 0h17v17H0z" transform="translate(48 293)"/><g id="그룹_1578" transform="translate(-719.5 -54.5)"><path id="패스_794" d="M776 364a8 8 0 118-8 8.009 8.009 0 01-8 8zm0-15.333a7.333 7.333 0 107.333 7.333 7.342 7.342 0 00-7.333-7.333zm0 0" class="cls-2"/><path id="패스_795" d="M856.249 451.647h-7.16a.334.334 0 01-.329-.277l-.753-4.445a.335.335 0 01.129-.323.331.331 0 01.347-.031l2.163 1.067 1.731-3.151a.348.348 0 01.584 0l1.731 3.151 2.163-1.067a.333.333 0 01.476.355l-.753 4.445a.334.334 0 01-.329.277zm-6.878-.667h6.6l.6-3.524-1.864.919a.332.332 0 01-.44-.138l-1.593-2.9-1.592 2.9a.332.332 0 01-.44.138l-1.864-.919zm0 0" class="cls-2" transform="translate(-76.669 -92.314)"/></g></g></svg>