<svg xmlns="http://www.w3.org/2000/svg" width="33" height="33" viewBox="0 0 33 33"><path fill="#FFF" d="M0 0h33v33H0V0z"/><path stroke="#000" stroke-width=".6" d="M31.686 14.469L17.145 1.248a.905.905 0 00-.215-.148l-.015-.008a.876.876 0 00-.129-.049.973.973 0 00-.7.05l-.011.006a1.02 1.02 0 00-.219.149L1.314 14.469a.958.958 0 001.289 1.417l1.043-.948v16.1c0 .528.429.956.957.957h23.8a.96.96 0 00.957-.957v-16.1l1.043.948a.957.957 0 101.288-1.417h-.005zM19.51 30.085h-6.019v-8.3a3.01 3.01 0 016.019 0v8.3zm7.929 0h-6.016v-8.3a4.924 4.924 0 10-9.848 0v8.3H5.559V13.193l.119-.109 10.823-9.838 10.938 9.947v16.892z"/></svg>